<?xml version="1.0" encoding="UTF-8"?>
<svg width="298px" height="123px" viewBox="0 0 298 123" version="1.1" xmlns="http://www.w3.org/2000/svg" xmlns:xlink="http://www.w3.org/1999/xlink">
    <!-- Generator: Sketch 50.2 (55047) - http://www.bohemiancoding.com/sketch -->
    <title>ILR_LDI_Positive</title>
    <desc>Created with Sketch.</desc>
    <defs></defs>
    <g id="ILR_LDI_Positive" stroke="none" stroke-width="1" fill="none" fill-rule="evenodd">
        <path d="M32.193,92.765 L42.808,92.765 L43.692,91.88 L43.692,31.734 L42.808,30.849 L32.193,30.849 L31.309,31.734 L31.309,91.88 L32.193,92.765 Z M240.357,122.087 L240.356,112.486 L239.457,111.588 L12.489,111.588 L12.491,111.587 L11.553,110.649 L11.538,110.664 L11.538,13.285 L12.437,12.384 L84.804,12.384 L85.7,11.488 L85.7,1.858 L84.823,0.981 L1.009,0.981 L0.133,1.855 L0.133,122.146 L0.98,122.992 L239.452,122.992 L240.357,122.087 Z M154.457,49.424 C154.457,37.04 145.612,30.849 133.228,30.849 L104.04,30.849 L103.155,31.734 L103.155,91.88 L104.04,92.765 L114.654,92.765 L115.539,91.88 L115.539,68.883 L116.423,67.998 L125.268,67.998 L127.037,68.883 L144.727,91.88 L146.496,92.765 L151.804,92.765 L152.687,91.88 L152.687,83.035 L141.189,67.998 L141.189,67.114 C148.266,65.345 154.457,59.153 154.457,49.424 Z M142.074,49.424 C142.074,55.615 138.536,57.384 133.228,57.384 L116.423,57.384 L115.539,56.5 L115.539,42.348 L116.423,41.463 L133.228,41.463 C138.536,41.463 142.074,43.232 142.074,49.424 Z M96.886,92.765 L97.769,91.88 L97.769,83.035 L96.886,82.15 L69.466,82.15 L68.581,81.266 L68.581,31.734 L67.697,30.849 L57.083,30.849 L56.198,31.734 L56.198,91.88 L57.083,92.765 L96.886,92.765 Z" id="Fill-1" fill="#222222"></path>
        <polyline id="Fill-2" fill="#99242F" points="223.734 92.723 183.932 92.723 183.047 91.839 183.047 31.69 183.932 30.806 194.545 30.806 195.43 31.69 195.43 81.224 196.314 82.108 223.734 82.108 224.619 82.994 224.619 91.839 223.734 92.723"></polyline>
        <path d="M248.5,41.421 L240.539,41.421 L239.655,42.305 L239.655,81.224 L240.539,82.108 L248.5,82.108 C260.884,82.108 265.306,75.917 265.306,61.765 C265.306,47.612 260.884,41.421 248.5,41.421 Z M247.615,92.723 L228.156,92.723 L227.271,91.839 L227.271,31.69 L228.156,30.806 L247.615,30.806 C269.728,30.806 277.689,42.305 277.689,61.765 C277.689,81.224 269.728,92.723 247.615,92.723 Z" id="Fill-3" fill="#99242F"></path>
        <polyline id="Fill-4" fill="#99242F" points="296.934 92.723 286.32 92.723 285.435 91.839 285.435 31.69 286.32 30.806 296.934 30.806 297.819 31.69 297.819 91.839 296.934 92.723"></polyline>
    </g>
</svg>