<?xml version="1.0" encoding="UTF-8"?>
<svg width="801px" height="123px" viewBox="0 0 801 123" version="1.1" xmlns="http://www.w3.org/2000/svg" xmlns:xlink="http://www.w3.org/1999/xlink">
    <!-- Generator: Sketch 50.2 (55047) - http://www.bohemiancoding.com/sketch -->
    <title>ILR_WorkerInstitute_Positive</title>
    <desc>Created with Sketch.</desc>
    <defs></defs>
    <g id="ILR_WorkerInstitute_Positive" stroke="none" stroke-width="1" fill="none" fill-rule="evenodd">
        <path d="M32.241,92.765 L42.854,92.765 L43.739,91.88 L43.739,31.734 L42.854,30.849 L32.241,30.849 L31.356,31.734 L31.356,91.88 L32.241,92.765 Z M317.688,122.087 L317.688,112.486 L316.788,111.588 L12.537,111.588 L12.538,111.587 L11.601,110.649 L11.586,110.664 L11.586,13.285 L12.484,12.384 L84.851,12.384 L85.747,11.488 L85.747,1.858 L84.87,0.981 L1.056,0.981 L0.181,1.855 L0.181,122.146 L1.027,122.992 L316.783,122.992 L317.688,122.087 Z M154.504,49.424 C154.504,37.04 145.659,30.849 133.276,30.849 L104.088,30.849 L103.203,31.734 L103.203,91.88 L104.088,92.765 L114.701,92.765 L115.586,91.88 L115.586,68.883 L116.471,67.998 L125.315,67.998 L127.085,68.883 L144.774,91.88 L146.544,92.765 L151.851,92.765 L152.735,91.88 L152.735,83.035 L141.236,67.998 L141.236,67.114 C148.312,65.345 154.504,59.153 154.504,49.424 Z M142.121,49.424 C142.121,55.615 138.583,57.384 133.276,57.384 L116.471,57.384 L115.586,56.5 L115.586,42.348 L116.471,41.463 L133.276,41.463 C138.583,41.463 142.121,43.232 142.121,49.424 Z M96.933,92.765 L97.817,91.88 L97.817,83.035 L96.933,82.15 L69.513,82.15 L68.629,81.266 L68.629,31.734 L67.744,30.849 L57.13,30.849 L56.245,31.734 L56.245,91.88 L57.13,92.765 L96.933,92.765 Z" id="Fill-1" fill="#222222"></path>
        <polyline id="Fill-2" fill="#99242F" points="223.782 30.807 224.666 31.691 236.165 72.379 237.05 72.379 245.895 31.691 246.779 30.807 255.624 30.807 256.509 31.691 256.509 40.537 243.241 91.839 242.356 92.723 230.858 92.723 229.974 91.839 218.475 49.382 217.59 49.382 206.091 91.839 205.207 92.723 193.708 92.723 192.824 91.839 179.556 40.537 179.556 31.691 180.44 30.807 189.285 30.807 190.17 31.691 199.016 72.379 199.9 72.379 211.398 31.691 212.283 30.807 223.782 30.807"></polyline>
        <path d="M278.443,58.227 C272.252,58.227 268.714,62.649 268.714,70.61 C268.714,78.571 272.252,82.994 278.443,82.994 C284.636,82.994 288.173,78.571 288.173,70.61 C288.173,62.649 284.636,58.227 278.443,58.227 Z M278.443,93.607 C265.176,93.607 256.331,84.762 256.331,70.61 C256.331,56.457 265.176,47.613 278.443,47.613 C291.712,47.613 300.557,56.457 300.557,70.61 C300.557,84.762 291.712,93.607 278.443,93.607 Z" id="Fill-3" fill="#99242F"></path>
        <path d="M333.743,59.111 L327.551,59.111 C320.475,59.111 317.821,62.649 317.821,70.61 L317.821,91.839 L316.937,92.723 L306.322,92.723 L305.438,91.839 L305.438,49.382 L306.322,48.496 L316.052,48.496 L316.937,49.382 L317.821,52.036 L318.706,52.036 C318.706,52.036 320.475,48.496 328.436,48.496 L333.743,48.496 L334.627,49.382 L334.627,58.227 L333.743,59.111" id="Fill-4" fill="#99242F"></path>
        <polyline id="Fill-5" fill="#99242F" points="376.729 92.723 371.422 92.723 369.652 91.839 357.27 78.571 356.385 78.571 351.078 83.878 350.193 85.647 350.193 91.839 349.309 92.723 338.694 92.723 337.811 91.839 337.811 31.691 338.694 30.807 349.309 30.807 350.193 31.691 350.193 67.072 351.078 67.072 368.769 49.382 370.537 48.496 375.845 48.496 376.729 49.382 376.729 58.227 366.115 68.842 366.115 69.725 377.613 82.994 377.613 91.839 376.729 92.723"></polyline>
        <path d="M409.189,65.303 C409.189,64.418 408.305,58.227 401.229,58.227 C394.152,58.227 393.268,64.418 393.268,65.303 L394.152,66.188 L408.305,66.188 L409.189,65.303 Z M422.457,74.147 L421.572,75.033 L394.152,75.033 L393.268,75.917 C393.268,77.686 395.037,82.994 402.113,82.994 C404.767,82.994 407.42,82.108 408.305,80.34 L409.189,79.455 L419.804,79.455 L420.688,80.34 C419.804,85.647 415.381,93.607 402.113,93.607 C387.076,93.607 380,82.994 380,70.61 C380,58.227 387.076,47.613 401.229,47.613 C415.381,47.613 422.457,58.227 422.457,70.61 L422.457,74.147 Z" id="Fill-6" fill="#99242F"></path>
        <path d="M455.493,59.111 L449.302,59.111 C442.225,59.111 439.572,62.649 439.572,70.61 L439.572,91.839 L438.688,92.723 L428.072,92.723 L427.188,91.839 L427.188,49.382 L428.072,48.496 L437.803,48.496 L438.688,49.382 L439.572,52.036 L440.456,52.036 C440.456,52.036 442.225,48.496 450.186,48.496 L455.493,48.496 L456.377,49.382 L456.377,58.227 L455.493,59.111" id="Fill-7" fill="#99242F"></path>
        <polyline id="Fill-8" fill="#99242F" points="496.179 92.723 485.564 92.723 484.681 91.839 484.681 31.691 485.564 30.807 496.179 30.807 497.063 31.691 497.063 91.839 496.179 92.723"></polyline>
        <path d="M546.595,92.723 L535.98,92.723 L535.095,91.839 L535.095,66.188 C535.095,61.765 533.327,58.227 528.02,58.227 C521.828,58.227 518.291,61.765 518.291,69.725 L518.291,91.839 L517.405,92.723 L506.79,92.723 L505.906,91.839 L505.906,49.382 L506.79,48.496 L516.521,48.496 L517.405,49.382 L518.291,52.036 L519.175,52.036 C520.942,50.266 524.481,47.613 530.673,47.613 C541.288,47.613 547.479,54.689 547.479,65.303 L547.479,91.839 L546.595,92.723" id="Fill-9" fill="#99242F"></path>
        <path d="M571.103,93.607 C558.72,93.607 551.643,87.416 551.643,78.571 L552.528,77.686 L563.142,77.686 L564.027,78.571 C564.027,82.108 566.681,82.994 571.103,82.994 C575.525,82.994 578.18,82.108 578.18,79.455 C578.18,75.917 574.641,75.917 569.333,75.033 C564.027,74.147 552.528,71.494 552.528,60.881 C552.528,53.804 557.834,47.613 571.103,47.613 C581.717,47.613 589.678,52.036 589.678,60.881 L588.794,61.765 L578.18,61.765 L577.294,60.881 C577.294,59.111 575.525,58.227 571.103,58.227 C566.681,58.227 564.911,59.111 564.911,61.765 C564.911,65.303 570.219,65.303 575.525,66.188 C580.833,67.072 590.563,68.842 590.563,79.455 C590.563,86.532 585.255,93.607 571.103,93.607" id="Fill-10" fill="#99242F"></path>
        <path d="M612.392,79.455 C612.392,81.224 613.275,82.108 615.045,82.108 L623.006,82.108 L623.89,82.994 L623.89,91.839 L623.006,92.723 L615.045,92.723 C607.084,92.723 600.007,89.185 600.007,79.455 L600.007,59.995 L599.123,59.111 L592.932,59.111 L592.048,58.227 L592.048,49.382 L592.932,48.496 L599.123,48.496 L600.007,47.613 L600.007,39.652 L600.893,38.767 L611.507,38.767 L612.392,39.652 L612.392,47.613 L613.275,48.496 L623.006,48.496 L623.89,49.382 L623.89,58.227 L623.006,59.111 L613.275,59.111 L612.392,59.995 L612.392,79.455" id="Fill-11" fill="#99242F"></path>
        <path d="M640.758,92.723 L630.144,92.723 L629.26,91.839 L629.26,49.382 L630.144,48.496 L640.758,48.496 L641.643,49.382 L641.643,91.839 L640.758,92.723 Z M640.758,41.421 L630.144,41.421 L629.26,40.537 L629.26,31.691 L630.144,30.807 L640.758,30.807 L641.643,31.691 L641.643,40.537 L640.758,41.421 Z" id="Fill-12" fill="#99242F"></path>
        <path d="M665.125,79.455 C665.125,81.224 666.009,82.108 667.778,82.108 L675.739,82.108 L676.624,82.994 L676.624,91.839 L675.739,92.723 L667.778,92.723 C659.817,92.723 652.741,89.185 652.741,79.455 L652.741,59.995 L651.856,59.111 L645.665,59.111 L644.781,58.227 L644.781,49.382 L645.665,48.496 L651.856,48.496 L652.741,47.613 L652.741,39.652 L653.626,38.767 L664.241,38.767 L665.125,39.652 L665.125,47.613 L666.009,48.496 L675.739,48.496 L676.624,49.382 L676.624,58.227 L675.739,59.111 L666.009,59.111 L665.125,59.995 L665.125,79.455" id="Fill-13" fill="#99242F"></path>
        <path d="M681.683,48.496 L692.298,48.496 L693.182,49.382 L693.182,75.033 C693.182,79.455 694.951,82.994 700.257,82.994 C706.45,82.994 709.104,78.571 709.104,72.379 L709.104,49.382 L709.987,48.496 L720.603,48.496 L721.486,49.382 L721.486,91.839 L720.603,92.723 L710.872,92.723 L709.987,91.839 L709.104,89.185 L708.218,89.185 C708.218,89.185 705.564,93.607 697.604,93.607 C686.99,93.607 680.799,86.532 680.799,75.917 L680.799,49.382 L681.683,48.496" id="Fill-14" fill="#99242F"></path>
        <path d="M745.066,79.455 C745.066,81.224 745.95,82.108 747.72,82.108 L755.681,82.108 L756.564,82.994 L756.564,91.839 L755.681,92.723 L747.72,92.723 C739.759,92.723 732.682,89.185 732.682,79.455 L732.682,59.995 L731.798,59.111 L725.606,59.111 L724.723,58.227 L724.723,49.382 L725.606,48.496 L731.798,48.496 L732.682,47.613 L732.682,39.652 L733.567,38.767 L744.181,38.767 L745.066,39.652 L745.066,47.613 L745.95,48.496 L755.681,48.496 L756.564,49.382 L756.564,58.227 L755.681,59.111 L745.95,59.111 L745.066,59.995 L745.066,79.455" id="Fill-15" fill="#99242F"></path>
        <path d="M787.433,65.303 C787.433,64.418 786.549,58.227 779.472,58.227 C772.396,58.227 771.513,64.418 771.513,65.303 L772.396,66.188 L786.549,66.188 L787.433,65.303 Z M800.701,74.147 L799.817,75.033 L772.396,75.033 L771.513,75.917 C771.513,77.686 773.281,82.994 780.357,82.994 C783.012,82.994 785.665,82.108 786.549,80.34 L787.433,79.455 L798.048,79.455 L798.932,80.34 C798.048,85.647 793.624,93.607 780.357,93.607 C765.32,93.607 758.244,82.994 758.244,70.61 C758.244,58.227 765.32,47.613 779.472,47.613 C793.624,47.613 800.701,58.227 800.701,70.61 L800.701,74.147 Z" id="Fill-16" fill="#99242F"></path>
    </g>
</svg>