<?xml version="1.0" encoding="UTF-8"?>
<svg width="335px" height="123px" viewBox="0 0 335 123" version="1.1" xmlns="http://www.w3.org/2000/svg" xmlns:xlink="http://www.w3.org/1999/xlink">
    <!-- Generator: Sketch 50.2 (55047) - http://www.bohemiancoding.com/sketch -->
    <title>ILR_IWS_Positive</title>
    <desc>Created with Sketch.</desc>
    <defs></defs>
    <g id="ILR_IWS_Positive" stroke="none" stroke-width="1" fill="none" fill-rule="evenodd">
        <path d="M32.978,92.43 L43.592,92.43 L44.477,91.546 L44.477,31.399 L43.592,30.514 L32.978,30.514 L32.094,31.399 L32.094,91.546 L32.978,92.43 Z M259.178,121.752 L259.176,112.152 L258.276,111.254 L13.275,111.254 L13.276,111.252 L12.338,110.314 L12.322,110.329 L12.322,12.951 L13.222,12.05 L85.588,12.05 L86.484,11.154 L86.484,1.523 L85.607,0.646 L1.793,0.646 L0.918,1.52 L0.918,121.811 L1.765,122.658 L258.273,122.658 L259.178,121.752 Z M155.241,49.089 C155.241,36.706 146.397,30.514 134.014,30.514 L104.825,30.514 L103.941,31.399 L103.941,91.546 L104.825,92.43 L115.439,92.43 L116.323,91.546 L116.323,68.548 L117.208,67.664 L126.053,67.664 L127.822,68.548 L145.512,91.546 L147.281,92.43 L152.588,92.43 L153.473,91.546 L153.473,82.701 L141.974,67.664 L141.974,66.779 C149.05,65.011 155.241,58.819 155.241,49.089 Z M142.858,49.089 C142.858,55.281 139.32,57.05 134.014,57.05 L117.208,57.05 L116.323,56.165 L116.323,42.013 L117.208,41.129 L134.014,41.129 C139.32,41.129 142.858,42.898 142.858,49.089 Z M97.67,92.43 L98.555,91.546 L98.555,82.701 L97.67,81.816 L70.25,81.816 L69.366,80.931 L69.366,31.399 L68.482,30.514 L57.867,30.514 L56.982,31.399 L56.982,91.546 L57.867,92.43 L97.67,92.43 Z" id="Fill-1" fill="#222222"></path>
        <polyline id="Fill-2" fill="#991C2D" points="195.33 92.388 184.716 92.388 183.831 91.504 183.831 31.356 184.716 30.471 195.33 30.471 196.215 31.356 196.215 91.504 195.33 92.388"></polyline>
        <polyline id="Fill-3" fill="#991C2D" points="247.117 30.471 248.001 31.356 259.501 72.044 260.385 72.044 269.23 31.356 270.114 30.471 278.96 30.471 279.845 31.356 279.845 40.202 266.576 91.504 265.692 92.388 254.193 92.388 253.309 91.504 241.81 49.047 240.925 49.047 229.427 91.504 228.542 92.388 217.044 92.388 216.159 91.504 202.892 40.202 202.892 31.356 203.775 30.471 212.621 30.471 213.506 31.356 222.351 72.044 223.235 72.044 234.733 31.356 235.618 30.471 247.117 30.471"></polyline>
        <path d="M308.803,93.272 C291.111,93.272 283.151,84.427 283.151,72.929 L284.035,72.044 L294.65,72.044 L295.534,72.929 C295.534,79.12 299.072,82.659 309.687,82.659 C317.648,82.659 322.07,80.005 322.07,74.698 C322.07,68.507 318.531,66.737 306.148,64.968 C293.766,63.2 284.035,58.776 284.035,46.393 C284.035,37.549 291.111,29.588 307.918,29.588 C324.724,29.588 331.8,37.549 331.8,48.161 L330.915,49.047 L320.301,49.047 L319.416,48.161 C319.416,42.854 316.763,40.202 307.033,40.202 C299.072,40.202 296.419,42.854 296.419,46.393 C296.419,51.701 299.957,53.469 312.34,55.239 C324.724,57.008 334.453,62.314 334.453,74.698 C334.453,84.427 327.377,93.272 308.803,93.272" id="Fill-4" fill="#991C2D"></path>
    </g>
</svg>