<?xml version="1.0" standalone="no"?>
<!DOCTYPE svg PUBLIC "-//W3C//DTD SVG 1.1//EN" "http://www.w3.org/Graphics/SVG/1.1/DTD/svg11.dtd" >
<svg xmlns="http://www.w3.org/2000/svg">
<metadata>
Created by FontPrep 20130207 at Fri Dec 19 10:03:55 2014
 By brian p harrington
Created by Caley Jack Steward with FontPrep 2.0 (http://FontPrep.sf.net)
</metadata>
<defs>
<font id="984a1ca0baa35bfeed3955df61fe9838" horiz-adv-x='1024' >
  <font-face 
    font-family="fontcustom"
    font-weight="500"
    font-stretch="normal"
    units-per-em="2048"
    panose-1="2 0 6 3 0 0 0 0 0 0"
    ascent="1792"
    descent="-256"
    bbox="-6 -344 2224 1880"
    underline-thickness="100"
    underline-position="-208"
    unicode-range="U+F100-F123"
  />
<missing-glyph horiz-adv-x="748" 
d="M136 68h408v1228h-408v-1228zM68 0v1364h544v-1364h-544z" />
    <glyph glyph-name=".notdef" horiz-adv-x="748" 
d="M136 68h408v1228h-408v-1228zM68 0v1364h544v-1364h-544z" />
    <glyph glyph-name=".null" horiz-adv-x="0" 
 />
    <glyph glyph-name="nonmarkingreturn" horiz-adv-x="680" 
 />
    <glyph glyph-name="uniF100" unicode="&#xf100;" 
d="M1776 1792l272 -268l-1024 -992l-1024 992l272 268l752 -728z" />
    <glyph glyph-name="uniF101" unicode="&#xf101;" horiz-adv-x="1260" 
d="M1260 16l-268 -272l-992 1024l992 1024l268 -272l-728 -752z" />
    <glyph glyph-name="uniF102" unicode="&#xf102;" horiz-adv-x="1260" 
d="M0 1520l268 272l992 -1024l-992 -1024l-268 272l728 752z" />
    <glyph glyph-name="uniF103" unicode="&#xf103;" horiz-adv-x="1132" 
d="M1132 768l-1028 -1024l-104 108l916 916l-916 920l104 104z" />
    <glyph glyph-name="uniF104" unicode="&#xf104;" 
d="M1736 1792l312 -320l-1216 -1256l-832 844l312 324l520 -528z" />
    <glyph glyph-name="uniF105" unicode="&#xf105;" 
d="M1772 104q0 -36 -24 -60t-60 -24t-60 24l-120 120q-24 24 -24 60t24 60t60 24t60 -24l120 -120q24 -24 24 -60zM1024 84q36 0 60 -24t24 -60v-172q0 -36 -24 -60t-60 -24t-60 24t-24 60v172q0 36 24 60t60 24zM480 308q36 0 60 -24t24 -60t-24 -60l-120 -120
q-24 -24 -60 -24t-60 24t-24 60t24 60l120 120q24 24 60 24zM340 768q0 -36 -24 -60t-60 -24h-172q-36 0 -60 24t-24 60t24 60t60 24h172q36 0 60 -24t24 -60zM276 1432q0 36 24 60t60 24t60 -24l120 -120q24 -24 24 -60t-24 -60t-60 -24t-60 24l-120 120q-24 24 -24 60z
M1024 1452q-36 0 -60 24t-24 60v172q0 36 24 60t60 24t60 -24t24 -60v-172q0 -36 -24 -60t-60 -24zM1024 1108q-140 0 -240 -100t-100 -240t100 -240t240 -100t240 100t100 240t-100 240t-240 100zM1024 256q-212 0 -362 150t-150 362t150 362t362 150t362 -150t150 -362
t-150 -362t-362 -150zM1568 1228q-36 0 -60 24t-24 60t24 60l120 120q24 24 60 24t60 -24t24 -60t-24 -60l-120 -120q-24 -24 -60 -24zM1964 684h-172q-36 0 -60 24t-24 60t24 60t60 24h172q36 0 60 -24t24 -60t-24 -60t-60 -24z" />
    <glyph glyph-name="uniF106" unicode="&#xf106;" 
d="M340 768q0 -280 202 -482t482 -202q240 0 426 150t238 382q-312 56 -536 280t-280 536q-232 -52 -382 -238t-150 -426zM1024 -256q-424 0 -724 300t-300 724t300 724t724 300q88 0 188 -20q-16 -64 -16 -152q0 -284 198 -482t482 -198q92 0 156 16q16 -80 16 -188
q0 -424 -300 -724t-724 -300z" />
    <glyph glyph-name="uniF107" unicode="&#xf107;" 
d="M1012 12l20 -108l80 -20l-124 -24zM1212 460v252q0 40 -42 40t-42 -40v-252h84zM1060 460v252q0 40 -42 40t-42 -40v-252h84zM916 460v252q0 40 -42 40t-42 -40v-252h84zM1168 816q40 0 72 -32t32 -72v-312h-500v312q0 40 30 72t72 32t74 -32q32 32 74 32t74 -32
q32 32 72 32zM1988 768q0 400 -282 682t-682 282t-682 -282t-282 -682q0 -248 120 -462t320 -346l52 1048l468 600l508 -600v-12l28 -1028q200 132 316 342t116 458zM640 1020h800l-420 492zM1024 288q156 0 268 -110t112 -266v-8q0 -4 -2 -10t-2 -10q32 12 96 44l-28 1028
h-856l-52 -1032q36 -20 88 -40l-4 28q0 156 112 266t268 110zM1340 -88q0 132 -92 224t-224 92t-224 -92t-92 -224q0 -36 4 -52q72 -24 108 -32q-12 44 -12 84q0 88 64 152t152 64t152 -64t64 -152q0 -48 -16 -84q48 12 116 32v52zM1180 -84q0 60 -46 104t-110 44t-110 -44
t-46 -100t24 -104q68 -12 120 -12t132 8q36 44 36 104zM1024 1792q424 0 724 -300t300 -724t-300 -724t-724 -300t-724 300t-300 724t300 724t724 300z" />
    <glyph glyph-name="uniF108" unicode="&#xf108;" horiz-adv-x="2012" 
d="M2012 1560l-792 -792l792 -792l-196 -196l-792 792l-828 -828l-196 196l828 828l-828 828l196 196l828 -828l792 792z" />
    <glyph glyph-name="uniF109" unicode="&#xf109;" 
d="M2048 348q0 -56 -38 -94t-90 -38h-1792q-52 0 -90 38t-38 94v1252l1024 -860l1024 860v-1252zM128 1792h1792q32 0 64 -20l-960 -768l-960 768q32 20 64 20z" />
    <glyph glyph-name="uniF10A" unicode="&#xf10a;" horiz-adv-x="1024" 
d="M188 1328q0 80 34 170t84 148t150 102t232 44h336v-372h-280q-36 0 -64 -30t-28 -62v-280h372q-12 -196 -92 -372h-280v-932h-464v932h-188v372h188v280z" />
    <glyph glyph-name="uniF10B" unicode="&#xf10b;" 
d="M92 116h1864q40 0 66 -26t26 -66t-26 -66t-66 -26h-1864q-40 0 -66 26t-26 66t26 66t66 26zM1488 1232q-100 0 -200 -60q-44 188 -196 310t-348 122q-232 0 -394 -162t-162 -394h-188q0 308 218 526t526 218q208 0 382 -104t270 -276q64 8 92 8q180 0 326 -104t202 -268
h-204q-104 184 -324 184zM1956 676h-1864q-40 0 -66 26t-26 66t26 66t66 26h1864q40 0 66 -26t26 -66t-26 -66t-66 -26zM1956 304h-1864q-40 0 -66 26t-26 66t26 66t66 26h1864q40 0 66 -26t26 -66t-26 -66t-66 -26z" />
    <glyph glyph-name="uniF10C" unicode="&#xf10c;" 
d="M1024 1172q-172 0 -290 -118t-118 -282t118 -282t290 -118t292 118t120 282t-120 282t-292 118zM1816 924h-180q28 -100 28 -172q0 -256 -186 -438t-450 -182t-452 182t-188 438q0 72 28 172h-188v-864q0 -32 24 -56t56 -24h1428q32 0 56 24t24 56v864zM1492 1564
q-40 0 -66 -26t-26 -66v-220q0 -40 26 -66t66 -26h232q40 0 66 26t26 66v220q0 40 -26 66t-66 26h-232zM264 1792h1520q108 0 186 -78t78 -186v-1520q0 -108 -78 -186t-186 -78h-1520q-108 0 -186 78t-78 186v1520q0 108 78 186t186 78z" />
    <glyph glyph-name="uniF10D" unicode="&#xf10d;" 
d="M0 352v224h2048v-224h-2048zM0 960v224h2048v-224h-2048zM0 1792h2048v-220h-2048v220z" />
    <glyph glyph-name="uniF10E" unicode="&#xf10e;" 
d="M1488 488q152 0 262 110t110 262t-110 262t-262 110q-100 0 -200 -60q-44 188 -196 310t-348 122q-232 0 -394 -162t-162 -394t162 -396t394 -164h744zM744 304q-308 0 -526 218t-218 526t218 526t526 218q208 0 382 -104t270 -276q64 8 92 8q232 0 396 -164t164 -396
t-164 -394t-396 -162h-744z" />
    <glyph glyph-name="uniF10F" unicode="&#xf10f;" 
d="M654 1292q-34 0 -54 20l-104 108q-52 52 0 104t104 0l108 -104q52 -52 0 -108q-20 -20 -54 -20zM1136 1488q-32 0 -54 24t-22 52v152q0 28 22 52t54 24t54 -24t22 -52v-152q0 -28 -22 -52t-54 -24zM1138 1184q-126 0 -214 -88q136 -88 212 -220q24 4 76 4q124 0 224 -56
q4 20 4 56q0 128 -88 216t-214 88zM152 580q0 -188 134 -322t322 -134h604q124 0 214 90t90 214t-90 214t-214 90q-84 0 -164 -52q-36 152 -158 252t-296 100t-308 -132t-134 -320zM1668 418q0 -178 -134 -312t-322 -134h-604q-252 0 -430 178t-178 430t178 428t430 176
q88 0 172 -24q136 176 356 176q188 0 322 -134t134 -322q0 -88 -28 -160q104 -124 104 -302zM1622 1292q-34 0 -54 20t-20 54t20 54l108 104q52 52 104 0t0 -104l-104 -108q-20 -20 -54 -20zM1972 804h-152q-28 0 -52 22t-24 54t24 54t52 22h152q28 0 52 -22t24 -54t-24 -54
t-52 -22z" />
    <glyph glyph-name="uniF110" unicode="&#xf110;" 
d="M1456 1108q176 0 320 -104q60 68 80 160q-164 28 -286 150t-150 286q-208 -52 -268 -264q140 -100 212 -236q64 8 92 8zM184 744q0 -224 160 -384t384 -160h728q152 0 258 108t106 256t-106 256t-258 108q-104 0 -196 -60q-44 184 -192 304t-356 120t-368 -162t-160 -386
zM2004 564q0 -224 -162 -386t-386 -162h-728q-304 0 -516 212t-212 516t212 516t516 212q140 0 260 -48q60 164 198 266t314 102q72 0 104 -8l-12 -84q0 -148 108 -256t256 -108q44 0 84 12q8 -32 8 -104q0 -212 -144 -368q100 -136 100 -312z" />
    <glyph glyph-name="uniF111" unicode="&#xf111;" 
d="M2048 972v-408h-820v-820h-408v820h-820v408h820v820h408v-820h820z" />
    <glyph glyph-name="uniF112" unicode="&#xf112;" 
d="M1396 304q40 0 66 -28t26 -68v-184q0 -40 -26 -66t-66 -26t-66 26t-26 66v184q0 40 26 68t66 28zM1396 860q40 0 66 -26t26 -66v-188q0 -40 -26 -66t-66 -26t-66 26t-26 66v188q0 40 26 66t66 26zM1024 116q40 0 66 -26t26 -66v-188q0 -40 -26 -66t-66 -26t-66 26t-26 66
v188q0 40 26 66t66 26zM1024 676q40 0 66 -28t26 -68v-184q0 -40 -26 -66t-66 -26t-66 26t-26 66v184q0 40 26 68t66 28zM652 304q40 0 66 -28t26 -68v-184q0 -40 -26 -66t-66 -26t-66 26t-26 66v184q0 40 26 68t66 28zM652 860q40 0 66 -26t26 -66v-188q0 -40 -26 -66
t-66 -26t-66 26t-26 66v188q0 40 26 66t66 26zM1860 860q0 152 -110 262t-262 110q-100 0 -200 -60q-44 188 -196 310t-348 122q-232 0 -394 -162t-162 -400t184 -410v-228q-172 96 -272 268t-100 376q0 308 218 526t526 218q208 0 382 -104t270 -276q64 8 92 8
q232 0 396 -164t164 -396q0 -180 -104 -324t-268 -200v204q184 104 184 320z" />
    <glyph glyph-name="uniF113" unicode="&#xf113;" horiz-adv-x="2224" 
d="M2020 1880l204 -204l-904 -904l864 -864l-212 -212l-864 864l-904 -904l-204 204l904 904l-864 864l212 212l864 -864z" />
    <glyph glyph-name="uniF114" unicode="&#xf114;" 
d="M768 536q204 0 346 142t142 346t-142 346t-346 142t-346 -142t-142 -346t142 -346t346 -142zM768 256q-320 0 -544 224t-224 544t224 544t544 224t544 -224t224 -544q0 -248 -144 -448l656 -656l-176 -176l-656 656q-200 -144 -448 -144z" />
    <glyph glyph-name="uniF115" unicode="&#xf115;" 
d="M828 276q284 0 488 202t204 486t-204 488t-488 204t-486 -204t-202 -488t202 -486t486 -202zM828 136q-344 0 -586 242t-242 586t242 586t586 242t588 -242t244 -586q0 -292 -184 -520l572 -516l-120 -120l-576 516q-232 -188 -524 -188z" />
    <glyph glyph-name="uniF116" unicode="&#xf116;" 
d="M1396 116q40 0 66 -26t26 -66t-26 -66t-66 -26t-66 26t-26 66t26 66t66 26zM1390 304q-30 0 -36 20t-6 72v420q0 12 12 28t42 16t36 -20t6 -72v-420q0 -12 -12 -28t-42 -16zM1024 -68q40 0 66 -28t26 -68t-26 -66t-66 -26t-66 26t-26 66t26 68t66 28zM1018 116
q-30 0 -36 20t-6 72v372q16 88 48 96q36 0 42 -22t6 -74v-420q0 -12 -12 -28t-42 -16zM652 116q40 0 66 -26t26 -66t-26 -66t-66 -26t-66 26t-26 66t26 66t66 26zM646 304q-30 0 -36 20t-6 72v420q0 12 12 28t42 16t36 -20t6 -72v-420q0 -12 -12 -28t-42 -16zM1860 860
q0 152 -110 262t-262 110q-100 0 -200 -60q-44 188 -196 310t-348 122q-232 0 -394 -162t-162 -400t184 -410v-228q-172 96 -272 268t-100 376q0 308 218 526t526 218q208 0 382 -104t270 -276q64 8 92 8q232 0 396 -164t164 -396q0 -180 -104 -324t-268 -200v204
q184 104 184 320z" />
    <glyph glyph-name="uniF117" unicode="&#xf117;" 
d="M1396 304q40 0 66 -28t26 -68t-26 -66t-66 -26t-66 26t-26 66t26 68t66 28zM1396 676q40 0 66 -28t26 -68t-26 -66t-66 -26t-66 26t-26 66t26 68t66 28zM1024 116q40 0 66 -26t26 -66t-26 -66t-66 -26t-66 26t-26 66t26 66t66 26zM1024 488q40 0 66 -26t26 -66t-26 -66
t-66 -26t-66 26t-26 66t26 66t66 26zM652 304q40 0 66 -28t26 -68t-26 -66t-66 -26t-66 26t-26 66t26 68t66 28zM652 676q40 0 66 -28t26 -68t-26 -66t-66 -26t-66 26t-26 66t26 68t66 28zM1860 860q0 152 -110 262t-262 110q-100 0 -200 -60q-44 188 -196 310t-348 122
q-232 0 -394 -162t-162 -404t184 -406v-228q-172 96 -272 268t-100 376q0 308 218 526t526 218q208 0 382 -104t270 -276q64 8 92 8q232 0 396 -164t164 -396q0 -180 -104 -324t-268 -200v204q184 104 184 320z" />
    <glyph glyph-name="uniF118" unicode="&#xf118;" 
d="M1040 552l-1040 1040l200 200l840 -840l808 804l200 -200z" />
    <glyph glyph-name="uniF119" unicode="&#xf119;" 
d="M932 956h464l-280 -468h328l-608 -744l168 560h-304zM1488 304h-48l168 204q112 36 182 132t70 234t-110 248t-262 110q-100 0 -200 -60q-44 188 -196 310t-348 122q-232 0 -394 -162t-162 -394q0 -188 112 -336t288 -200l-64 -176q-232 72 -378 268t-146 444
q0 308 218 526t526 218q208 0 382 -104t270 -276q64 8 92 8q232 0 396 -164t164 -396t-164 -394t-396 -162z" />
    <glyph glyph-name="uniF11A" unicode="&#xf11a;" 
d="M1840 1316q0 -292 -134 -564t-414 -462t-636 -190t-656 192q64 -8 100 -8q296 0 524 184q-136 4 -246 86t-150 210q48 -8 84 -8t108 16q-144 32 -240 148t-96 272v4q80 -44 188 -52q-188 128 -188 356q0 104 60 212q336 -420 864 -444q-12 48 -12 96q0 176 124 302
t302 126t302 -136q144 32 268 104q-52 -156 -184 -236q140 20 240 68q-92 -136 -208 -220v-56z" />
    <glyph glyph-name="uniF11B" unicode="&#xf11b;" 
d="M1304 1420q40 0 66 26t26 66t-26 66t-66 26t-66 28t-26 68t26 66t66 26h16q108 -8 186 -88t78 -194t-82 -196t-198 -82h-1024q-40 0 -66 -26t-26 -66t26 -66t66 -26h1024q116 0 198 -82t82 -196t-78 -192t-186 -86l-16 -4q-40 0 -66 26t-26 66t26 68t66 28t66 26t26 66
t-26 66t-66 26h-1024q-116 0 -198 82t-82 196t76 192t184 86l20 4h1024zM1768 1048h-140q-40 0 -66 26t-26 66t26 66t66 26h140q40 0 66 28t26 68t-26 66t-66 26t-66 26t-26 66t26 66t66 26h20q108 -8 184 -86t76 -192t-82 -196t-198 -82z" />
    <glyph glyph-name="uniF11C" unicode="&#xf11c;" 
d="M820 728l548 304l-548 300v-604zM1024 272q-416 0 -622 14t-284 80t-102 266q-44 400 0 800q24 200 102 266t284 80t622 14t622 -14t284 -80t102 -266q44 -400 0 -800q-24 -200 -102 -266t-284 -80t-622 -14z" />
    <glyph glyph-name="uniF11D" unicode="&#xf11d;" horiz-adv-x="2032" 
d="M1016 1792q420 0 718 -300t298 -724t-298 -724t-718 -300t-718 300t-298 724t298 724t718 300zM1016 1676q-372 0 -636 -266t-264 -642t264 -642t636 -266t634 266t262 642t-262 642t-634 266zM1080 664v364h-132v-364h132zM1080 452v120h-132v-120h132zM1548 328h-1068
q-20 0 -34 22t-2 42l536 948q16 24 36 24t36 -24l532 -948q16 -24 2 -44t-38 -20z" />
    <glyph glyph-name="uniF11E" unicode="&#xf11e;" horiz-adv-x="2032" 
d="M1488 936q0 -112 -80 -192l-392 -408l-392 408q-80 80 -80 192t80 192q68 72 164 72t164 -72l64 -64l60 64q68 72 166 72t166 -72q80 -80 80 -192zM1016 1792q420 0 718 -300t298 -724t-298 -724t-718 -300t-718 300t-298 724t298 724t718 300zM1016 1676
q-372 0 -636 -266t-264 -642t264 -642t636 -266t634 266t262 642t-262 642t-634 266z" />
    <glyph glyph-name="uniF11F" unicode="&#xf11f;" horiz-adv-x="2032" 
d="M116 768q0 -220 96 -410t264 -314v784l568 604l508 -604v-784q168 124 264 314t96 410q0 376 -262 642t-634 266t-636 -266t-264 -642zM1136 468h116v300h-116v-300zM956 468h120v300h-120v-300zM776 468h120v300h-120v-300zM780 -104l-4 28q0 100 70 170t170 70t168 -70
t68 -170v-28q80 24 120 40q-8 148 -110 250t-246 102t-250 -102t-110 -250q28 -12 124 -40zM1016 -256q-164 0 -336 60q-72 24 -104 40v4q-260 124 -418 372t-158 548q0 424 298 724t718 300t718 -300t298 -724q0 -300 -158 -548t-418 -372l-4 -4q-40 -20 -100 -40
q-172 -60 -336 -60z" />
    <glyph glyph-name="uniF120" unicode="&#xf120;" horiz-adv-x="2032" 
d="M1520 636q0 56 36 68q8 4 14 -4q7 -9 0 -48q-5 -28 -46 -28q-4 4 -4 12zM1412 1060q0 44 40 52q20 -4 20 -32q-8 -48 -32 -52q-12 -4 -20 6t-8 26zM1244 1204q-24 0 -24 40q8 68 60 80q16 4 24 -6t4 -24t-6 -28q-2 -18 -16 -40q-13 -22 -42 -22zM968 1280q-36 0 -24 28
q44 76 88 80q32 0 24 -24q-28 -72 -88 -84zM666 1148q-18 0 -26 12t-4 20q20 88 80 124q24 12 34 -12t-28 -84t-56 -60zM1328 528q68 116 180 80q36 -84 -2 -144t-118 -52q-52 4 -68 40t8 76zM886 860q-42 0 -70 28t-24 72q12 96 108 180q36 28 90 -10t58 -90t-58 -116
t-104 -64zM1156 828q-96 0 -96 82t50 148t106 70q80 8 80 -144q0 -56 -44 -106t-96 -50zM1468 852q-4 -172 -136 -208q-56 -12 -88 24t-8 84q20 32 60 100t60 100q16 36 60 28q32 -4 40 -52q12 -44 12 -76zM580 792q-88 52 -68 124q24 100 116 156q56 32 90 10t34 -94
q-4 -8 -14 -72t-42 -92q-68 -60 -116 -32zM1212 564q-16 -108 52 -208q68 -92 -56 -172q-56 -36 -140 -36q-172 8 -296 204q-68 100 -152 104q-20 0 -52 8q-92 20 -110 74t42 126q92 108 310 94t246 -10q112 16 144 -108q16 -48 12 -76zM1016 1792q420 0 718 -300t298 -724
t-298 -724t-718 -300t-718 300t-298 724t298 724t718 300zM1016 1676q-372 0 -636 -266t-264 -642t264 -642t636 -266t634 266t262 642t-262 642t-634 266z" />
    <glyph glyph-name="uniF121" unicode="&#xf121;" horiz-adv-x="2044" 
d="M874 744q-30 0 -30 -32v-232h56l4 232q0 32 -30 32zM1044 480v232q0 32 -28 32t-28 -32v-232h56zM1192 480v232q0 32 -28 32t-28 -32v-232h56zM760 396v316q0 48 32 82t76 34t76 -24q32 24 72 24t76 -28q36 28 78 28t76 -34t34 -82l-4 -316h-516zM1404 1028l-384 452
l-352 -452h736zM1020 1704q-388 0 -660 -274t-272 -662q0 -232 106 -434t298 -334l52 1004l472 612l512 -604l4 -16l24 -992q188 132 294 334t106 430q0 388 -274 662t-662 274zM636 -76q0 160 112 274t272 114t272 -114t112 -274v-8l68 36l-24 992h-820l-52 -996
q40 -24 60 -32v8zM1020 152q92 0 160 -68t68 -160q0 -36 -12 -64l84 24v40q0 124 -88 212t-212 88t-212 -88t-88 -212q0 -24 4 -40q56 -16 80 -24q-8 48 -8 64q0 92 66 160t158 68zM1020 -164q28 0 116 8q16 32 20 52l-188 -40l36 208q-52 -8 -88 -48t-36 -90t20 -90h120z
M1020 -252q-424 0 -722 298t-298 722t298 724t722 300t724 -300t300 -724t-300 -722t-724 -298zM1020 64h-4l24 -136l116 -32l4 28q0 56 -42 98t-98 42z" />
    <glyph glyph-name="uniF122" unicode="&#xf122;" 
d="M1024 -228q412 0 704 292t292 704t-292 704t-704 292t-704 -292t-292 -704t292 -704t704 -292zM1024 1792q424 0 724 -300t300 -724t-300 -724t-724 -300t-724 300t-300 724t300 724t724 300zM1024 1492q-300 0 -512 -212t-212 -512t212 -512t512 -212t512 212t212 512
t-212 512t-512 212zM276 768q0 308 220 528t528 220t528 -220t220 -528t-220 -528t-528 -220t-528 220t-220 528zM1860 492v-8l-80 24l24 88l28 -8l-12 -52l16 -8v8q12 48 64 32q47 -9 32 -68q-4 -8 -12 -32l-4 -4l-32 12q12 12 16 28q0 24 -12 28t-20 -12t-8 -28zM1840 320
q-20 0 -56 16t-46 42t-2 42t24 32v4l28 -20q-16 -16 -22 -26t14 -30q0 12 4 20q20 40 68 18t20 -70q-12 -28 -32 -28zM1760 224q4 4 4 12l-8 8q-12 4 -24 -4q0 -12 8 -20q16 -8 20 4zM1694 256q6 0 14 8q0 12 -4 16h-4l-4 4q-4 0 -12 -8t4 -16q0 -4 6 -4zM1744 180
q-44 0 -44 44q-16 -4 -36 8q-32 24 -4 62t60 18q16 -16 16 -32q28 8 44 -4t16 -34t-14 -42t-38 -20zM1580 196l20 24l104 -108l-28 -24l-68 72l-4 -28l-32 8zM1520 8l32 20l20 -32l-32 -20zM1424 32q-20 0 -24 -4l-8 -4l40 -76l8 4q36 16 20 48t-36 32zM1380 52
q76 44 110 -20t-38 -108l-40 -20l-68 128zM1308 -96l36 12l12 -36l-36 -12zM1192 -104l24 8l-20 32zM1168 -20l36 8l88 -132l-40 -12l-20 32l-48 -12l-4 -32l-40 -8zM956 -148q40 0 40 42t-36 42h-12l-4 -84h12zM956 -180h-8l-44 4l8 148l44 -4q80 0 80 -80q-4 -68 -80 -68z
M736 -140l40 144l88 -24l-8 -32l-52 16l-8 -24l48 -12l-8 -32l-48 12l-8 -28l56 -12l-12 -32zM632 -56q20 0 32 24q4 16 -2 34t-18 22l-8 4l-36 -72q12 -12 32 -12zM636 -92q-8 0 -48 16l-40 20l68 132l40 -20q76 -36 40 -104q-24 -44 -60 -44zM544 128l28 -24l-92 -116
l-32 28l20 96l-56 -68l-28 24l92 112l36 -24l-24 -96zM328 144q-16 0 -40 28q-20 28 -20 48t24 36l76 56l20 -28l-64 -52q-20 -12 -20 -22t12 -22t36 8l68 52l24 -32l-76 -56q-24 -16 -40 -16zM262 420q-18 0 -45 -14t-13 -42q4 -16 24 -16t28 4q36 24 28 54q-4 14 -22 14z
M236 308q-48 0 -64 40q-27 63 40 100q20 12 36 12q44 0 60 -36q30 -68 -32 -104q-20 -12 -40 -12zM184 484l-12 48l-60 -20l-8 36l140 44l24 -84l-28 -8l-16 44l-24 -4l16 -44zM1820 824l60 4l84 60l4 -44l-52 -32l56 -28v-40l-92 48l-56 -4zM1908 1004l-12 40l32 8l28 -112
l-32 -8l-8 36l-112 -28l-8 36zM1768 1056l-12 32l136 56l16 -32zM1824 1208q0 8 -8 24q0 8 -12 8h-8q-8 -8 -2 -38t-16 -42t-38 -12t-36 32l-16 40l36 16v-8q0 -12 8 -28t20 -12t4 34t20 50q40 24 64 -20q12 -16 16 -32v-4l-32 -16v8zM1700 1352q4 0 8 4t4 8l-8 16l-4 4
l-20 -16q16 -16 20 -16zM1612 1308l-24 28l112 100l24 -28q48 -48 12 -80q-20 -12 -36 -8l-4 -4v-8l-32 -60l-28 32l24 44q4 12 0 20h-4zM1552 1372l-72 56l92 116l72 -56l-20 -24l-44 32l-12 -20l36 -28l-20 -28l-36 32l-20 -24l44 -32zM1516 1584l-112 -112l-36 20l20 156
l36 -20l-16 -100l72 72zM1328 1668l-44 -144l-36 12l44 140zM1124 1648l-12 -84l-36 4l20 148l40 -8l32 -92l12 88l36 -8l-20 -144l-40 4zM964 1560h-12q-52 0 -56 52l-8 96h40l8 -84q4 -32 20 -32h4q24 0 20 36l-8 84l40 4l8 -92q0 -64 -56 -64zM804 1536l-84 -32l-52 140
l36 12l40 -108l48 16zM680 1488l-80 -44l-72 128l32 20l56 -100l48 24zM556 1416l-72 -60l-92 116l72 56l20 -24l-44 -32l16 -20l36 32l24 -24l-40 -32l20 -24l40 36zM392 1252l-24 -28l-116 96l28 32l96 -20l-68 56l24 28l112 -96l-24 -32l-96 20zM236 1184q0 12 -4 12
q-12 4 -24 -12v-4l20 -12h4q4 4 4 16zM224 1240q8 0 26 -10t18 -30h12l64 -8l-20 -36l-48 4q-12 0 -16 -4v-4l48 -28l-16 -32l-132 68l16 32q28 48 48 48zM172 968l20 -4q28 0 32 24q4 8 -6 26t-42 18l-4 4q-28 0 -32 -24q-12 -36 32 -44zM172 1072q20 0 28 -4
q73 -22 58 -81q-14 -59 -70 -59q-20 0 -28 4q-72 20 -52 88q12 52 64 52zM196 840q0 20 -8 36h36v-4q4 -12 4 -36q-4 -72 -72 -72h-8q-80 8 -72 84q0 16 8 32v4l36 -4q-12 -24 -12 -36q0 -44 40 -44q48 0 48 40zM972 500v-36h-24l-28 -4h-52v32l48 4h28l16 4h12zM972 596
v-32h-8l-16 -4h-28l-52 -4v36h52l24 4h28zM868 652v36h84q4 4 8 4h12v-36h-24l-28 -4h-52zM1188 492v-32h-80l-4 4h-20l-4 36l4 -4h28l24 -4h52zM1188 592v-36h-52l-28 4h-24l-4 36h32l24 -4h52zM1188 652h-52l-28 4h-24l-4 36h12l20 -4h24l52 -4v-32zM1336 1168h-180v-80
l88 60l92 -64v84zM1336 1032v12l-92 64l-88 -64v-8q0 -16 24 -28q20 -16 68 -40q48 24 68 42t20 22zM1372 1200v-168q0 -28 -36 -52l-80 -48l-12 -4q-4 2 -84 52q-40 28 -40 52v168h252zM920 1032v48h-176v-48q0 -15 88 -64q48 24 68 42t20 22zM744 1160v-44h176v44h-176z
M832 928q-120 60 -120 100v168h244v-168q0 -24 -36 -48l-80 -48zM1008 764v88h-420v-216q0 -96 48 -184t126 -152q141 -115 246 -164v244h-4q-12 12 -16 12l-56 -4l-68 -4h-68v100h-44v48h44v88h-44v48h44v88h80q28 0 48 4l36 4h48zM588 1228v-328h880v328h-880zM1228 416
v304h-48q-12 0 -52 8h-76q-4 -4 -8 -4v-304q4 4 24 4l124 -8h36zM1468 628v224h-424v-92h4l48 4l36 -4l48 -4h80v-100h40v-48h-40v-84h40v-48h-40v-92h-68l-68 4l-56 4l-24 -16v-240q80 40 158 90t172 166t94 236zM1008 728h-8q-16 4 -36 0h-36q-40 -8 -52 -8h-48v-304h36
l124 8h12l8 -4v308zM544 636v636h968v-644q0 -247 -308 -452q-60 -40 -100 -60l-56 -28l-12 -8l-8 -4l-8 4q-16 0 -100 52t-136 92q-240 192 -240 412z" />
    <glyph glyph-name="uniF123" unicode="&#xf123;" 
d="M272 532l-272 268l1024 992l1024 -992l-272 -268l-752 728z" />
  </font>
</defs>
</svg>
