<?xml version="1.0" encoding="UTF-8"?>
<svg width="120px" height="120px" viewBox="0 0 120 120" version="1.1" xmlns="http://www.w3.org/2000/svg" xmlns:xlink="http://www.w3.org/1999/xlink">
    <!-- Generator: Sketch 50.2 (55047) - http://www.bohemiancoding.com/sketch -->
    <title>cornell_seal_simple_b31b1b</title>
    <desc>Created with Sketch.</desc>
    <defs></defs>
    <g id="Page-1" stroke="none" stroke-width="1" fill="none" fill-rule="evenodd">
        <g id="cornell_seal_simple_b31b1b" fill="#B31B1B" fill-rule="nonzero">
            <path d="M45.9,91.7 C52.7,97 59.4,99.9 59.7,100 L60.2,100.2 L60.7,100 C61,99.9 67.6,97 74.4,91.7 C83.5,84.6 88.3,76.5 88.3,68.2 L88.3,30.6 L31.9,30.6 L31.9,67.6 C31.9,76.1 36.7,84.5 45.9,91.7 Z M58.8,80.1 C58.5,80 58.2,79.9 57.8,79.9 C57.8,79.9 57.8,79.9 57.7,79.9 C56.3,79.9 55.3,80 54.2,80.1 C53.1,80.2 52,80.3 50.4,80.3 C49.7,80.3 49,80.3 48.5,80.3 L48.5,62.7 C48.6,62.7 48.7,62.7 48.7,62.7 C49.4,62.7 50.2,62.7 51.3,62.7 C52.2,62.7 53.2,62.6 54.3,62.5 C54.9,62.4 55.6,62.4 56.3,62.3 C57.5,62.2 58.5,62.4 58.5,62.4 C58.6,62.4 58.7,62.5 58.8,62.5 C58.8,62.4 58.8,80.1 58.8,80.1 Z M85.6,68.2 C85.6,83.6 66.7,94 61.1,96.8 L61.1,82.8 C61.2,82.7 61.3,82.6 61.4,82.5 C61.7,82.2 61.9,82 62.4,82 C63.7,82 64.7,82.1 65.8,82.2 C66.9,82.3 68,82.4 69.7,82.4 C71.4,82.4 72.7,82.4 72.7,82.4 L73.6,82.4 L73.6,77.2 L75.8,77.2 L75.8,74.4 L73.6,74.4 L73.6,69.3 L75.8,69.3 L75.8,66.5 L73.6,66.5 L73.6,60.8 L72.6,60.8 C72.2,60.8 71.8,60.8 71.3,60.8 C70.6,60.8 69.8,60.8 68.8,60.8 C68,60.8 67.1,60.7 66,60.6 C65.4,60.5 64.7,60.5 64,60.4 C62.5,60.2 61.2,60.5 61.1,60.5 C61.1,60.5 61.1,60.5 61,60.5 L61,55 L85.5,55 L85.6,68.2 Z M61.1,80.2 L61.1,62.5 C61.2,62.4 61.4,62.4 61.6,62.3 C61.6,62.3 62.7,62.1 63.9,62.2 C64.6,62.3 65.3,62.3 65.9,62.4 C67,62.5 68,62.6 68.9,62.6 C69.8,62.6 70.5,62.6 71.2,62.6 C71.4,62.6 71.6,62.6 71.7,62.6 L71.7,80.3 C71.2,80.3 70.5,80.3 69.8,80.3 C68.2,80.3 67.1,80.2 66,80.1 C64.9,80 63.9,79.9 62.5,79.9 C61.9,80 61.5,80.1 61.1,80.2 Z M34.6,33.3 L85.6,33.3 L85.6,52.4 L34.6,52.4 L34.6,33.3 Z M34.6,55 L58.9,55 L58.9,60.3 C58.5,60.2 57.4,60.1 56.2,60.2 C55.5,60.3 54.8,60.3 54.2,60.4 C53.1,60.5 52.2,60.6 51.4,60.6 C50.4,60.6 49.6,60.6 48.9,60.6 C48.4,60.6 48,60.6 47.6,60.6 L46.6,60.6 L46.6,65.7 L44.2,65.7 L44.2,68.5 L46.6,68.5 L46.6,73.6 L44.2,73.6 L44.2,76.4 L46.6,76.4 L46.6,82.1 L47.5,82.1 C47.6,82.1 48.9,82.2 50.5,82.1 C52.2,82.1 53.4,82 54.4,81.9 C55.5,81.8 56.4,81.7 57.7,81.7 C58.2,81.7 58.4,81.9 58.6,82.2 C58.6,82.2 58.7,82.3 58.7,82.3 L58.7,96.4 C53,93.8 34.6,83.5 34.6,67.6 L34.6,55 Z" id="Shape"></path>
            <path d="M55.9,35.2 L41.6,35.2 L41.6,36.2 C41.6,39.3 41.6,44.6 41.6,44.8 C41.7,45.9 42.4,46.9 43.8,47.8 C45.5,49 48.1,50.5 48.2,50.5 L48.7,50.8 L49.2,50.5 C49.3,50.4 52.1,48.9 53.8,47.8 C55.8,46.5 55.9,45.2 55.9,44.8 C55.9,44.6 55.9,40 55.9,36.2 L55.9,35.2 Z M43.6,37.2 L53.8,37.2 C53.8,38 53.8,38.9 53.8,39.8 L43.6,39.8 C43.6,38.9 43.6,38 43.6,37.2 Z M53.9,44.7 C53.9,45.2 53.2,45.7 52.7,46.1 C51.5,46.9 49.6,48 48.7,48.5 C47.9,48 46.1,47 44.9,46.1 C44.1,45.6 43.6,45 43.6,44.6 C43.6,44.5 43.6,43.3 43.6,41.7 L53.8,41.7 C53.9,43.3 53.9,44.5 53.9,44.7 Z" id="Shape"></path>
            <path d="M80.1,34.8 L65.6,34.8 L65.6,35.8 C65.6,39.7 65.6,44.4 65.6,44.7 C65.7,45.8 66.4,46.8 67.8,47.7 C69.6,48.9 72.2,50.4 72.3,50.5 L72.8,50.8 L73.3,50.5 C73.4,50.4 76.3,48.9 78,47.7 C80.1,46.3 80.1,45.1 80.1,44.7 C80.1,44.5 80.1,39.8 80.1,35.9 L80.1,34.8 Z M78.1,44.5 C78.1,45 77.4,45.6 76.9,45.9 C75.6,46.7 73.7,47.8 72.8,48.3 C71.9,47.8 70.2,46.7 68.9,45.9 C68.5,45.6 67.6,45 67.6,44.4 C67.6,44.3 67.6,44.2 67.6,43.9 L72.6,40.3 L78.1,44 C78.1,44.3 78.1,44.5 78.1,44.5 Z M72.6,37.8 L67.6,41.4 C67.6,40 67.6,38.2 67.6,36.7 L78.2,36.7 C78.2,38.3 78.2,40 78.2,41.5 L72.6,37.8 Z" id="Shape"></path>
            <path d="M63.7,66.5 L64.7,66.6 C65.3,66.7 65.9,66.7 66.4,66.7 L69.3,66.8 L69.3,64.8 L66.4,64.7 C66,64.7 65.5,64.6 64.9,64.6 L63.9,64.5 C63.6,64.5 63.4,64.5 63.2,64.5 L63.3,66.5 C63.4,66.4 63.6,66.4 63.7,66.5 Z" id="Shape"></path>
            <path d="M66.4,70.2 C66,70.2 65.5,70.1 64.9,70.1 C64.6,70.1 64.2,70 63.9,70 C63.6,70 63.4,70 63.2,70 L63.2,72 C63.3,72 63.5,72 63.7,72 C64.1,72 64.4,72.1 64.7,72.1 C65.3,72.2 65.8,72.2 66.3,72.2 C66.9,72.2 67.8,72.2 68.5,72.2 L69.3,72.2 L69.3,70.2 L68.5,70.2 C67.9,70.3 67,70.2 66.4,70.2 Z" id="Shape"></path>
            <path d="M66.4,75.8 C66,75.8 65.5,75.7 64.9,75.7 C64.6,75.7 64.2,75.6 63.9,75.6 C63.6,75.6 63.4,75.6 63.2,75.6 L63.3,77.6 C63.4,77.6 63.6,77.6 63.8,77.6 C64.2,77.6 64.5,77.7 64.8,77.7 C65.4,77.8 66,77.8 66.4,77.8 L67.2,77.8 C68,77.8 69,77.8 69.3,77.9 L69.3,75.9 C69,75.9 68,75.9 67.2,75.8 L66.4,75.8 Z" id="Shape"></path>
            <path d="M53.8,66.7 C54.3,66.7 54.8,66.6 55.5,66.6 C55.8,66.6 56.1,66.5 56.5,66.5 C56.7,66.5 56.8,66.5 57,66.5 L57,64.5 C56.8,64.5 56.6,64.5 56.3,64.5 C55.9,64.5 55.6,64.6 55.3,64.6 C54.7,64.7 54.2,64.7 53.8,64.7 L50.9,64.8 L50.9,66.8 L53.8,66.7 Z" id="Shape"></path>
            <path d="M55.3,70.1 C54.7,70.2 54.2,70.2 53.8,70.2 L50.9,70.3 L50.9,72.3 L53.8,72.2 C54.3,72.2 54.8,72.1 55.5,72.1 L56.4,72 C56.6,72 56.7,72 56.8,72 L56.9,70 C56.7,70 56.5,70 56.2,70 L55.3,70.1 Z" id="Shape"></path>
            <path d="M55.3,75.6 C54.7,75.7 54.2,75.7 53.7,75.7 C52.8,75.7 51.3,75.8 50.9,75.8 L50.9,77.8 C51.3,77.8 52.8,77.7 53.8,77.7 C54.3,77.7 54.8,77.6 55.5,77.6 L56.5,77.5 C56.6,77.5 56.8,77.5 56.9,77.5 L56.9,75.5 C56.7,75.5 56.5,75.5 56.2,75.5 L55.3,75.6 Z" id="Shape"></path>
            <path d="M9.3,60.3 C11.8,60.3 13.3,58.7 13.5,55.9 C13.5,55.4 13.5,54.7 13.4,54 L13.4,53.8 L11.3,53.8 L11.5,54.2 C11.6,54.5 11.7,55.2 11.7,55.8 C11.6,57.2 10.5,58.1 9,58 C7.4,57.9 6.5,56.9 6.5,55.5 C6.5,55 6.6,54.5 7,54 L7.3,53.6 L5.3,53.3 L5.2,53.5 C4.9,54.1 4.8,54.8 4.7,55.4 C4.5,58.3 6.1,60.2 9,60.3 C9.1,60.3 9.2,60.3 9.3,60.3 Z" id="Shape"></path>
            <path d="M9.7,50.5 C10.3,50.7 10.8,50.7 11.3,50.7 C13.2,50.7 14.6,49.6 15.2,47.7 C15.5,46.5 15.4,45.5 14.9,44.5 C14.3,43.5 13.3,42.8 12,42.4 C11.5,42.2 10.9,42.2 10.5,42.2 C8.6,42.2 7.2,43.3 6.6,45.2 C5.8,47.7 7,49.7 9.7,50.5 Z M8.3,45.8 C8.6,44.7 9.5,44.5 10.2,44.5 C10.5,44.5 10.9,44.6 11.3,44.7 C12.2,45 12.9,45.4 13.2,46 C13.4,46.4 13.5,46.8 13.3,47.3 C13,48.4 12.1,48.6 11.4,48.6 C11,48.6 10.7,48.5 10.3,48.4 C9.1,48 7.9,47.1 8.3,45.8 Z" id="Shape"></path>
            <path d="M18.3,39.3 L15.4,37.7 L15.5,37.5 C15.8,37 16,37 16.4,37.1 L19.3,37.5 L20.4,35.4 L16.6,35 C16.3,35 16.1,35 15.9,35 C15.9,34.2 15.5,33.4 14.7,33 C14.3,32.8 13.9,32.7 13.5,32.7 C12.1,32.7 11.4,34.1 10.7,35.4 L9.7,37.3 L17.3,41.4 L18.3,39.3 Z M13.8,36.6 L13.7,36.8 L12.3,36.1 L12.4,35.9 C12.7,35.3 13.1,34.7 13.7,35 C13.9,35.1 14,35.2 14.1,35.4 C14.2,35.8 14,36.3 13.8,36.6 Z" id="Shape"></path>
            <polygon id="Shape" points="23 31.7 19.1 28.5 24.7 29.8 26.2 27.9 19.6 22.4 18.2 24 22.2 27.3 16.6 26 15 27.9 21.7 33.4"></polygon>
            <polygon id="Shape" points="32.7 22.4 31.5 21 29.1 22.9 28 21.6 30.2 19.8 29 18.4 26.8 20.2 26 19.1 28.4 17.2 27.2 15.7 23.1 19 28.5 25.7"></polygon>
            <polygon id="Shape" points="39.8 18.1 38.9 16.5 36.2 18 32.9 12.1 31 13.2 35.2 20.7"></polygon>
            <polygon id="Shape" points="47.1 15.3 46.4 13.6 43.6 14.6 41.3 8.3 39.2 9 42.1 17.1"></polygon>
            <path d="M55.8,13.9 C56,13.9 56.1,13.9 56.3,13.9 C57.5,13.8 58.4,13.4 58.9,12.8 C59.4,12.2 59.6,11.3 59.5,10.3 L59.1,4.9 L56.9,5 L57.3,9.9 C57.4,11.6 56.7,11.9 56.1,12 C56,12 56,12 55.9,12 C55.4,12 54.7,11.8 54.5,10.1 L54.1,5.2 L51.9,5.4 L52.3,10.8 C52.7,12.8 53.8,13.9 55.8,13.9 Z" id="Shape"></path>
            <polygon id="Shape" points="65.7 8.8 67.5 14.1 70 14.5 71.1 5.9 69 5.6 68.3 10.7 66.5 5.3 64.1 5 62.9 13.5 65 13.8"></polygon>
            <polygon id="Shape" points="77.6 7.8 75.5 7.1 72.9 15.3 75 16"></polygon>
            <polygon id="Shape" points="88.4 12.6 86.5 11.6 82.3 15.9 83.2 10 81.1 8.9 79.8 18 82 19"></polygon>
            <polygon id="Shape" points="90.6 25 91.7 23.5 89.3 21.6 90.3 20.3 92.5 22 93.7 20.5 91.5 18.8 92.3 17.7 94.7 19.6 95.9 18.1 91.7 14.9 86.4 21.7"></polygon>
            <path d="M94.2,28.6 L96.7,26.4 L96.8,26.6 C97.1,27 97.1,27.1 96.9,27.6 L95.5,30.2 L97.1,32 L98.8,28.6 C98.9,28.5 99,28.2 99,27.9 C99.7,28.2 100.6,28.1 101.3,27.5 C103.2,25.9 101.7,24.2 100.6,22.9 L99.2,21.3 L92.7,27 L94.2,28.6 Z M99.3,24.1 L99.4,24.3 C99.7,24.7 100,25.1 100,25.4 C100,25.6 99.9,25.7 99.7,25.8 C99.6,26 99.4,26 99.3,26 C98.9,26 98.5,25.6 98.3,25.3 L98.2,25.1 L99.3,24.1 Z" id="Shape"></path>
            <path d="M102.2,35.5 C101.8,35.8 101.2,35.3 101,34.9 C100.7,34.4 100.6,33.9 100.6,33.2 L100.6,32.7 L98.6,33.6 L98.7,34 C98.9,34.7 99,35.1 99.4,35.8 C100.1,37 101,37.6 102,37.6 C102.5,37.6 102.9,37.5 103.4,37.2 C104.9,36.3 104.7,34.9 104.5,33.8 C104.4,33.1 104.3,32.6 104.6,32.4 C104.8,32.3 104.9,32.3 105,32.3 C105.4,32.3 105.7,32.7 105.8,32.8 C106.1,33.2 106.2,33.7 106.3,34.2 L106.4,34.6 L108.2,33.8 L108.2,33.6 C108.1,33 107.8,32.4 107.4,31.7 C106.5,30.1 104.9,29.6 103.5,30.5 C102,31.4 102.2,32.8 102.4,33.8 C102.5,34.8 102.6,35.3 102.2,35.5 Z" id="Shape"></path>
            <rect id="Rectangle-path" transform="translate(106.802610, 40.702570) rotate(-22.191894) translate(-106.802610, -40.702570) " x="102.502722" y="39.6025985" width="8.59977683" height="2.19994291"></rect>
            <polygon id="Shape" points="111.2 46.2 104.7 47.8 105.2 49.9 111.8 48.3 112.3 50.5 114.1 50.1 112.5 43.5 110.7 44"></polygon>
            <polygon id="Shape" points="106.2 56.6 106.3 58.8 109.7 58.6 115.1 61.4 115 59 111.8 57.5 114.8 55.6 114.6 53 109.6 56.5"></polygon>
            <polygon id="Shape" points="11 76.4 12.8 75.9 12.1 73.3 13.4 72.9 14.2 75.7 16 75.1 14.6 70.3 6.3 72.7 6.9 74.8 10.3 73.8"></polygon>
            <path d="M18.7,83.6 C19,82.6 18.9,81.5 18.4,80.4 C17.6,78.8 16.4,78 14.8,78 C14.1,78 13.3,78.2 12.5,78.6 C11.2,79.2 10.4,80.1 10,81.2 C9.7,82.2 9.8,83.3 10.3,84.4 C11.1,85.9 12.3,86.8 13.9,86.8 C14.6,86.8 15.4,86.6 16.2,86.2 C17.5,85.5 18.4,84.7 18.7,83.6 Z M15.3,84.1 C14.8,84.4 14.2,84.5 13.7,84.5 C12.9,84.5 12.4,84.2 12.1,83.5 C11.9,83 11.8,82.6 12,82.2 C12.2,81.6 12.8,81 13.6,80.6 C14.1,80.4 14.6,80.2 15.1,80.2 C15.9,80.2 16.4,80.5 16.7,81.2 C16.9,81.7 17,82.1 16.8,82.5 C16.6,83.1 16.1,83.7 15.3,84.1 Z" id="Shape"></path>
            <path d="M24.7,90.3 L20.8,93.4 C19.8,94.2 19,94.3 18.4,93.6 C18.2,93.3 18.1,93 18.1,92.7 C18.2,92.3 18.5,91.8 19.1,91.3 L23,88.2 L21.6,86.5 L17.3,89.9 C16.4,90.6 15.9,91.4 15.9,92.3 C15.9,93.1 16.2,93.9 16.9,94.8 C17.7,95.9 18.6,96.4 19.6,96.4 C20.3,96.4 21,96.1 21.7,95.5 L26,92 L24.7,90.3 Z" id="Shape"></path>
            <polygon id="Shape" points="32 97.3 28.8 101.3 30 95.7 28.1 94.1 22.6 100.8 24.3 102.2 27.5 98.2 26.3 103.8 28.2 105.4 33.7 98.7"></polygon>
            <path d="M38.4,101.4 L36.2,100.3 L32.3,108 L34.5,109.1 C35.6,109.6 36.5,109.9 37.4,109.9 C38.9,109.9 40.1,109.1 40.9,107.5 C42.2,104.9 41.3,102.9 38.4,101.4 Z M38.8,106.5 C38.4,107.4 37.6,107.9 36.7,107.9 C36.3,107.9 36,107.8 35.6,107.6 L35.1,107.3 L37.3,102.9 L37.8,103.2 C38.4,103.5 38.8,104 39,104.5 C39.2,105.2 39.1,105.8 38.8,106.5 Z" id="Shape"></path>
            <polygon id="Shape" points="43.2 112.8 48.3 114.2 48.8 112.4 45.8 111.6 46.2 110 49 110.7 49.5 108.9 46.7 108.2 47 106.8 50.1 107.6 50.5 105.8 45.4 104.5"></polygon>
            <path d="M55.9,106.5 L53.4,106.4 L52.9,115 L55.4,115.1 C55.6,115.1 55.8,115.1 56,115.1 C58.9,115.1 60.4,113.7 60.6,111 C60.7,109.7 60.4,108.6 59.7,107.8 C58.9,107.1 57.7,106.6 55.9,106.5 Z M55.8,113.3 L55.2,113.3 L55.5,108.4 L56.1,108.4 C57.3,108.5 58.4,109.4 58.3,111 C58.2,112.6 57,113.3 55.8,113.3 Z" id="Shape"></path>
            <path d="M68.2,105.8 L66.7,114.9 L69,114.4 L69.3,112.5 L72.1,111.9 L73.2,113.6 L75.6,113.1 L70.5,105.4 L68.2,105.8 Z M69.6,110.6 L69.9,108.3 L71.1,110.2 L69.6,110.6 Z" id="Shape"></path>
            <polygon id="Shape" points="76.4 110.3 77.2 112.4 79.2 111.6 78.5 109.6"></polygon>
            <path d="M80.6,101.6 L78.4,102.8 L82.5,110.4 L84.7,109.2 C87.6,107.6 88.3,105.6 87,103.1 C85.7,100.5 83.5,100 80.6,101.6 Z M84.1,107.4 L83.6,107.7 L81.3,103.4 L81.8,103.1 C82.1,102.9 82.5,102.8 82.9,102.8 C83.8,102.8 84.5,103.3 85,104.1 C85.8,105.5 85.1,106.8 84.1,107.4 Z" id="Shape"></path>
            <polygon id="Shape" points="88.7 104.3 89.9 106.1 91.7 104.8 90.5 103"></polygon>
            <polygon id="Shape" points="92.1 93.2 91.7 96.6 93.6 96.9 93.8 95.5 97.9 99.6 99.5 98.1 93.4 91.9"></polygon>
            <path d="M103.8,88.7 C103.1,88.2 102.3,88.1 101.4,88.4 C101.4,87.6 101,86.8 100.4,86.4 C99.3,85.6 97.9,86.1 96.8,87.5 C95.8,88.9 95.9,90.3 97.1,91.2 C97.7,91.6 98.5,91.7 99.2,91.5 C99.1,92.4 99.4,93.1 100.1,93.6 C100.6,94 101.1,94.1 101.6,94.1 C102.5,94.1 103.3,93.6 104.1,92.6 C104.7,91.8 105,91 104.9,90.2 C104.8,89.7 104.4,89.2 103.8,88.7 Z M99.7,89.3 C99.4,89.5 99.1,89.7 98.8,89.7 C98.7,89.7 98.5,89.7 98.4,89.6 C98,89.3 98.2,88.8 98.4,88.5 C98.5,88.3 98.7,88.2 98.9,88.2 C99,88.2 99.2,88.3 99.4,88.4 C99.7,88.6 99.8,89 99.7,89.3 Z M102.7,91.7 C102.4,92.1 101.9,92.2 101.5,91.9 C101.2,91.6 101,91.3 101.1,90.7 C101.7,90.3 102.2,90.2 102.6,90.5 C102.8,90.6 102.9,90.8 102.9,91 C102.9,91.2 102.8,91.5 102.7,91.7 Z" id="Shape"></path>
            <path d="M107.7,80.3 C106.2,79.6 104.8,80 104.1,81.4 C103.9,81.8 103.8,82.2 103.9,82.6 C103.4,82.2 102.9,81.5 103.3,80.6 C103.5,80.2 103.8,79.9 104.1,79.6 L104.4,79.4 L102.8,78.3 L102.6,78.5 C102.2,78.9 101.8,79.4 101.5,80 C101.1,80.9 101,81.7 101.3,82.5 C101.8,83.9 103.2,84.9 104.3,85.4 C105.3,85.9 106.1,86.1 106.8,86.1 C107.9,86.1 108.7,85.6 109.3,84.5 C110.1,82.7 109.5,81.2 107.7,80.3 Z M107.7,83.5 C107.6,83.8 107.3,83.9 107,83.9 C106.8,83.9 106.5,83.8 106.3,83.7 C105.9,83.5 105.6,83.2 105.5,83 C105.4,82.8 105.5,82.7 105.5,82.5 C105.6,82.2 105.8,82.1 106.2,82.1 C106.4,82.1 106.7,82.2 107,82.3 C107.4,82.5 107.6,82.7 107.7,83 C107.8,83.2 107.7,83.4 107.7,83.5 Z" id="Shape"></path>
            <path d="M110.8,71.5 C109.1,71 107.7,71.8 107.2,73.4 C107.2,73.6 107.1,73.7 107.1,73.8 L106.1,73.5 L107,70.5 L105.3,70 L103.8,75 L108.6,76.5 L108.6,76.1 C108.6,75.6 108.7,75.2 108.8,74.7 C108.9,74.3 109.4,73.3 110.3,73.5 C111.3,73.8 111.1,74.9 111,75.2 C110.8,75.8 110.5,76.2 110.2,76.6 L109.9,76.9 L111.9,77.6 L112,77.4 C112.3,76.8 112.6,76.1 112.8,75.6 C113.1,74.6 113.1,73.7 112.7,72.9 C112.3,72.3 111.6,71.8 110.8,71.5 Z" id="Shape"></path>
            <path d="M16.3,60 C16.3,84 35.8,103.6 59.8,103.6 C83.8,103.6 103.3,84.1 103.3,60 C103.3,36 83.8,16.5 59.8,16.5 C35.9,16.4 16.3,36 16.3,60 Z M59.9,17.9 C83.1,17.9 101.9,36.8 101.9,59.9 C101.9,83.1 83,101.9 59.9,101.9 C36.7,101.9 17.9,83 17.9,59.9 C17.8,36.8 36.7,17.9 59.9,17.9 Z" id="Shape"></path>
            <path d="M59.9,0.4 C27,0.4 0.3,27.1 0.3,60 C0.3,92.8 27,119.6 59.9,119.6 C92.7,119.6 119.5,92.9 119.5,60 C119.4,27.1 92.7,0.4 59.9,0.4 Z M59.9,118 C27.9,118 1.9,92 1.9,60 C1.9,28 27.9,2 59.9,2 C91.9,2 117.9,28 117.9,60 C117.9,92 91.9,118 59.9,118 Z" id="Shape"></path>
        </g>
    </g>
</svg>