<?xml version="1.0" encoding="UTF-8"?>
<svg width="380px" height="87px" viewBox="0 0 380 87" version="1.1" xmlns="http://www.w3.org/2000/svg" xmlns:xlink="http://www.w3.org/1999/xlink">
    <!-- Generator: Sketch 51.2 (57519) - http://www.bohemiancoding.com/sketch -->
    <title>ILR_Cornell_Lockup_Positive Simple</title>
    <desc>Created with Sketch.</desc>
    <defs>
        <polygon id="path-1" points="0.06 0.045 86.954 0.045 86.954 87 0.06 87"></polygon>
    </defs>
    <g id="ILR_Cornell_Lockup_Positive-Simple" stroke="none" stroke-width="1" fill="none" fill-rule="evenodd">
        <g id="Group-3" transform="translate(108.000000, 0.000000)" stroke="#222222" stroke-width="0.5">
            <path d="M0.707,0.043 L0.707,86.796" id="Stroke-1"></path>
        </g>
        <path d="M138.197,60.331 L138.197,22.934 L137.646,22.384 L131.047,22.384 L130.498,22.934 L130.498,60.331 L131.047,60.881 L137.646,60.881 L138.197,60.331 Z M171.821,60.331 L171.821,54.831 L171.27,54.281 L154.221,54.281 L153.672,53.732 L153.672,22.934 L153.122,22.384 L146.522,22.384 L145.972,22.934 L145.972,60.331 L146.522,60.881 L171.27,60.881 L171.821,60.331 Z M207.067,33.933 C207.067,26.234 201.568,22.384 193.868,22.384 L175.719,22.384 L175.17,22.934 L175.17,60.331 L175.719,60.881 L182.319,60.881 L182.869,60.331 L182.869,46.032 L183.419,45.482 L188.919,45.482 L190.018,46.032 L201.017,60.331 L202.118,60.881 L205.417,60.881 L205.966,60.331 L205.966,54.831 L198.818,45.482 L198.818,44.932 C203.216,43.832 207.067,39.983 207.067,33.933 Z M199.368,33.933 C199.368,37.783 197.168,38.883 193.868,38.883 L183.419,38.883 L182.869,38.333 L182.869,29.533 L183.419,28.984 L193.868,28.984 C197.168,28.984 199.368,30.083 199.368,33.933 Z M254.913,49.882 C254.913,42.182 248.863,38.883 241.164,37.783 C233.464,36.683 231.264,35.583 231.264,32.283 C231.264,30.083 232.915,28.434 237.864,28.434 C243.914,28.434 245.563,30.083 245.563,33.383 L246.114,33.933 L252.713,33.933 L253.262,33.383 C253.262,26.784 248.863,21.834 238.414,21.834 C227.964,21.834 223.564,26.784 223.564,32.283 C223.564,39.983 229.615,42.732 237.313,43.832 C245.013,44.932 247.213,46.032 247.213,49.882 C247.213,53.182 244.464,54.831 239.513,54.831 C232.915,54.831 230.714,52.632 230.714,48.782 L230.165,48.232 L223.564,48.232 L223.014,48.782 C223.014,55.931 227.964,61.431 238.964,61.431 C250.512,61.431 254.913,55.931 254.913,49.882 Z M264.168,47.132 C264.168,42.182 266.368,39.433 270.216,39.433 C272.966,39.433 274.617,40.533 275.167,42.182 L275.716,42.732 L282.317,42.732 L282.866,42.182 C281.766,35.583 276.266,32.833 270.216,32.833 C261.967,32.833 256.468,38.333 256.468,47.132 C256.468,55.931 261.967,61.431 270.216,61.431 C276.266,61.431 281.766,58.681 282.866,52.082 L282.317,51.532 L275.716,51.532 L275.167,52.082 C274.617,53.732 272.966,54.831 270.216,54.831 C266.368,54.831 264.168,52.082 264.168,47.132 Z M311.006,60.331 L311.006,43.832 C311.006,37.233 307.158,32.833 300.557,32.833 C296.708,32.833 294.508,34.483 293.409,35.583 L292.859,35.583 L292.859,22.934 L292.308,22.384 L285.709,22.384 L285.159,22.934 L285.159,60.331 L285.709,60.881 L292.308,60.881 L292.859,60.331 L292.859,46.582 C292.859,41.632 295.058,39.433 298.908,39.433 C302.208,39.433 303.307,41.632 303.307,44.382 L303.307,60.331 L303.858,60.881 L310.457,60.881 L311.006,60.331 Z M340.797,47.132 C340.797,38.333 335.298,32.833 327.048,32.833 C318.799,32.833 313.299,38.333 313.299,47.132 C313.299,55.931 318.799,61.431 327.048,61.431 C335.298,61.431 340.797,55.931 340.797,47.132 Z M333.098,47.132 C333.098,52.082 330.899,54.831 327.048,54.831 C323.2,54.831 321,52.082 321,47.132 C321,42.182 323.2,39.433 327.048,39.433 C330.899,39.433 333.098,42.182 333.098,47.132 Z M369.528,47.132 C369.528,38.333 364.028,32.833 355.779,32.833 C347.53,32.833 342.03,38.333 342.03,47.132 C342.03,55.931 347.53,61.431 355.779,61.431 C364.028,61.431 369.528,55.931 369.528,47.132 Z M361.828,47.132 C361.828,52.082 359.629,54.831 355.779,54.831 C351.928,54.831 349.728,52.082 349.728,47.132 C349.728,42.182 351.928,39.433 355.779,39.433 C359.629,39.433 361.828,42.182 361.828,47.132 Z M379.713,60.331 L379.713,22.934 L379.163,22.384 L372.562,22.384 L372.012,22.934 L372.012,60.331 L372.562,60.881 L379.163,60.881 L379.713,60.331 Z" id="Fill-4" fill="#222222"></path>
        <path d="M25.014,39.884 L42.724,39.884 L42.724,43.769 C42.435,43.719 41.624,43.6 40.733,43.703 C40.206,43.752 39.716,43.803 39.257,43.852 C38.466,43.937 37.785,44.01 37.198,44.023 C36.452,44.04 35.858,44.041 35.367,44.04 C35.014,44.04 34.711,44.04 34.449,44.046 L33.735,44.062 L33.735,47.814 L31.987,47.814 L31.987,49.853 L33.735,49.853 L33.735,53.603 L31.987,53.603 L31.987,55.636 L33.735,55.636 L33.735,59.808 L34.424,59.844 C34.465,59.848 35.415,59.897 36.644,59.871 C37.885,59.844 38.756,59.763 39.527,59.695 C40.319,59.623 41.005,59.56 41.94,59.56 C42.307,59.556 42.43,59.67 42.629,59.92 C42.655,59.953 42.691,59.992 42.724,60.029 L42.724,70.289 C38.429,68.177 25.014,60.647 25.014,49.047 L25.014,39.884 Z M25.016,24.017 L62.255,24.012 L62.256,37.935 L25.015,37.935 L25.016,24.017 Z M44.391,58.29 L44.391,45.347 C44.485,45.302 44.598,45.258 44.752,45.222 C44.761,45.219 45.553,45.058 46.429,45.161 C46.952,45.206 47.436,45.254 47.888,45.307 C48.708,45.392 49.416,45.469 50.061,45.486 C50.711,45.5 51.25,45.5 51.704,45.5 C51.841,45.5 51.972,45.5 52.095,45.5 L52.096,58.411 C51.725,58.418 51.235,58.425 50.685,58.411 C49.495,58.385 48.683,58.311 47.899,58.24 C47.095,58.166 46.375,58.096 45.311,58.099 C44.933,58.099 44.641,58.181 44.391,58.29 Z M62.258,49.522 C62.258,60.761 48.455,68.381 44.391,70.378 L44.391,60.152 C44.468,60.08 44.538,60.005 44.594,59.941 C44.797,59.704 44.926,59.562 45.315,59.56 C46.255,59.574 46.962,59.621 47.768,59.695 C48.539,59.763 49.409,59.844 50.65,59.871 C51.874,59.902 52.828,59.848 52.867,59.844 L53.559,59.808 L53.558,55.989 L55.177,55.989 L55.177,53.951 L53.558,53.951 L53.557,50.252 L55.177,50.252 L55.177,48.217 L53.556,48.217 L53.555,44.062 L52.844,44.046 C52.582,44.039 52.283,44.039 51.928,44.04 C51.431,44.034 50.843,44.04 50.096,44.023 C49.514,44.01 48.83,43.937 48.043,43.852 C47.584,43.803 47.089,43.752 46.576,43.706 C45.471,43.578 44.496,43.779 44.438,43.794 C44.42,43.798 44.408,43.804 44.391,43.808 L44.391,39.884 L62.257,39.884 L62.258,49.522 Z M42.724,58.227 C42.512,58.153 42.279,58.099 41.987,58.099 C41.972,58.099 41.956,58.099 41.94,58.099 C40.939,58.099 40.191,58.168 39.396,58.238 C38.612,58.311 37.799,58.385 36.608,58.411 C36.061,58.422 35.569,58.418 35.197,58.411 L35.197,45.5 C35.253,45.5 35.309,45.5 35.367,45.5 C35.863,45.504 36.472,45.5 37.233,45.486 C37.88,45.469 38.588,45.392 39.409,45.304 C39.861,45.254 40.341,45.206 40.88,45.158 C41.734,45.064 42.521,45.218 42.521,45.218 C42.601,45.236 42.658,45.261 42.724,45.282 L42.724,58.227 Z M33.244,66.643 C38.198,70.548 43.076,72.612 43.283,72.697 L43.66,72.857 L44.039,72.695 C44.245,72.604 49.108,70.511 54.045,66.649 C60.693,61.448 64.208,55.527 64.208,49.522 L64.202,22.065 L23.069,22.068 L23.068,49.047 C23.068,55.302 26.586,61.385 33.244,66.643 Z" id="Fill-5" fill="#A02629"></path>
        <path d="M39.102,32.381 C39.092,32.745 38.627,33.129 38.24,33.386 C37.343,33.989 35.993,34.756 35.353,35.114 C34.744,34.749 33.479,33.989 32.583,33.385 C31.998,32.997 31.652,32.611 31.633,32.327 C31.63,32.22 31.629,31.354 31.629,30.223 L39.108,30.223 C39.108,31.361 39.106,32.244 39.102,32.381 Z M31.632,26.869 L39.105,26.869 C39.106,27.476 39.107,28.128 39.107,28.762 L31.63,28.762 C31.63,28.128 31.631,27.477 31.632,26.869 Z M40.563,25.41 L30.17,25.41 L30.17,26.138 C30.166,28.409 30.164,32.247 30.179,32.423 C30.228,33.209 30.749,33.922 31.767,34.6 C33.022,35.442 34.893,36.537 34.972,36.584 L35.328,36.793 L35.687,36.595 C35.773,36.548 37.791,35.449 39.052,34.6 C40.526,33.617 40.552,32.721 40.562,32.423 C40.574,32.26 40.57,28.916 40.563,26.138 L40.563,25.41 Z" id="Fill-6" fill="#A02629"></path>
        <path d="M52.737,27.358 L49.083,29.998 C49.081,28.949 49.081,27.683 49.083,26.562 L56.789,26.562 C56.793,27.704 56.797,28.999 56.797,30.068 L52.737,27.358 Z M56.789,32.244 C56.781,32.62 56.302,33.018 55.9,33.29 C54.973,33.908 53.574,34.698 52.922,35.064 C52.3,34.694 50.998,33.908 50.073,33.29 C49.788,33.099 49.121,32.608 49.09,32.181 C49.088,32.141 49.088,32.006 49.087,31.797 L52.769,29.138 L56.794,31.82 C56.793,32.043 56.791,32.193 56.789,32.244 Z M58.25,25.101 L47.624,25.101 L47.624,25.831 C47.622,28.683 47.622,32.113 47.632,32.291 C47.691,33.082 48.221,33.81 49.259,34.5 C50.542,35.362 52.459,36.486 52.541,36.534 L52.896,36.743 L53.258,36.543 C53.344,36.5 55.416,35.373 56.711,34.5 C58.223,33.492 58.245,32.578 58.25,32.275 C58.261,32.113 58.258,28.68 58.251,25.83 L58.25,25.101 Z" id="Fill-7" fill="#A02629"></path>
        <path d="M46.287,48.238 L46.982,48.308 C47.454,48.363 47.863,48.403 48.218,48.411 L50.367,48.473 L50.401,47.008 L48.254,46.95 C47.933,46.943 47.566,46.904 47.138,46.858 L46.428,46.787 C46.238,46.766 46.056,46.762 45.89,46.769 L45.953,48.226 C46.053,48.222 46.165,48.226 46.287,48.238" id="Fill-8" fill="#A02629"></path>
        <path d="M48.265,50.999 C47.959,50.989 47.607,50.95 47.206,50.908 C46.965,50.88 46.708,50.854 46.447,50.83 C46.26,50.811 46.085,50.808 45.921,50.811 L45.945,52.272 C46.048,52.268 46.165,52.272 46.3,52.285 C46.57,52.31 46.819,52.336 47.052,52.361 C47.499,52.409 47.89,52.449 48.231,52.459 C48.679,52.464 49.332,52.485 49.818,52.494 L50.379,52.51 L50.413,51.053 L49.854,51.035 C49.369,51.024 48.712,51.004 48.265,50.999" id="Fill-9" fill="#A02629"></path>
        <path d="M48.266,55.041 C47.953,55.03 47.598,54.993 47.189,54.946 C46.95,54.92 46.701,54.894 46.449,54.872 C46.255,54.851 46.077,54.844 45.912,54.851 L45.956,56.309 C46.056,56.309 46.168,56.309 46.3,56.324 C46.558,56.349 46.804,56.378 47.03,56.397 C47.486,56.449 47.882,56.489 48.229,56.5 L48.835,56.515 C49.453,56.531 50.141,56.548 50.381,56.553 L50.41,55.09 C50.169,55.085 49.484,55.072 48.874,55.053 L48.266,55.041" id="Fill-10" fill="#A02629"></path>
        <path d="M39.031,48.394 C39.388,48.388 39.795,48.343 40.267,48.291 C40.486,48.269 40.719,48.245 40.966,48.217 C41.08,48.21 41.196,48.202 41.297,48.207 L41.319,46.743 C41.169,46.743 41.001,46.75 40.83,46.766 C40.572,46.788 40.332,46.816 40.109,46.842 C39.686,46.884 39.323,46.929 38.998,46.932 L36.852,46.987 L36.886,48.45 L39.031,48.394" id="Fill-11" fill="#A02629"></path>
        <path d="M40.123,50.88 C39.699,50.927 39.331,50.967 39.01,50.975 L36.863,51.032 L36.897,52.494 L39.043,52.438 C39.402,52.429 39.808,52.383 40.28,52.333 L40.966,52.262 C41.077,52.253 41.185,52.248 41.286,52.253 L41.352,50.793 C41.201,50.785 41.026,50.793 40.84,50.808 L40.123,50.88" id="Fill-12" fill="#A02629"></path>
        <path d="M40.124,54.92 C39.699,54.968 39.333,55.011 38.939,55.016 C38.26,55.035 37.183,55.068 36.866,55.076 L36.893,56.535 C37.212,56.526 38.297,56.498 39.045,56.478 C39.401,56.468 39.808,56.423 40.282,56.373 L40.991,56.302 C41.1,56.289 41.207,56.287 41.307,56.289 L41.329,54.831 C41.174,54.827 41.003,54.831 40.842,54.846 L40.124,54.92" id="Fill-13" fill="#A02629"></path>
        <path d="M6.589,43.755 C8.416,43.755 9.535,42.587 9.671,40.557 C9.691,40.158 9.661,39.717 9.562,39.174 L9.528,38.996 L8.021,38.982 L8.162,39.291 C8.27,39.533 8.334,40.043 8.309,40.469 C8.241,41.525 7.447,42.171 6.328,42.094 C5.19,42.022 4.467,41.284 4.528,40.254 C4.55,39.92 4.608,39.549 4.885,39.136 L5.073,38.844 L3.586,38.626 L3.516,38.775 C3.327,39.178 3.199,39.691 3.172,40.144 C3.041,42.266 4.212,43.614 6.309,43.746 C6.403,43.752 6.498,43.755 6.589,43.755" id="Fill-14" fill="#A02629"></path>
        <path d="M5.863,33.129 C6.083,32.342 6.752,32.177 7.275,32.177 C7.522,32.177 7.79,32.217 8.053,32.291 C8.692,32.474 9.19,32.807 9.415,33.209 C9.572,33.492 9.601,33.811 9.503,34.165 C9.277,34.954 8.62,35.119 8.107,35.119 C7.847,35.119 7.569,35.076 7.276,34.995 C6.447,34.758 5.578,34.129 5.863,33.129 Z M6.828,36.587 C7.232,36.699 7.627,36.758 7.998,36.758 C9.385,36.758 10.411,35.949 10.813,34.537 C11.053,33.694 10.985,32.896 10.615,32.237 C10.212,31.505 9.479,30.982 8.503,30.706 C8.113,30.594 7.734,30.54 7.375,30.54 C5.98,30.54 4.951,31.349 4.552,32.758 C4.034,34.572 4.908,36.037 6.828,36.587 Z" id="Fill-15" fill="#A02629"></path>
        <path d="M9.841,26.461 L9.761,26.603 L8.751,26.063 L8.827,25.921 C9.082,25.452 9.355,25.062 9.786,25.29 C9.939,25.373 10.029,25.469 10.067,25.589 C10.146,25.844 9.973,26.208 9.841,26.461 Z M13.119,28.391 L10.968,27.241 L11.038,27.108 C11.239,26.723 11.396,26.756 11.728,26.796 L13.827,27.064 L14.655,25.499 L11.866,25.209 C11.681,25.194 11.477,25.2 11.321,25.238 C11.344,24.644 11.036,24.085 10.472,23.785 C10.156,23.619 9.853,23.533 9.569,23.533 C8.55,23.533 8.009,24.561 7.53,25.469 L6.8,26.839 L12.368,29.806 L13.119,28.391 Z" id="Fill-16" fill="#A02629"></path>
        <polyline id="Fill-17" fill="#A02629" points="16.598 22.904 13.737 20.532 17.796 21.455 18.926 20.094 14.071 16.064 13.083 17.261 15.944 19.634 11.891 18.697 10.754 20.07 15.609 24.094 16.598 22.904"></polyline>
        <polyline id="Fill-18" fill="#A02629" points="23.615 16.085 22.756 15.026 20.995 16.46 20.23 15.519 21.837 14.215 20.97 13.159 19.37 14.463 18.735 13.679 20.482 12.258 19.622 11.2 16.635 13.633 20.615 18.526 23.615 16.085"></polyline>
        <polyline id="Fill-19" fill="#A02629" points="28.852 12.959 28.178 11.766 26.225 12.866 23.8 8.559 22.403 9.349 25.493 14.842 28.852 12.959"></polyline>
        <polyline id="Fill-20" fill="#A02629" points="34.148 10.93 33.68 9.648 31.571 10.413 29.888 5.767 28.382 6.313 30.527 12.24 34.148 10.93"></polyline>
        <path d="M40.498,9.886 C40.623,9.886 40.752,9.879 40.883,9.866 C41.756,9.792 42.397,9.519 42.794,9.053 C43.168,8.608 43.325,7.99 43.259,7.222 L42.933,3.264 L41.337,3.394 L41.635,6.994 C41.74,8.264 41.231,8.469 40.776,8.512 C40.735,8.512 40.696,8.516 40.66,8.516 C40.286,8.516 39.774,8.375 39.673,7.156 L39.378,3.558 L37.785,3.69 L38.112,7.649 C38.233,9.11 39.054,9.886 40.498,9.886" id="Fill-21" fill="#A02629"></path>
        <polyline id="Fill-22" fill="#A02629" points="47.717 6.12 49.08 10.059 50.835 10.297 51.683 4.045 50.148 3.837 49.651 7.524 48.29 3.587 46.531 3.348 45.687 9.603 47.221 9.809 47.717 6.12"></polyline>
        <polyline id="Fill-23" fill="#A02629" points="56.418 5.396 54.894 4.913 53.003 10.935 54.529 11.412 56.418 5.396"></polyline>
        <polyline id="Fill-24" fill="#A02629" points="64.325 8.939 62.883 8.214 59.841 11.31 60.516 7.022 58.991 6.244 58.054 12.843 59.607 13.624 64.325 8.939"></polyline>
        <polyline id="Fill-25" fill="#A02629" points="65.903 17.957 66.744 16.887 64.95 15.486 65.698 14.528 67.323 15.803 68.162 14.729 66.534 13.455 67.156 12.662 68.932 14.049 69.775 12.98 66.739 10.603 62.855 15.572 65.903 17.957"></polyline>
        <path d="M72.226,17.345 L72.335,17.469 C72.56,17.73 72.793,18.023 72.772,18.265 C72.77,18.376 72.707,18.48 72.586,18.587 C72.469,18.689 72.355,18.742 72.238,18.742 C71.969,18.742 71.689,18.465 71.476,18.223 L71.369,18.101 L72.226,17.345 Z M68.513,20.603 L70.344,18.996 L70.446,19.114 C70.682,19.383 70.689,19.497 70.495,19.871 L69.503,21.738 L70.672,23.068 L71.933,20.554 C71.977,20.463 72.067,20.267 72.097,20.042 C72.637,20.279 73.287,20.171 73.757,19.761 C75.114,18.566 74.028,17.327 73.236,16.424 L72.2,15.243 L67.455,19.405 L68.513,20.603 Z" id="Fill-26" fill="#A02629"></path>
        <path d="M74.392,25.65 C74.082,25.833 73.695,25.523 73.518,25.227 C73.322,24.891 73.209,24.472 73.195,24.019 L73.182,23.689 L71.74,24.356 L71.841,24.679 C71.984,25.166 72.072,25.461 72.377,25.978 C72.891,26.847 73.574,27.325 74.297,27.325 C74.634,27.325 74.974,27.225 75.312,27.021 C76.428,26.362 76.253,25.313 76.126,24.547 C76.038,24.005 75.995,23.669 76.22,23.536 C76.333,23.472 76.437,23.441 76.537,23.441 C76.826,23.441 77.018,23.715 77.088,23.831 C77.271,24.141 77.391,24.509 77.442,24.889 L77.481,25.182 L78.793,24.588 L78.758,24.414 C78.666,23.967 78.485,23.521 78.209,23.05 C77.521,21.894 76.393,21.52 75.339,22.144 C74.26,22.781 74.415,23.807 74.532,24.552 C74.628,25.144 74.668,25.489 74.392,25.65" id="Fill-27" fill="#A02629"></path>
        <polyline id="Fill-28" fill="#A02629" points="75.114 31.361 80.955 28.978 80.349 27.497 74.512 29.881 75.114 31.361"></polyline>
        <polyline id="Fill-29" fill="#A02629" points="80.977 33.434 76.175 34.612 76.555 36.171 81.359 34.986 81.759 36.599 83.078 36.274 81.902 31.498 80.576 31.822 80.977 33.434"></polyline>
        <polyline id="Fill-30" fill="#A02629" points="77.283 41.077 77.372 42.676 79.849 42.537 83.794 44.56 83.701 42.824 81.398 41.682 83.56 40.325 83.457 38.45 79.758 40.941 77.283 41.077"></polyline>
        <polyline id="Fill-31" fill="#A02629" points="7.818 55.516 9.125 55.137 8.578 53.236 9.542 52.957 10.122 54.958 11.431 54.576 10.409 51.03 4.343 52.779 4.795 54.325 7.268 53.608 7.818 55.516"></polyline>
        <path d="M10.927,61.112 C10.527,61.309 10.129,61.414 9.777,61.414 C9.229,61.414 8.832,61.164 8.588,60.673 C8.424,60.338 8.394,60.013 8.501,59.703 C8.648,59.268 9.077,58.851 9.676,58.558 C10.047,58.377 10.431,58.277 10.779,58.277 C11.34,58.277 11.747,58.523 11.981,59.008 C12.144,59.339 12.17,59.665 12.063,59.983 C11.912,60.42 11.497,60.837 10.927,61.112 Z M13.436,60.746 C13.682,60.018 13.605,59.209 13.204,58.405 C12.647,57.266 11.722,56.642 10.611,56.642 C10.077,56.642 9.514,56.784 8.942,57.065 C8.021,57.518 7.394,58.166 7.133,58.938 C6.884,59.659 6.968,60.469 7.367,61.275 C7.922,62.405 8.851,63.026 9.987,63.026 C10.528,63.026 11.094,62.883 11.661,62.604 C12.557,62.162 13.17,61.522 13.436,60.746 Z" id="Fill-32" fill="#A02629"></path>
        <path d="M17.783,65.632 L14.958,67.88 C14.197,68.489 13.652,68.544 13.214,67.991 C13.034,67.765 12.959,67.547 12.987,67.328 C13.024,67.015 13.272,66.679 13.725,66.317 L16.546,64.073 L15.542,62.813 L12.434,65.28 C11.788,65.794 11.443,66.371 11.416,66.996 C11.387,67.575 11.635,68.199 12.151,68.841 C12.762,69.613 13.419,70 14.109,70 C14.62,70 15.146,69.788 15.677,69.366 L18.788,66.895 L17.783,65.632" id="Fill-33" fill="#A02629"></path>
        <polyline id="Fill-34" fill="#A02629" points="23.147 70.766 20.79 73.644 21.687 69.567 20.294 68.432 16.296 73.313 17.508 74.296 19.868 71.413 18.98 75.505 20.357 76.635 24.355 71.752 23.147 70.766"></polyline>
        <path d="M28.118,77.435 C27.791,78.089 27.226,78.459 26.567,78.459 C26.298,78.459 26.03,78.393 25.789,78.271 L25.399,78.08 L27.01,74.873 L27.398,75.07 C27.803,75.274 28.116,75.629 28.255,76.051 C28.397,76.49 28.35,76.97 28.118,77.435 Z M27.806,73.751 L26.182,72.933 L23.345,78.573 L24.97,79.384 C25.752,79.779 26.435,79.968 27.06,79.968 C28.151,79.968 29.008,79.371 29.604,78.187 C30.543,76.317 29.941,74.825 27.806,73.751 Z" id="Fill-35" fill="#A02629"></path>
        <polyline id="Fill-36" fill="#A02629" points="31.287 82.074 35.062 83.079 35.413 81.766 33.194 81.17 33.503 80.002 35.519 80.539 35.874 79.227 33.856 78.686 34.113 77.711 36.315 78.296 36.671 76.983 32.91 75.976 31.287 82.074"></polyline>
        <path d="M40.536,82.421 L40.102,82.399 L40.309,78.824 L40.737,78.846 C41.586,78.892 42.41,79.557 42.346,80.725 C42.275,81.941 41.358,82.466 40.536,82.421 Z M40.593,77.471 L38.771,77.366 L38.419,83.667 L40.232,83.771 C40.372,83.779 40.51,83.782 40.647,83.782 C42.761,83.782 43.891,82.787 44.004,80.825 C44.056,79.852 43.836,79.08 43.34,78.525 C42.769,77.889 41.869,77.543 40.593,77.471 Z" id="Fill-37" fill="#A02629"></path>
        <path d="M50.55,80.463 L50.752,78.815 L51.613,80.234 L50.55,80.463 Z M49.557,76.995 L48.485,83.673 L50.136,83.317 L50.354,81.902 L52.379,81.458 L53.149,82.676 L54.879,82.298 L51.144,76.656 L49.557,76.995 Z" id="Fill-38" fill="#A02629"></path>
        <polyline id="Fill-39" fill="#A02629" points="55.552 80.255 56.098 81.771 57.616 81.224 57.064 79.704 55.552 80.255"></polyline>
        <path d="M61.181,78.111 L60.802,78.317 L59.094,75.171 L59.477,74.965 C59.729,74.825 60.015,74.749 60.303,74.749 C60.939,74.749 61.497,75.108 61.83,75.719 C62.386,76.75 61.925,77.705 61.181,78.111 Z M58.625,73.871 L57.023,74.734 L60.033,80.283 L61.63,79.415 C63.727,78.283 64.285,76.771 63.289,74.932 C62.302,73.104 60.72,72.73 58.625,73.871 Z" id="Fill-40" fill="#A02629"></path>
        <polyline id="Fill-41" fill="#A02629" points="64.491 75.86 65.417 77.187 66.743 76.265 65.821 74.936 64.491 75.86"></polyline>
        <polyline id="Fill-42" fill="#A02629" points="67.011 67.783 66.73 70.259 68.116 70.448 68.23 69.416 71.241 72.47 72.39 71.336 67.959 66.843 67.011 67.783"></polyline>
        <path d="M74.726,66.641 C74.512,66.93 74.109,67.015 73.836,66.813 C73.586,66.626 73.504,66.371 73.571,65.94 C74.025,65.644 74.355,65.596 74.639,65.808 C74.772,65.905 74.845,66.027 74.869,66.167 C74.891,66.317 74.839,66.487 74.726,66.641 Z M72.56,64.94 C72.335,65.082 72.1,65.203 71.893,65.203 C71.793,65.203 71.707,65.178 71.628,65.121 C71.318,64.888 71.472,64.506 71.612,64.321 C71.717,64.174 71.849,64.103 71.995,64.103 C72.1,64.103 72.218,64.144 72.33,64.225 C72.519,64.37 72.603,64.698 72.56,64.94 Z M75.56,64.48 C75.033,64.093 74.443,64.029 73.788,64.282 C73.798,63.663 73.477,63.131 73.092,62.844 C72.306,62.267 71.257,62.592 70.488,63.632 C69.726,64.661 69.795,65.704 70.671,66.356 C71.106,66.679 71.676,66.752 72.222,66.557 C72.183,67.245 72.405,67.76 72.892,68.118 C73.247,68.381 73.615,68.513 73.993,68.513 C74.625,68.513 75.258,68.124 75.784,67.422 C76.224,66.821 76.418,66.218 76.336,65.676 C76.264,65.21 76.005,64.813 75.56,64.48 Z" id="Fill-43" fill="#A02629"></path>
        <path d="M78.362,60.699 C78.263,60.906 78.103,61.007 77.878,61.007 C77.725,61.007 77.547,60.96 77.364,60.864 C77.053,60.711 76.842,60.518 76.781,60.322 C76.742,60.205 76.754,60.09 76.816,59.961 C76.911,59.772 77.064,59.68 77.291,59.68 C77.462,59.68 77.661,59.733 77.866,59.836 C78.135,59.972 78.33,60.16 78.393,60.353 C78.433,60.47 78.42,60.584 78.362,60.699 Z M78.42,58.311 C77.326,57.765 76.288,58.091 75.762,59.14 C75.614,59.437 75.553,59.723 75.582,60.008 C75.19,59.685 74.835,59.185 75.142,58.567 C75.299,58.253 75.504,58.044 75.756,57.825 L75.969,57.642 L74.809,56.81 L74.678,56.938 C74.355,57.252 74.101,57.603 73.901,58.003 C73.59,58.631 73.53,59.238 73.728,59.825 C74.066,60.845 75.107,61.542 75.913,61.942 C76.617,62.297 77.218,62.47 77.744,62.47 C78.545,62.47 79.146,62.071 79.54,61.287 C80.15,60.063 79.74,58.979 78.42,58.311 Z" id="Fill-44" fill="#A02629"></path>
        <path d="M80.653,51.943 C79.393,51.565 78.376,52.134 78.019,53.349 C77.983,53.461 77.958,53.565 77.945,53.655 L77.206,53.42 L77.848,51.25 L76.59,50.88 L75.509,54.521 L79.005,55.634 L79.004,55.328 C79.002,54.988 79.046,54.668 79.142,54.342 C79.232,54.041 79.555,53.296 80.231,53.496 C80.948,53.713 80.782,54.485 80.717,54.717 C80.589,55.144 80.339,55.45 80.13,55.704 L79.929,55.95 L81.401,56.436 L81.491,56.277 C81.732,55.851 81.946,55.358 82.059,54.968 C82.281,54.23 82.251,53.551 81.977,53.005 C81.717,52.494 81.25,52.12 80.653,51.943" id="Fill-45" fill="#A02629"></path>
        <g id="Group-49">
            <mask id="mask-2" fill="white">
                <use xlink:href="#path-1"></use>
            </mask>
            <g id="Clip-47"></g>
            <path d="M43.477,12.834 C60.399,12.834 74.167,26.603 74.167,43.52 C74.167,60.443 60.399,74.211 43.477,74.211 C26.553,74.211 12.788,60.443 12.788,43.52 C12.788,26.603 26.553,12.834 43.477,12.834 Z M11.69,43.52 C11.69,61.053 25.947,75.314 43.477,75.314 C61.007,75.314 75.266,61.053 75.266,43.52 C75.266,25.993 61.007,11.733 43.477,11.733 C25.947,11.733 11.69,25.993 11.69,43.52 Z" id="Fill-46" fill="#A02629" mask="url(#mask-2)"></path>
            <path d="M43.477,85.866 C20.129,85.866 1.136,66.873 1.136,43.525 C1.136,20.178 20.129,1.182 43.477,1.182 C66.825,1.182 85.819,20.178 85.819,43.525 C85.819,66.873 66.825,85.866 43.477,85.866 Z M43.477,0.045 C19.503,0.045 0,19.548 0,43.525 C0,67.493 19.503,87 43.477,87 C67.452,87 86.954,67.493 86.954,43.525 C86.954,19.548 67.452,0.045 43.477,0.045 Z" id="Fill-48" fill="#A02629" mask="url(#mask-2)"></path>
        </g>
    </g>
</svg>
