<?xml version="1.0" encoding="UTF-8"?>
<svg width="314px" height="123px" viewBox="0 0 314 123" version="1.1" xmlns="http://www.w3.org/2000/svg" xmlns:xlink="http://www.w3.org/1999/xlink">
    <!-- Generator: Sketch 50.2 (55047) - http://www.bohemiancoding.com/sketch -->
    <title>ILR_ICS_Positive</title>
    <desc>Created with Sketch.</desc>
    <defs>
        <polygon id="path-1" points="0.06 0.989 248.236 0.989 248.236 123 0.06 123"></polygon>
        <polygon id="path-3" points="0.726 0.93 111.775 0.93 111.775 64.615 0.726 64.615"></polygon>
    </defs>
    <g id="ILR_ICS_Positive" stroke="none" stroke-width="1" fill="none" fill-rule="evenodd">
        <g id="Group-3">
            <mask id="mask-2" fill="white">
                <use xlink:href="#path-1"></use>
            </mask>
            <g id="Clip-2"></g>
            <path d="M32.06,92.773 L42.674,92.773 L43.559,91.888 L43.559,31.742 L42.674,30.857 L32.06,30.857 L31.176,31.742 L31.176,91.888 L32.06,92.773 Z M248.236,122.095 L248.235,112.494 L247.335,111.596 L12.357,111.596 L12.358,111.595 L11.42,110.657 L11.405,110.672 L11.405,13.293 L12.304,12.393 L84.67,12.393 L85.567,11.496 L85.567,1.866 L84.69,0.989 L0.875,0.989 L0,1.863 L0,122.154 L0.847,123 L247.33,123 L248.236,122.095 Z M154.324,49.432 C154.324,37.049 145.479,30.857 133.096,30.857 L103.908,30.857 L103.023,31.742 L103.023,91.888 L103.908,92.773 L114.521,92.773 L115.406,91.888 L115.406,68.891 L116.29,68.007 L125.135,68.007 L126.905,68.891 L144.594,91.888 L146.364,92.773 L151.67,92.773 L152.555,91.888 L152.555,83.043 L141.056,68.007 L141.056,67.122 C148.132,65.353 154.324,59.161 154.324,49.432 Z M141.941,49.432 C141.941,55.623 138.403,57.392 133.096,57.392 L116.29,57.392 L115.406,56.508 L115.406,42.356 L116.29,41.471 L133.096,41.471 C138.403,41.471 141.941,43.241 141.941,49.432 Z M96.752,92.773 L97.637,91.888 L97.637,83.043 L96.752,82.158 L69.332,82.158 L68.449,81.274 L68.449,31.742 L67.564,30.857 L56.95,30.857 L56.065,31.742 L56.065,91.888 L56.95,92.773 L96.752,92.773 Z" id="Fill-1" fill="#222222" mask="url(#mask-2)"></path>
        </g>
        <polyline id="Fill-4" fill="#991C2D" points="194.412 92.731 183.798 92.731 182.913 91.846 182.913 31.698 183.798 30.814 194.412 30.814 195.297 31.698 195.297 91.846 194.412 92.731"></polyline>
        <g id="Group-8" transform="translate(202.000000, 29.000000)">
            <mask id="mask-4" fill="white">
                <use xlink:href="#path-3"></use>
            </mask>
            <g id="Clip-6"></g>
            <path d="M44.067,45.155 L44.951,44.271 L55.566,44.271 L56.45,45.155 C54.682,57.539 44.951,64.615 30.799,64.615 C11.34,64.615 0.726,51.348 0.726,32.772 C0.726,14.197 11.34,0.93 30.799,0.93 C44.951,0.93 54.682,8.006 56.45,19.504 L55.566,20.39 L44.951,20.39 L44.067,19.504 C42.298,14.197 37.875,11.545 30.799,11.545 C18.416,11.545 13.109,20.39 13.109,32.772 C13.109,45.155 18.416,54.002 30.799,54.002 C37.875,54.002 42.298,51.348 44.067,45.155" id="Fill-5" fill="#991C2D" mask="url(#mask-4)"></path>
            <path d="M86.124,64.615 C68.434,64.615 60.473,55.77 60.473,44.271 L61.358,43.387 L71.972,43.387 L72.857,44.271 C72.857,50.462 76.395,54.002 87.008,54.002 C94.969,54.002 99.392,51.348 99.392,46.041 C99.392,39.849 95.854,38.08 83.471,36.31 C71.087,34.542 61.358,30.119 61.358,17.736 C61.358,8.891 68.434,0.93 85.24,0.93 C102.045,0.93 109.121,8.891 109.121,19.504 L108.237,20.39 L97.623,20.39 L96.739,19.504 C96.739,14.197 94.084,11.545 84.355,11.545 C76.395,11.545 73.741,14.197 73.741,17.736 C73.741,23.043 77.279,24.811 89.662,26.581 C102.045,28.35 111.776,33.657 111.776,46.041 C111.776,55.77 104.699,64.615 86.124,64.615" id="Fill-7" fill="#991C2D" mask="url(#mask-4)"></path>
        </g>
    </g>
</svg>