<?xml version="1.0" encoding="UTF-8"?>
<svg width="432px" height="123px" viewBox="0 0 432 123" version="1.1" xmlns="http://www.w3.org/2000/svg" xmlns:xlink="http://www.w3.org/1999/xlink">
    <!-- Generator: Sketch 51.3 (57544) - http://www.bohemiancoding.com/sketch -->
    <title>ILR-wordmark-reversed</title>
    <desc>Created with Sketch.</desc>
    <defs></defs>
    <g id="Page-1" stroke="none" stroke-width="1" fill="none" fill-rule="evenodd">
        <g id="ILR-wordmark-reversed" fill="#FFFFFF" fill-rule="nonzero">
            <polygon id="Shape" points="305.26 110.61 12.36 110.61 12.36 110.61 11.42 109.67 11.4 109.69 11.4 12.3 12.3 11.4 84.67 11.4 85.57 10.51 85.57 0.88 84.69 0 0.87 0 0 0.87 0 121.17 0.85 122.01 305.25 122.01 306.16 121.11 306.16 111.51"></polygon>
            <polygon id="Shape" points="31.18 30.75 31.18 90.9 32.06 91.78 42.67 91.78 43.56 90.9 43.56 30.75 42.67 29.87 32.06 29.87"></polygon>
            <polygon id="Shape" points="68.45 80.29 68.45 30.75 67.56 29.87 56.95 29.87 56.06 30.75 56.06 90.9 56.95 91.78 96.75 91.78 97.64 90.9 97.64 82.06 96.75 81.17 69.33 81.17"></polygon>
            <path d="M114.52,91.79 L115.41,90.9 L115.41,67.9 L116.29,67.01 L125.16,67.01 L126.93,67.9 L144.62,90.9 L146.39,91.79 L151.69,91.79 L152.58,90.9 L152.58,82.06 L141.08,67.06 L141.08,66.18 C148.15,64.41 154.35,58.18 154.35,48.49 C154.35,36.1 145.5,29.91 133.12,29.91 L103.91,29.91 L103.02,30.8 L103.02,90.94 L103.91,91.83 L114.52,91.79 Z M115.41,41.37 L116.29,40.49 L133.1,40.49 C138.4,40.49 141.94,42.26 141.94,48.49 C141.94,54.72 138.4,56.49 133.1,56.49 L116.29,56.49 L115.41,55.6 L115.41,41.37 Z" id="Shape"></path>
            <path d="M205.63,92.67 C224.2,92.67 231.28,83.83 231.28,74.1 C231.28,61.71 221.55,56.41 209.17,54.64 C196.79,52.87 193.24,51.1 193.24,45.79 C193.24,42.26 195.9,39.6 203.86,39.6 C213.59,39.6 216.24,42.26 216.24,47.6 L217.13,48.49 L227.74,48.49 L228.62,47.6 C228.62,36.99 221.55,29.03 204.74,29.03 C187.93,29.03 180.86,37.03 180.86,45.83 C180.86,58.22 190.59,62.64 202.97,64.41 C215.35,66.18 218.89,67.95 218.89,74.14 C218.89,79.45 214.47,82.14 206.51,82.14 C195.9,82.14 192.36,78.6 192.36,72.41 L191.47,71.52 L180.86,71.52 L179.98,72.41 C179.98,83.83 187.94,92.67 205.63,92.67 Z" id="Shape"></path>
            <path d="M255.89,92.67 C265.62,92.67 274.47,88.25 276.24,77.67 L275.35,76.78 L264.74,76.78 L263.85,77.67 C262.97,80.32 260.32,82.09 255.85,82.09 C249.66,82.09 246.12,77.67 246.12,69.71 C246.12,61.75 249.7,57.33 255.89,57.33 C260.32,57.33 262.97,59.1 263.89,61.75 L264.78,62.64 L275.39,62.64 L276.28,61.75 C274.51,51.14 265.66,46.75 255.93,46.75 C242.67,46.75 233.82,55.59 233.82,69.75 C233.82,83.91 242.63,92.67 255.89,92.67 Z" id="Shape"></path>
            <path d="M304.69,46.68 C300.412204,46.5107462 296.253249,48.1092316 293.19,51.1 L292.31,51.1 L292.31,30.76 L291.42,29.87 L280.81,29.87 L279.93,30.76 L279.93,90.9 L280.81,91.79 L291.42,91.79 L292.31,90.9 L292.31,68.79 C292.31,60.79 295.85,57.29 302.04,57.29 C307.35,57.29 309.11,60.83 309.11,65.29 L309.11,90.94 L310,91.83 L320.61,91.83 L321.5,90.94 L321.5,64.33 C321.5,53.75 315.31,46.68 304.69,46.68 Z" id="Shape"></path>
            <path d="M347.3,46.68 C334.03,46.68 325.19,55.52 325.19,69.68 C325.19,83.84 334.03,92.68 347.3,92.68 C360.57,92.68 369.41,83.84 369.41,69.68 C369.41,55.52 360.57,46.68 347.3,46.68 Z M347.3,82.06 C341.11,82.06 337.57,77.64 337.57,69.68 C337.57,61.72 341.16,57.33 347.3,57.33 C353.44,57.33 357.03,61.76 357.03,69.72 C357.03,77.68 353.49,82.06 347.3,82.06 Z" id="Shape"></path>
            <path d="M393.51,46.68 C380.24,46.68 371.39,55.52 371.39,69.68 C371.39,83.84 380.24,92.68 393.51,92.68 C406.78,92.68 415.62,83.84 415.62,69.68 C415.62,55.52 406.77,46.68 393.51,46.68 Z M393.51,82.06 C387.31,82.06 383.78,77.64 383.78,69.68 C383.78,61.72 387.31,57.33 393.51,57.33 C399.71,57.33 403.24,61.76 403.24,69.72 C403.24,77.68 399.7,82.06 393.51,82.06 Z" id="Shape"></path>
            <polygon id="Shape" points="431.12 29.87 420.5 29.87 419.62 30.75 419.62 90.9 420.5 91.78 431.12 91.78 432 90.9 432 30.75"></polygon>
        </g>
    </g>
</svg>