<?xml version="1.0" encoding="UTF-8"?>
<svg width="426px" height="123px" viewBox="0 0 426 123" version="1.1" xmlns="http://www.w3.org/2000/svg" xmlns:xlink="http://www.w3.org/1999/xlink">
    <!-- Generator: Sketch 50.2 (55047) - http://www.bohemiancoding.com/sketch -->
    <title>ILR_CHERI_Positive</title>
    <desc>Created with Sketch.</desc>
    <defs></defs>
    <g id="ILR_CHERI_Positive" stroke="none" stroke-width="1" fill="none" fill-rule="evenodd">
        <path d="M32.122,92.542 L42.737,92.542 L43.622,91.658 L43.622,31.512 L42.737,30.627 L32.122,30.627 L31.238,31.512 L31.238,91.658 L32.122,92.542 Z M301.892,121.865 L301.89,112.265 L300.991,111.367 L12.418,111.367 L12.42,111.365 L11.482,110.427 L11.467,110.442 L11.467,13.063 L12.367,12.163 L84.733,12.163 L85.629,11.266 L85.629,1.636 L84.752,0.759 L0.938,0.759 L0.062,1.633 L0.062,121.924 L0.91,122.77 L300.987,122.77 L301.892,121.865 Z M154.386,49.202 C154.386,36.819 145.541,30.627 133.158,30.627 L103.969,30.627 L103.084,31.512 L103.084,91.658 L103.969,92.542 L114.583,92.542 L115.468,91.658 L115.468,68.661 L116.352,67.776 L125.198,67.776 L126.966,68.661 L144.657,91.658 L146.425,92.542 L151.733,92.542 L152.617,91.658 L152.617,82.813 L141.119,67.776 L141.119,66.892 C148.195,65.123 154.386,58.931 154.386,49.202 Z M142.003,49.202 C142.003,55.393 138.465,57.162 133.158,57.162 L116.352,57.162 L115.468,56.278 L115.468,42.126 L116.352,41.241 L133.158,41.241 C138.465,41.241 142.003,43.01 142.003,49.202 Z M96.815,92.542 L97.699,91.658 L97.699,82.813 L96.815,81.929 L69.395,81.929 L68.51,81.044 L68.51,31.512 L67.626,30.627 L57.012,30.627 L56.127,31.512 L56.127,91.658 L57.012,92.542 L96.815,92.542 Z" id="Fill-1" fill="#222222"></path>
        <path d="M221.894,73.925 L222.779,73.041 L233.393,73.041 L234.278,73.925 C232.509,86.309 222.779,93.385 208.626,93.385 C189.167,93.385 178.553,80.118 178.553,61.543 C178.553,42.967 189.167,29.701 208.626,29.701 C222.779,29.701 232.509,36.776 234.278,48.274 L233.393,49.16 L222.779,49.16 L221.894,48.274 C220.125,42.967 215.703,40.315 208.626,40.315 C196.244,40.315 190.936,49.16 190.936,61.543 C190.936,73.925 196.244,82.772 208.626,82.772 C215.703,82.772 220.125,80.118 221.894,73.925" id="Fill-2" fill="#99242F"></path>
        <polyline id="Fill-3" fill="#99242F" points="290.354 92.501 279.74 92.501 278.856 91.617 278.856 66.85 277.971 65.966 254.088 65.966 253.205 66.85 253.205 91.617 252.32 92.501 241.706 92.501 240.821 91.617 240.821 31.469 241.706 30.584 252.32 30.584 253.205 31.469 253.205 54.467 254.088 55.351 277.971 55.351 278.856 54.467 278.856 31.469 279.74 30.584 290.354 30.584 291.239 31.469 291.239 91.617 290.354 92.501"></polyline>
        <polyline id="Fill-4" fill="#99242F" points="344.451 92.501 302.878 92.501 301.994 91.617 301.994 31.469 302.878 30.584 344.451 30.584 345.335 31.469 345.335 40.315 344.451 41.199 315.261 41.199 314.376 42.083 314.376 54.467 315.261 55.351 342.681 55.351 343.566 56.235 343.566 65.08 342.681 65.966 315.261 65.966 314.376 66.85 314.376 81.002 315.261 81.886 344.451 81.886 345.335 82.772 345.335 91.617 344.451 92.501"></polyline>
        <path d="M384.42,41.199 L367.614,41.199 L366.73,42.083 L366.73,56.235 L367.614,57.121 L384.42,57.121 C389.727,57.121 393.265,55.351 393.265,49.16 C393.265,42.967 389.727,41.199 384.42,41.199 Z M392.381,66.85 L392.381,67.734 L403.879,82.772 L403.879,91.617 L402.995,92.501 L397.688,92.501 L395.918,91.617 L378.229,68.619 L376.459,67.734 L367.614,67.734 L366.73,68.619 L366.73,91.617 L365.845,92.501 L355.232,92.501 L354.347,91.617 L354.347,31.469 L355.232,30.584 L384.42,30.584 C396.803,30.584 405.649,36.776 405.649,49.16 C405.649,58.889 399.457,65.08 392.381,66.85 Z" id="Fill-5" fill="#99242F"></path>
        <polyline id="Fill-6" fill="#99242F" points="424.735 92.501 414.121 92.501 413.236 91.617 413.236 31.469 414.121 30.584 424.735 30.584 425.62 31.469 425.62 91.617 424.735 92.501"></polyline>
    </g>
</svg>