<?xml version="1.0" encoding="UTF-8"?>
<svg width="300px" height="123px" viewBox="0 0 300 123" version="1.1" xmlns="http://www.w3.org/2000/svg" xmlns:xlink="http://www.w3.org/1999/xlink">
    <!-- Generator: Sketch 50.2 (55047) - http://www.bohemiancoding.com/sketch -->
    <title>ILR_ULI_Positive</title>
    <desc>Created with Sketch.</desc>
    <defs></defs>
    <g id="ILR_ULI_Positive" stroke="none" stroke-width="1" fill="none" fill-rule="evenodd">
        <path d="M32.923,92.43 L43.537,92.43 L44.422,91.546 L44.422,31.399 L43.537,30.514 L32.923,30.514 L32.039,31.399 L32.039,91.546 L32.923,92.43 Z M242.548,121.752 L242.546,112.152 L241.646,111.254 L13.22,111.254 L13.221,111.252 L12.283,110.314 L12.268,110.329 L12.268,12.951 L13.167,12.05 L85.533,12.05 L86.43,11.154 L86.43,1.523 L85.553,0.646 L1.738,0.646 L0.863,1.52 L0.863,121.811 L1.71,122.658 L241.643,122.658 L242.548,121.752 Z M155.186,49.089 C155.186,36.706 146.342,30.514 133.959,30.514 L104.77,30.514 L103.886,31.399 L103.886,91.546 L104.77,92.43 L115.384,92.43 L116.269,91.546 L116.269,68.548 L117.153,67.664 L125.998,67.664 L127.768,68.548 L145.457,91.546 L147.227,92.43 L152.533,92.43 L153.418,91.546 L153.418,82.701 L141.919,67.664 L141.919,66.779 C148.995,65.011 155.186,58.819 155.186,49.089 Z M142.804,49.089 C142.804,55.281 139.266,57.05 133.959,57.05 L117.153,57.05 L116.269,56.165 L116.269,42.013 L117.153,41.129 L133.959,41.129 C139.266,41.129 142.804,42.898 142.804,49.089 Z M97.615,92.43 L98.5,91.546 L98.5,82.701 L97.615,81.816 L70.195,81.816 L69.311,80.931 L69.311,31.399 L68.427,30.514 L57.812,30.514 L56.928,31.399 L56.928,91.546 L57.812,92.43 L97.615,92.43 Z" id="Fill-1" fill="#222222"></path>
        <path d="M233.31,68.507 C233.31,84.427 224.465,93.272 208.543,93.272 C192.621,93.272 183.776,84.427 183.776,68.507 L183.776,31.356 L184.661,30.471 L195.275,30.471 L196.16,31.356 L196.16,68.507 C196.16,77.352 199.697,82.659 208.543,82.659 C217.389,82.659 220.926,77.352 220.926,68.507 L220.926,31.356 L221.81,30.471 L232.425,30.471 L233.31,31.356 L233.31,68.507" id="Fill-2" fill="#991C2D"></path>
        <polyline id="Fill-3" fill="#991C2D" points="282.583 92.388 242.78 92.388 241.895 91.504 241.895 31.356 242.78 30.471 253.393 30.471 254.278 31.356 254.278 80.89 255.163 81.773 282.583 81.773 283.467 82.659 283.467 91.504 282.583 92.388"></polyline>
        <polyline id="Fill-4" fill="#991C2D" points="298.504 92.388 287.89 92.388 287.005 91.504 287.005 31.356 287.89 30.471 298.504 30.471 299.389 31.356 299.389 91.504 298.504 92.388"></polyline>
    </g>
</svg>