<?xml version="1.0" encoding="UTF-8"?>
<svg width="949px" height="123px" viewBox="0 0 949 123" version="1.1" xmlns="http://www.w3.org/2000/svg" xmlns:xlink="http://www.w3.org/1999/xlink">
    <!-- Generator: Sketch 50.2 (55047) - http://www.bohemiancoding.com/sketch -->
    <title>ILR_Scheinman_Positive</title>
    <desc>Created with Sketch.</desc>
    <defs></defs>
    <g id="ILR_Scheinman_Positive" stroke="none" stroke-width="1" fill="none" fill-rule="evenodd">
        <path d="M32.949,92.751 L43.564,92.751 L44.448,91.867 L44.448,31.72 L43.564,30.836 L32.949,30.836 L32.065,31.72 L32.065,91.867 L32.949,92.751 Z M390.82,122.074 L390.819,112.473 L389.92,111.576 L13.246,111.576 L13.247,111.574 L12.31,110.636 L12.294,110.651 L12.294,13.272 L13.194,12.371 L85.56,12.371 L86.456,11.475 L86.456,1.845 L85.579,0.968 L1.765,0.968 L0.89,1.842 L0.89,122.133 L1.736,122.979 L389.915,122.979 L390.82,122.074 Z M155.213,49.41 C155.213,37.028 146.368,30.836 133.985,30.836 L104.796,30.836 L103.912,31.72 L103.912,91.867 L104.796,92.751 L115.41,92.751 L116.295,91.867 L116.295,68.87 L117.18,67.985 L126.025,67.985 L127.794,68.87 L145.483,91.867 L147.253,92.751 L152.56,92.751 L153.444,91.867 L153.444,83.022 L141.945,67.985 L141.945,67.101 C149.022,65.332 155.213,59.14 155.213,49.41 Z M142.83,49.41 C142.83,55.602 139.292,57.371 133.985,57.371 L117.18,57.371 L116.295,56.487 L116.295,42.335 L117.18,41.45 L133.985,41.45 C139.292,41.45 142.83,43.219 142.83,49.41 Z M97.642,92.751 L98.526,91.867 L98.526,83.022 L97.642,82.138 L70.222,82.138 L69.338,81.253 L69.338,31.72 L68.453,30.836 L57.839,30.836 L56.954,31.72 L56.954,91.867 L57.839,92.751 L97.642,92.751 Z" id="Fill-1" fill="#222222"></path>
        <path d="M205.916,93.593 C188.226,93.593 180.265,84.748 180.265,73.249 L181.15,72.365 L191.764,72.365 L192.648,73.249 C192.648,79.441 196.187,82.98 206.8,82.98 C214.761,82.98 219.184,80.326 219.184,75.019 C219.184,68.827 215.646,67.058 203.263,65.288 C190.879,63.52 181.15,59.097 181.15,46.714 C181.15,37.869 188.226,29.908 205.031,29.908 C221.837,29.908 228.913,37.869 228.913,48.482 L228.028,49.368 L217.415,49.368 L216.53,48.482 C216.53,43.175 213.876,40.523 204.147,40.523 C196.187,40.523 193.532,43.175 193.532,46.714 C193.532,52.022 197.07,53.79 209.454,55.559 C221.837,57.329 231.567,62.635 231.567,75.019 C231.567,84.748 224.491,93.593 205.916,93.593" id="Fill-2" fill="#99242F"></path>
        <path d="M257.066,82.98 C261.488,82.98 264.142,81.21 265.026,78.556 L265.911,77.673 L276.525,77.673 L277.409,78.556 C275.641,89.171 266.795,93.593 257.066,93.593 C243.798,93.593 234.952,84.748 234.952,70.596 C234.952,56.443 243.798,47.598 257.066,47.598 C266.795,47.598 275.641,52.022 277.409,62.635 L276.525,63.52 L265.911,63.52 L265.026,62.635 C264.142,59.981 261.488,58.213 257.066,58.213 C250.874,58.213 247.336,62.635 247.336,70.596 C247.336,78.556 250.874,82.98 257.066,82.98" id="Fill-3" fill="#99242F"></path>
        <path d="M322.668,92.709 L312.055,92.709 L311.17,91.825 L311.17,66.174 C311.17,61.751 309.401,58.213 304.094,58.213 C297.902,58.213 294.364,61.751 294.364,69.712 L294.364,91.825 L293.48,92.709 L282.865,92.709 L281.982,91.825 L281.982,31.677 L282.865,30.792 L293.48,30.792 L294.364,31.677 L294.364,52.022 L295.249,52.022 C297.018,50.252 300.556,47.598 306.747,47.598 C317.362,47.598 323.553,54.675 323.553,65.288 L323.553,91.825 L322.668,92.709" id="Fill-4" fill="#99242F"></path>
        <path d="M357.316,65.288 C357.316,64.404 356.431,58.213 349.355,58.213 C342.278,58.213 341.394,64.404 341.394,65.288 L342.278,66.174 L356.431,66.174 L357.316,65.288 Z M370.582,74.133 L369.697,75.019 L342.278,75.019 L341.394,75.903 C341.394,77.673 343.163,82.98 350.238,82.98 C352.892,82.98 355.546,82.094 356.431,80.326 L357.316,79.441 L367.929,79.441 L368.814,80.326 C367.929,85.634 363.507,93.593 350.238,93.593 C335.202,93.593 328.126,82.98 328.126,70.596 C328.126,58.213 335.202,47.598 349.355,47.598 C363.507,47.598 370.582,58.213 370.582,70.596 L370.582,74.133 Z" id="Fill-5" fill="#99242F"></path>
        <path d="M386.813,92.709 L376.198,92.709 L375.314,91.825 L375.314,49.368 L376.198,48.482 L386.813,48.482 L387.696,49.368 L387.696,91.825 L386.813,92.709 Z M386.813,41.407 L376.198,41.407 L375.314,40.523 L375.314,31.677 L376.198,30.792 L386.813,30.792 L387.696,31.677 L387.696,40.523 L386.813,41.407 Z" id="Fill-6" fill="#99242F"></path>
        <path d="M435.459,92.709 L424.845,92.709 L423.96,91.825 L423.96,66.174 C423.96,61.751 422.191,58.213 416.885,58.213 C410.693,58.213 407.154,61.751 407.154,69.712 L407.154,91.825 L406.271,92.709 L395.656,92.709 L394.772,91.825 L394.772,49.368 L395.656,48.482 L405.386,48.482 L406.271,49.368 L407.154,52.022 L408.039,52.022 C409.809,50.252 413.347,47.598 419.538,47.598 C430.152,47.598 436.344,54.675 436.344,65.288 L436.344,91.825 L435.459,92.709" id="Fill-7" fill="#99242F"></path>
        <path d="M509.378,92.709 L498.763,92.709 L497.879,91.825 L497.879,66.174 C497.879,61.751 496.109,58.213 490.802,58.213 C485.495,58.213 482.841,61.751 482.841,67.942 L482.841,91.825 L481.957,92.709 L471.343,92.709 L470.459,91.825 L470.459,66.174 C470.459,61.751 468.69,58.213 463.382,58.213 C458.074,58.213 455.422,61.751 455.422,67.942 L455.422,91.825 L454.537,92.709 L443.922,92.709 L443.038,91.825 L443.038,49.368 L443.922,48.482 L453.652,48.482 L454.537,49.368 L455.422,52.022 L456.307,52.022 C456.307,52.022 458.96,47.598 466.921,47.598 C473.996,47.598 477.534,51.136 479.304,53.79 L480.188,53.79 C480.188,53.79 483.727,47.598 493.456,47.598 C504.07,47.598 510.262,53.79 510.262,65.288 L510.262,91.825 L509.378,92.709" id="Fill-8" fill="#99242F"></path>
        <path d="M540.175,74.133 C540.175,74.133 538.405,73.249 534.868,73.249 C529.561,73.249 526.907,75.019 526.907,78.556 C526.907,81.21 528.677,82.98 533.098,82.98 C537.522,82.98 541.059,80.326 541.059,76.787 L541.059,75.019 L540.175,74.133 Z M552.558,92.709 L542.829,92.709 L541.943,91.825 L541.059,90.055 L540.175,90.055 C540.175,90.055 536.638,93.593 530.444,93.593 C520.716,93.593 514.524,88.285 514.524,79.441 C514.524,66.174 526.907,64.404 533.983,64.404 C537.522,64.404 540.175,65.288 540.175,65.288 L541.059,64.404 L541.059,63.52 C541.059,59.097 540.175,58.213 534.868,58.213 C532.214,58.213 529.561,58.213 528.677,60.867 L527.791,61.751 L517.178,61.751 L516.292,60.867 C516.292,55.559 520.716,47.598 534.868,47.598 C549.02,47.598 553.441,54.675 553.441,67.942 L553.441,91.825 L552.558,92.709 Z" id="Fill-9" fill="#99242F"></path>
        <path d="M600.781,92.709 L590.167,92.709 L589.282,91.825 L589.282,66.174 C589.282,61.751 587.513,58.213 582.206,58.213 C576.015,58.213 572.477,61.751 572.477,69.712 L572.477,91.825 L571.591,92.709 L560.977,92.709 L560.093,91.825 L560.093,49.368 L560.977,48.482 L570.707,48.482 L571.591,49.368 L572.477,52.022 L573.36,52.022 C575.129,50.252 578.668,47.598 584.859,47.598 C595.474,47.598 601.665,54.675 601.665,65.288 L601.665,91.825 L600.781,92.709" id="Fill-10" fill="#99242F"></path>
        <polyline id="Fill-11" fill="#99242F" points="644.121 92.709 633.506 92.709 632.622 91.825 632.622 31.677 633.506 30.792 644.121 30.792 645.005 31.677 645.005 91.825 644.121 92.709"></polyline>
        <path d="M694.535,92.709 L683.921,92.709 L683.037,91.825 L683.037,66.174 C683.037,61.751 681.269,58.213 675.962,58.213 C669.771,58.213 666.232,61.751 666.232,69.712 L666.232,91.825 L665.347,92.709 L654.732,92.709 L653.849,91.825 L653.849,49.368 L654.732,48.482 L664.463,48.482 L665.347,49.368 L666.232,52.022 L667.116,52.022 C668.885,50.252 672.422,47.598 678.615,47.598 C689.229,47.598 695.421,54.675 695.421,65.288 L695.421,91.825 L694.535,92.709" id="Fill-12" fill="#99242F"></path>
        <path d="M719.044,93.593 C706.66,93.593 699.585,87.402 699.585,78.556 L700.469,77.673 L711.083,77.673 L711.968,78.556 C711.968,82.094 714.621,82.98 719.044,82.98 C723.466,82.98 726.12,82.094 726.12,79.441 C726.12,75.903 722.582,75.903 717.274,75.019 C711.968,74.133 700.469,71.48 700.469,60.867 C700.469,53.79 705.776,47.598 719.044,47.598 C729.659,47.598 737.618,52.022 737.618,60.867 L736.734,61.751 L726.12,61.751 L725.235,60.867 C725.235,59.097 723.466,58.213 719.044,58.213 C714.621,58.213 712.854,59.097 712.854,61.751 C712.854,65.288 718.159,65.288 723.466,66.174 C728.773,67.058 738.504,68.827 738.504,79.441 C738.504,86.517 733.196,93.593 719.044,93.593" id="Fill-13" fill="#99242F"></path>
        <path d="M760.333,79.441 C760.333,81.21 761.217,82.094 762.986,82.094 L770.947,82.094 L771.832,82.98 L771.832,91.825 L770.947,92.709 L762.986,92.709 C755.025,92.709 747.949,89.171 747.949,79.441 L747.949,59.981 L747.065,59.097 L740.873,59.097 L739.989,58.213 L739.989,49.368 L740.873,48.482 L747.065,48.482 L747.949,47.598 L747.949,39.637 L748.834,38.753 L759.449,38.753 L760.333,39.637 L760.333,47.598 L761.217,48.482 L770.947,48.482 L771.832,49.368 L771.832,58.213 L770.947,59.097 L761.217,59.097 L760.333,59.981 L760.333,79.441" id="Fill-14" fill="#99242F"></path>
        <path d="M788.698,92.709 L778.084,92.709 L777.2,91.825 L777.2,49.368 L778.084,48.482 L788.698,48.482 L789.583,49.368 L789.583,91.825 L788.698,92.709 Z M788.698,41.407 L778.084,41.407 L777.2,40.523 L777.2,31.677 L778.084,30.792 L788.698,30.792 L789.583,31.677 L789.583,40.523 L788.698,41.407 Z" id="Fill-15" fill="#99242F"></path>
        <path d="M813.065,79.441 C813.065,81.21 813.949,82.094 815.719,82.094 L823.68,82.094 L824.565,82.98 L824.565,91.825 L823.68,92.709 L815.719,92.709 C807.758,92.709 800.682,89.171 800.682,79.441 L800.682,59.981 L799.797,59.097 L793.606,59.097 L792.722,58.213 L792.722,49.368 L793.606,48.482 L799.797,48.482 L800.682,47.598 L800.682,39.637 L801.566,38.753 L812.18,38.753 L813.065,39.637 L813.065,47.598 L813.949,48.482 L823.68,48.482 L824.565,49.368 L824.565,58.213 L823.68,59.097 L813.949,59.097 L813.065,59.981 L813.065,79.441" id="Fill-16" fill="#99242F"></path>
        <path d="M829.623,48.482 L840.238,48.482 L841.122,49.368 L841.122,75.019 C841.122,79.441 842.892,82.98 848.197,82.98 C854.391,82.98 857.044,78.556 857.044,72.365 L857.044,49.368 L857.928,48.482 L868.543,48.482 L869.427,49.368 L869.427,91.825 L868.543,92.709 L858.813,92.709 L857.928,91.825 L857.044,89.171 L856.158,89.171 C856.158,89.171 853.505,93.593 845.545,93.593 C834.931,93.593 828.739,86.517 828.739,75.903 L828.739,49.368 L829.623,48.482" id="Fill-17" fill="#99242F"></path>
        <path d="M893.007,79.441 C893.007,81.21 893.891,82.094 895.66,82.094 L903.621,82.094 L904.505,82.98 L904.505,91.825 L903.621,92.709 L895.66,92.709 C887.699,92.709 880.622,89.171 880.622,79.441 L880.622,59.981 L879.738,59.097 L873.547,59.097 L872.663,58.213 L872.663,49.368 L873.547,48.482 L879.738,48.482 L880.622,47.598 L880.622,39.637 L881.508,38.753 L892.122,38.753 L893.007,39.637 L893.007,47.598 L893.891,48.482 L903.621,48.482 L904.505,49.368 L904.505,58.213 L903.621,59.097 L893.891,59.097 L893.007,59.981 L893.007,79.441" id="Fill-18" fill="#99242F"></path>
        <path d="M935.373,65.288 C935.373,64.404 934.489,58.213 927.412,58.213 C920.337,58.213 919.453,64.404 919.453,65.288 L920.337,66.174 L934.489,66.174 L935.373,65.288 Z M948.64,74.133 L947.76,75.019 L920.337,75.019 L919.453,75.903 C919.453,77.673 921.221,82.98 928.298,82.98 C930.952,82.98 933.606,82.094 934.489,80.326 L935.373,79.441 L945.99,79.441 L946.87,80.326 C945.99,85.634 941.56,93.593 928.298,93.593 C913.26,93.593 906.185,82.98 906.185,70.596 C906.185,58.213 913.26,47.598 927.412,47.598 C941.56,47.598 948.64,58.213 948.64,70.596 L948.64,74.133 Z" id="Fill-19" fill="#99242F"></path>
    </g>
</svg>