<?xml version="1.0" encoding="utf-8"?>
<!-- Generator: Adobe Illustrator 16.0.0, SVG Export Plug-In . SVG Version: 6.00 Build 0)  -->
<!DOCTYPE svg PUBLIC "-//W3C//DTD SVG 1.1//EN" "http://www.w3.org/Graphics/SVG/1.1/DTD/svg11.dtd">
<svg version="1.1" id="seal_red" xmlns="http://www.w3.org/2000/svg" xmlns:xlink="http://www.w3.org/1999/xlink" x="0px" y="0px"
	 width="120px" height="120px" viewBox="0 0 120 120" enable-background="new 0 0 120 120" xml:space="preserve">
<g>
	<g>
		<path fill="#FFFFFF" d="M59.99854,120C26.91504,120,0,93.08105,0,59.99658C0,26.91455,26.91504,0,59.99854,0
			C93.08301,0,120,26.91455,120,59.99658C120,93.08105,93.08301,120,59.99854,120z M59.99854,2.80176
			c-31.5376,0-57.1958,25.65723-57.1958,57.19482c0,31.54053,25.6582,57.19775,57.1958,57.19775
			c31.53906,0,57.19873-25.65723,57.19873-57.19775C117.19727,28.45898,91.5376,2.80176,59.99854,2.80176z"/>
	</g>
	<g>
		<path fill="#FFFFFF" d="M59.99854,105.06445c-24.84814,0-45.06396-20.21777-45.06396-45.06787
			c0-24.84717,20.21582-45.06201,45.06396-45.06201c24.84912,0,45.06689,20.21484,45.06689,45.06201
			C105.06543,84.84668,84.84766,105.06445,59.99854,105.06445z M59.99854,17.71826c-23.31299,0-42.2793,18.96631-42.2793,42.27832
			c0,23.31592,18.96631,42.28467,42.2793,42.28467c23.31445,0,42.28223-18.96875,42.28223-42.28467
			C102.28076,36.68457,83.31299,17.71826,59.99854,17.71826z"/>
	</g>
	<g>
		<path fill="#FFFFFF" d="M60.0166,102.08008l-0.55811-0.2373c-1.14795-0.49414-28.12256-12.31348-28.12256-33.73242
			l0.00439-38.47656l57.27637-0.00586l0.00488,39.16309c0,20.53516-26.90332,32.54688-28.04785,33.04785L60.0166,102.08008z
			 M34.14307,32.43604l-0.00439,35.67432c0,17.96484,22.05127,29.10938,25.86816,30.90137
			c3.81006-1.81738,25.81299-13.05176,25.81299-30.2207l-0.00488-36.36133L34.14307,32.43604z"/>
	</g>
	<g>
		<path fill="#FFFFFF" d="M47.36377,52.16309l-0.68262-0.39941c-0.12402-0.07227-3.05371-1.79004-5.01855-3.10791
			c-1.65967-1.1084-2.51221-2.28564-2.60303-3.59473c-0.01953-0.2749-0.01904-5.50537-0.01562-9.84863l0.00195-1.3999h16.76611
			l0.00293,1.39844c0.01416,6.32227,0.0127,9.63379-0.00586,9.84375c-0.0376,1.33691-0.84717,2.51758-2.47168,3.60303
			c-1.97949,1.32764-5.14551,3.0542-5.27832,3.12744L47.36377,52.16309z M41.8457,36.61426
			c-0.00244,3.55322-0.00146,7.93018,0.00928,8.26123c0.02051,0.26807,0.38867,0.7998,1.3667,1.45215
			c1.33691,0.89648,3.19922,2.02197,4.19141,2.6123c1.0415-0.58105,3.02881-1.71484,4.36572-2.61035
			c0.36621-0.24512,1.21631-0.86572,1.23193-1.36523l0.00586-0.13916c0.00977-0.30469,0.00488-4.66943-0.00146-8.21094H41.8457z"/>
	</g>
	<g>
		<path fill="#FFFFFF" d="M73.26709,52.09473l-0.68262-0.39844c-0.12305-0.07275-3.04932-1.78857-5.01172-3.10547
			c-1.65967-1.11084-2.51318-2.2876-2.60449-3.59424c-0.01855-0.21631-0.02344-3.52783-0.01514-9.85254l0.00195-1.39893h16.7627
			l0.00244,1.39795c0.01318,6.32373,0.01221,9.63672-0.00439,9.84717c-0.0293,1.32373-0.8374,2.50879-2.46924,3.60107
			c-1.98389,1.32959-5.15039,3.05371-5.28564,3.12646L73.26709,52.09473z M67.75342,36.54785
			c-0.00244,3.54248-0.00195,7.91309,0.00879,8.25732c0.02148,0.27246,0.39062,0.80225,1.37109,1.45898
			c1.33496,0.89648,3.19385,2.01855,4.18408,2.60791c1.0415-0.58008,3.03174-1.71143,4.37061-2.60791
			c0.36572-0.24561,1.21631-0.86719,1.22803-1.35986l0.00635-0.14355c0.00928-0.30566,0.00488-4.6709-0.00146-8.21289H67.75342z"/>
	</g>
	<g>
		<rect x="31.55566" y="53.15381" fill="#FFFFFF" width="56.05908" height="2.77246"/>
	</g>
	<g>
		<path fill="#FFFFFF" d="M59.92578,87.27539c-0.94482,0-1.48535-0.66602-1.77344-1.02344
			c-0.31787-0.3916-0.47559-0.50391-0.98779-0.51172c-1.52539,0-2.646,0.10254-3.93994,0.21973
			c-1.2666,0.11523-2.70459,0.24512-4.74756,0.29004c-2.02441,0.0459-3.59326-0.03809-3.65967-0.04102l-1.32373-0.07617
			l0.00342-26.25488l1.37109-0.0332c0.4209-0.00977,0.9043-0.00977,1.47266-0.00635c0.80566,0,1.7959,0.00146,3.03955-0.02832
			c0.95166-0.02148,2.06494-0.14014,3.354-0.27734c0.75586-0.08057,1.56885-0.1665,2.44385-0.24561
			c1.80566-0.20459,3.44678,0.13184,3.51709,0.14502c0.5,0.11719,0.92432,0.27734,1.27979,0.45898
			c0.34766-0.17822,0.76416-0.33496,1.26123-0.45215c0.10156-0.02002,1.74219-0.3584,3.58057-0.14893
			c0.84766,0.07617,1.66406,0.16211,2.42383,0.24463c1.2832,0.13525,2.39258,0.25391,3.33691,0.27539
			c1.24414,0.03125,2.23535,0.03125,3.0415,0.02832c0.57227,0,1.05225-0.00342,1.4751,0.00635l1.36816,0.0332l0.00391,26.25488
			l-1.32275,0.07617c-0.06592,0.00098-1.63379,0.08691-3.65918,0.04102c-2.0415-0.04492-3.47852-0.1748-4.74609-0.29004
			c-1.31885-0.12305-2.4541-0.21973-4.02002-0.21973c-0.54688,0-0.69971,0.17285-1.0332,0.55762
			C61.3667,86.66309,60.83496,87.27539,59.92578,87.27539z M57.16357,82.93555c0.02881,0,0.05957,0,0.08838,0
			c1.38135,0.00391,2.20166,0.60449,2.69629,1.1123c0.51807-0.5127,1.35254-1.1084,2.76416-1.1123
			c1.72363,0.02148,2.95068,0.11035,4.27832,0.23145c1.2832,0.11719,2.61035,0.2373,4.55811,0.28223
			c0.80469,0.01758,1.53467,0.01465,2.11523,0.00488l-0.00342-20.81348c-0.16846,0.00488-0.35059,0-0.53809,0
			c-0.72705,0-1.58447-0.00293-2.61279-0.0293c-1.05811-0.02539-2.2207-0.14844-3.56787-0.29102
			c-0.74268-0.0791-1.54395-0.16602-2.40625-0.24023c-1.41553-0.16504-2.68457,0.0918-2.69775,0.09668
			c-0.72949,0.17188-0.95654,0.4707-0.96484,0.48438l-0.78711-0.46289l-0.89893,0.51855
			c0.00098,0.00195,0.00098,0.00293,0.00098,0.00293c-0.00684,0-0.30713-0.36621-1.1001-0.55078l0,0
			c-0.00439,0.00195-1.2627-0.24609-2.62744-0.09375c-0.89258,0.0791-1.68799,0.16602-2.4292,0.24414
			c-1.35059,0.14355-2.5166,0.2666-3.58496,0.29199c-1.27246,0.03125-2.28223,0.0293-3.10938,0.0293c-0.01172,0-0.0249,0-0.03711,0
			L46.29639,83.4541c0.58203,0.00977,1.31543,0.0127,2.11621-0.00488c1.94922-0.04492,3.27637-0.16504,4.55859-0.28223
			C54.27686,83.0498,55.51123,82.93555,57.16357,82.93555z"/>
	</g>
	<g>
		<rect x="40.45215" y="39.28906" fill="#FFFFFF" width="13.85938" height="2.33154"/>
	</g>
	<g>
		<rect x="40.45215" y="39.0542" fill="#FFFFFF" width="13.85938" height="2.80176"/>
	</g>
	<g>
		<rect x="58.72021" y="53.65039" fill="#FFFFFF" width="2.33203" height="47.13867"/>
	</g>
	<g>
		<rect x="58.83545" y="53.65039" fill="#FFFFFF" width="2.10107" height="47.13867"/>
	</g>
	<g>
		<polygon fill="#FFFFFF" points="79.23779,44.34863 73.08057,40.24414 67.43311,44.32422 66.06738,42.43408 73.02832,37.40576 
			80.53076,42.40967 		"/>
	</g>
	<g>
		<polygon fill="#FFFFFF" points="79.30225,44.54443 73.28027,40.53125 67.76807,44.51562 66.12695,42.24365 73.2168,37.11865 
			80.85596,42.21289 		"/>
	</g>
	<g>
		<path fill="#FFFFFF" d="M71.03223,66.8584c-0.39893-0.01074-1.53906-0.04199-2.55664-0.06934l-0.97412-0.02832
			c-0.56104-0.01367-1.20654-0.08105-1.95068-0.16211c-0.37061-0.03906-0.76514-0.08203-1.18994-0.12207
			c-0.22314-0.02344-0.43018-0.02832-0.61426-0.01758l-0.06006-1.47266c0.25-0.01367,0.53076-0.00879,0.82129,0.02441
			c0.42139,0.04004,0.82422,0.08105,1.20068,0.12402c0.69824,0.07227,1.30225,0.1416,1.83105,0.15332l0.97705,0.02637
			c1.01416,0.03027,2.15088,0.06152,2.54785,0.07129L71.03223,66.8584z"/>
	</g>
	<g>
		<path fill="#FFFFFF" d="M71.03467,71.34766l-3.52783-0.08984c-0.5542-0.0127-1.18555-0.0791-1.9126-0.15332
			c-0.38086-0.04297-0.79102-0.08691-1.23193-0.125c-0.22998-0.02539-0.43994-0.0332-0.62402-0.02637l-0.04346-1.47266
			c0.25098-0.0127,0.52783,0,0.81689,0.03125c0.43262,0.04199,0.8501,0.08398,1.23877,0.12598
			c0.68066,0.07227,1.27148,0.13477,1.78906,0.15039L71.0625,69.875L71.03467,71.34766z"/>
	</g>
	<g>
		<path fill="#FFFFFF" d="M71.03809,75.84473c-0.28906-0.00293-0.96338-0.02148-1.69922-0.04297l-1.83301-0.04883
			c-0.54785-0.00977-1.17627-0.07422-1.89746-0.15332c-0.38525-0.04004-0.7998-0.08594-1.24512-0.12402
			c-0.22461-0.02148-0.43604-0.02832-0.62061-0.02344l-0.05273-1.47363c0.25-0.00977,0.52637,0,0.81445,0.0293
			c0.44482,0.04102,0.86719,0.08398,1.26025,0.12695c0.67334,0.07129,1.2583,0.1377,1.771,0.14746l1.84424,0.04785
			c0.729,0.01953,1.39453,0.03906,1.67969,0.04395L71.03809,75.84473z"/>
	</g>
	<g>
		<path fill="#FFFFFF" d="M71.03467,80.34473c-0.51025-0.00977-2.2373-0.05664-3.36377-0.08594l-0.16748-0.00488
			c-0.5498-0.01367-1.17676-0.0791-1.89844-0.15723c-0.38525-0.03906-0.79785-0.08398-1.24268-0.125
			c-0.22754-0.02539-0.43994-0.03125-0.61963-0.02539l-0.05273-1.47168c0.25146-0.01172,0.53223,0,0.82178,0.0332
			c0.43555,0.03906,0.85645,0.08203,1.24854,0.125c0.67773,0.07227,1.26416,0.13574,1.78027,0.14648l0.16992,0.00488
			c1.12305,0.03027,2.84326,0.07617,3.35205,0.08789L71.03467,80.34473z"/>
	</g>
	<g>
		<path fill="#FFFFFF" d="M48.86035,66.81836l-0.03174-1.47266c0.51953-0.01074,2.29834-0.05762,3.41797-0.08691
			c0.65283-0.01367,1.2666-0.08105,1.98047-0.1582c0.36523-0.04004,0.75391-0.08301,1.17041-0.12305
			c0.25684-0.02441,0.51807-0.04102,0.75098-0.03125l-0.01709,1.47266c-0.18896-0.00293-0.38477,0.00488-0.58838,0.02637
			c-0.41699,0.04004-0.79932,0.08105-1.1582,0.11914c-0.75488,0.08203-1.40674,0.15332-1.99707,0.16309
			C51.16309,66.76074,49.38232,66.80859,48.86035,66.81836z"/>
	</g>
	<g>
		<path fill="#FFFFFF" d="M48.86035,71.31738l-0.03174-1.47363l3.52881-0.09082c0.52881-0.01465,1.13281-0.0791,1.83252-0.15723
			c0.375-0.03711,0.77686-0.08398,1.20752-0.125c0.27832-0.01953,0.53906-0.02832,0.77393-0.01855l-0.0625,1.4707
			c-0.18262-0.00781-0.38281,0.00195-0.58496,0.0166c-0.41211,0.04004-0.80664,0.08105-1.17432,0.12207
			c-0.74707,0.08105-1.39062,0.15039-1.95703,0.16406L48.86035,71.31738z"/>
	</g>
	<g>
		<path fill="#FFFFFF" d="M48.85303,75.80664l-0.01807-1.47363c0.53711-0.00684,2.41162-0.05957,3.51904-0.09082
			c0.52002-0.00781,1.12207-0.07031,1.81982-0.14648c0.38037-0.03809,0.78955-0.08301,1.22803-0.12207
			c0.24316-0.03027,0.50635-0.03613,0.74658-0.03027l-0.01709,1.47266c-0.18115,0-0.37646,0-0.57617,0.02344
			c-0.4541,0.04102-0.85254,0.08203-1.22656,0.12305c-0.7334,0.07617-1.36816,0.14355-1.94482,0.15039
			C51.28027,75.74414,49.39355,75.80078,48.85303,75.80664z"/>
	</g>
	<g>
		<path fill="#FFFFFF" d="M48.85498,80.30762l-0.021-1.46973c0.50586-0.00684,2.19971-0.05664,3.31934-0.08594l0.20166-0.00488
			c0.53857-0.01367,1.15039-0.08301,1.85889-0.15723c0.36914-0.04102,0.76172-0.08398,1.18213-0.12402
			c0.25146-0.02734,0.51221-0.0332,0.74854-0.02734l-0.01758,1.47168c-0.18066,0-0.37891-0.00195-0.5791,0.02148
			c-0.42529,0.04004-0.81201,0.08301-1.17383,0.12207c-0.75732,0.08301-1.41113,0.15039-1.98193,0.16504l-0.19727,0.00684
			C51.06738,80.25684,49.36328,80.30176,48.85498,80.30762z"/>
	</g>
	<g>
		<g>
			<rect x="40.74316" y="63.61328" fill="#FFFFFF" width="3.05127" height="3.34863"/>
		</g>
		<g>
			<rect x="40.74316" y="71.3623" fill="#FFFFFF" width="3.21533" height="3.35547"/>
		</g>
		<g>
			<rect x="40.74316" y="78.2959" fill="#FFFFFF" width="3.05127" height="3.34082"/>
		</g>
		<g>
			<rect x="75.87061" y="64.27441" fill="#FFFFFF" width="3.05273" height="3.34473"/>
		</g>
		<g>
			<rect x="75.87061" y="72.02246" fill="#FFFFFF" width="3.21533" height="3.35059"/>
		</g>
		<g>
			<rect x="75.87061" y="78.95312" fill="#FFFFFF" width="3.05273" height="3.3457"/>
		</g>
		<g>
			<g>
				<g>
					<path fill="#FFFFFF" d="M12.90137,54.23145c0.104,0.59082,0.1792,1.22314,0.14209,1.82861
						c-0.1626,2.57666-1.58154,4.28174-4.30811,4.11182c-2.76221-0.17529-4.20459-1.93799-4.03809-4.63477
						c0.03564-0.5249,0.18262-1.21143,0.44824-1.78027l1.35742,0.19873c-0.38623,0.58545-0.50146,1.12402-0.53564,1.69385
						c-0.10303,1.64209,1.10254,2.74609,2.75732,2.8501c1.64258,0.104,2.93701-0.82666,3.04443-2.52002
						c0.0415-0.62402-0.05371-1.37402-0.2251-1.76221L12.90137,54.23145z"/>
				</g>
			</g>
			<g>
				<g>
					<path fill="#FFFFFF" d="M6.58887,45.42676c0.68066-2.40674,2.71191-3.28613,5.06445-2.61719
						c2.34961,0.66357,3.66211,2.47998,2.97363,4.90283c-0.69824,2.45947-2.72412,3.28662-5.10986,2.6123
						C7.13281,49.64453,5.89404,47.86865,6.58887,45.42676z M13.40332,47.36426c0.44629-1.56885-0.80322-2.55469-2.20605-2.95264
						c-1.37158-0.39209-2.95215-0.1626-3.3877,1.36572c-0.43164,1.52441,0.79297,2.55029,2.16357,2.93799
						C11.37402,49.11572,12.95605,48.93555,13.40332,47.36426z"/>
				</g>
			</g>
			<g>
				<g>
					<path fill="#FFFFFF" d="M9.7998,37.06836l0.8125-1.52002c0.80176-1.5127,1.70947-3.34473,3.69434-2.2876
						c0.83691,0.44531,1.2373,1.37207,0.88232,2.32959l0.01904,0.0166c0.23535-0.37061,0.74268-0.38379,1.13574-0.35596
						l3.38916,0.35596l-0.83594,1.57227l-2.67822-0.34131c-0.64014-0.08057-0.94043-0.00879-1.25732,0.5835l-0.24023,0.45508
						l2.9624,1.57959l-0.75146,1.41162L9.7998,37.06836z M13.59521,37.27881l0.24756-0.46387
						c0.37256-0.69385,0.69434-1.54639-0.19629-2.01758c-0.85889-0.45898-1.34863,0.29102-1.72559,0.99512l-0.24658,0.46387
						L13.59521,37.27881z"/>
				</g>
			</g>
			<g>
				<g>
					<path fill="#FFFFFF" d="M15.26074,27.83594l1.25586-1.51025l6.58936,1.51855l0.01611-0.01709l-4.65186-3.85645l0.97461-1.1792
						l6.22266,5.15918l-1.24707,1.50195l-6.59863-1.51074l-0.0127,0.01807l4.65039,3.85986l-0.97705,1.17529L15.26074,27.83594z"/>
				</g>
			</g>
			<g>
				<g>
					<path fill="#FFFFFF" d="M23.3584,19.05713l3.64404-2.9668l0.80566,0.98584l-2.41162,1.95947l1.25977,1.54541l2.20557-1.79639
						l0.80469,0.98535l-2.20654,1.79834l1.43359,1.76123l2.42529-1.97607l0.80273,0.98779l-3.66406,2.98438L23.3584,19.05713z"/>
				</g>
			</g>
			<g>
				<g>
					<path fill="#FFFFFF" d="M31.28662,13.23047l1.39551-0.78857l3.33838,5.93359l2.69434-1.51855l0.62451,1.1123l-4.09131,2.29932
						L31.28662,13.23047z"/>
				</g>
			</g>
			<g>
				<g>
					<path fill="#FFFFFF" d="M39.49316,9.11426l1.50537-0.54541l2.31445,6.39746l2.90771-1.04883l0.43652,1.1958l-4.41455,1.59766
						L39.49316,9.11426z"/>
				</g>
			</g>
			<g>
				<g>
					<path fill="#FFFFFF" d="M52.37598,5.60352l1.5957-0.13379l0.38281,4.65381c0.11279,1.36914,0.62109,2.23828,1.8418,2.13477
						c1.21484-0.09863,1.57324-1.03711,1.4585-2.40625L57.26758,5.1958l1.59619-0.13135l0.42578,5.14746
						c0.18066,2.1582-0.95312,3.14648-2.99072,3.31836c-2.03369,0.16748-3.31787-0.62158-3.49658-2.77979L52.37598,5.60352z"/>
				</g>
			</g>
			<g>
				<g>
					<path fill="#FFFFFF" d="M64.3501,5.1958l1.9458,0.26318l2.20166,6.39697l0.02393,0.00293l0.80664-5.99219l1.51855,0.20703
						l-1.08154,8.00586l-1.93408-0.25879l-2.21338-6.39697l-0.02344-0.00146l-0.8042,5.98486l-1.51855-0.20215L64.3501,5.1958z"/>
				</g>
			</g>
			<g>
				<g>
					<path fill="#FFFFFF" d="M75.80469,7.38965l1.52441,0.47852l-2.41895,7.71094l-1.52588-0.47949L75.80469,7.38965z"/>
				</g>
			</g>
			<g>
				<g>
					<path fill="#FFFFFF" d="M81.4873,9.30225l1.53027,0.77588l-1.03906,6.58301l0.02051,0.01172l4.66797-4.74854l1.41504,0.71191
						l-6.04102,6.00244l-1.75293-0.88477L81.4873,9.30225z"/>
				</g>
			</g>
			<g>
				<g>
					<path fill="#FFFFFF" d="M91.96484,15.26514l3.70557,2.90039l-0.78223,0.99951l-2.44629-1.91211l-1.22705,1.57031
						l2.23828,1.75146l-0.7832,1.00488l-2.23926-1.75342l-1.39941,1.78906l2.4668,1.92871l-0.7832,1.00195l-3.72363-2.91162
						L91.96484,15.26514z"/>
				</g>
			</g>
			<g>
				<g>
					<path fill="#FFFFFF" d="M99.40576,21.65967l1.13623,1.29346c1.12988,1.28906,2.521,2.78613,0.8335,4.27051
						c-0.71387,0.625-1.7207,0.6709-2.49561,0.00244l-0.01904,0.0127c0.26318,0.34814,0.09912,0.82861-0.06592,1.18164
						l-1.5332,3.04688l-1.17627-1.33789l1.26367-2.38721c0.30273-0.56689,0.34326-0.87305-0.10352-1.37744l-0.33545-0.3877
						l-2.52637,2.21045l-1.05469-1.19971L99.40576,21.65967z M97.86572,25.13525l0.34668,0.39697
						c0.5166,0.59082,1.20117,1.19238,1.95801,0.52637c0.73193-0.63867,0.20459-1.36328-0.32324-1.96338l-0.34814-0.39551
						L97.86572,25.13525z"/>
				</g>
			</g>
			<g>
				<g>
					<path fill="#FFFFFF" d="M106.94824,34.47314c-0.06836-0.54492-0.24072-1.09229-0.52637-1.57227
						c-0.27783-0.47217-0.84668-0.95508-1.60449-0.51025c-1.20947,0.71387,1.08057,3.41992-1.25098,4.7998
						c-1.52344,0.90137-2.80762,0.05371-3.62549-1.33008c-0.44287-0.74854-0.54102-1.14062-0.7749-1.91748l1.33301-0.61865
						c0.02246,0.62695,0.17334,1.26758,0.48926,1.80664c0.31104,0.5249,0.98877,1.06201,1.6167,0.68652
						c1.33057-0.78174-1-3.46289,1.30322-4.82471c1.55371-0.91943,2.82666-0.06445,3.54053,1.14209
						c0.34717,0.58838,0.59424,1.18701,0.72119,1.78613L106.94824,34.47314z"/>
				</g>
			</g>
			<g>
				<g>
					<path fill="#FFFFFF" d="M110.49072,38.49463l0.60645,1.48193l-7.48682,3.05127l-0.60107-1.479L110.49072,38.49463z"/>
				</g>
			</g>
			<g>
				<g>
					<path fill="#FFFFFF" d="M111.88086,46.49561l-0.54785-2.21875l1.23877-0.30176l1.47461,5.98877l-1.23779,0.30273
						l-0.54541-2.21875l-6.61035,1.62793l-0.38232-1.55469L111.88086,46.49561z"/>
				</g>
			</g>
			<g>
				<g>
					<path fill="#FFFFFF" d="M109.94336,56.90674l4.71533-3.17529l0.10742,1.8667l-3.28613,2.06787l3.49561,1.72998l0.09277,1.68799
						l-5.03613-2.57959l-3.19434,0.17676l-0.08691-1.59766L109.94336,56.90674z"/>
				</g>
			</g>
			<g>
				<g>
					<path fill="#FFFFFF" d="M14.1582,70.87891l1.23877,4.2998l-1.22461,0.35449l-0.79395-2.75293l-1.91113,0.55469l0.75342,2.61426
						l-1.22217,0.35449l-0.75439-2.61914l-3.40576,0.98535l-0.4502-1.55273L14.1582,70.87891z"/>
				</g>
			</g>
			<g>
				<g>
					<path fill="#FFFFFF" d="M17.94434,80.78809c1.11572,2.26953,0.20508,4.30371-1.99268,5.37793
						c-2.18945,1.07715-4.38379,0.59863-5.50977-1.69238c-1.14111-2.31348-0.18896-4.30273,2.03467-5.39062
						C14.70117,77.99219,16.81299,78.49414,17.94434,80.78809z M11.58594,83.91309c0.72705,1.48535,2.31299,1.3877,3.62354,0.74121
						c1.28027-0.62598,2.29785-1.86426,1.58984-3.30176c-0.70312-1.43555-2.30371-1.38086-3.58203-0.75586
						C11.90527,81.23926,10.85693,82.43262,11.58594,83.91309z"/>
				</g>
			</g>
			<g>
				<g>
					<path fill="#FFFFFF" d="M21.38184,87.15137l1.00586,1.26074l-3.6499,2.90039c-1.08105,0.85254-1.51465,1.7627-0.74561,2.72754
						c0.76611,0.97266,1.74658,0.75293,2.82324-0.10645l3.65283-2.90332l1.00781,1.26758l-4.04492,3.20996
						c-1.69238,1.34375-3.15234,0.94531-4.43994-0.66895c-1.28418-1.62012-1.34668-3.13672,0.34766-4.48242L21.38184,87.15137z"/>
				</g>
			</g>
			<g>
				<g>
					<path fill="#FFFFFF" d="M28.01172,94.88574l1.54004,1.25391l-1.45312,6.62012l0.01807,0.01074l3.8252-4.6709l1.19971,0.97461
						l-5.11963,6.25586l-1.52832-1.24902l1.44238-6.63184l-0.02051-0.01172l-3.82373,4.67285l-1.19727-0.97559L28.01172,94.88574z"
						/>
				</g>
			</g>
			<g>
				<g>
					<path fill="#FFFFFF" d="M36.20752,101.06152l1.97314,0.98926c2.20264,1.1084,3.78076,2.83203,2.33838,5.7002
						c-1.43848,2.86426-3.76514,2.62988-5.96924,1.52051l-1.9707-0.98535L36.20752,101.06152z M34.59424,107.875l0.80566,0.4043
						c1.20654,0.60156,2.82129,0.28711,3.61377-1.28711c0.78857-1.56836,0.08057-3.05469-1.12744-3.66211l-0.80566-0.40625
						L34.59424,107.875z"/>
				</g>
			</g>
			<g>
				<g>
					<path fill="#FFFFFF" d="M45.55371,105.21777l4.59424,1.22949l-0.3291,1.22656l-3.0332-0.80664l-0.51123,1.9209l2.77686,0.74121
						l-0.32764,1.22754l-2.77881-0.73926l-0.5835,2.19531l3.05615,0.81152l-0.32666,1.23145l-4.61768-1.23145L45.55371,105.21777z"
						/>
				</g>
			</g>
			<g>
				<g>
					<path fill="#FFFFFF" d="M53.70264,107.08008l2.19971,0.12695c2.46289,0.13672,4.59521,1.09375,4.41211,4.29297
						c-0.18311,3.20312-2.4082,3.91504-4.87256,3.77832l-2.19824-0.12598L53.70264,107.08008z M54.9248,113.97363l0.90039,0.04785
						c1.34912,0.07812,2.70654-0.85449,2.81006-2.61621c0.09619-1.75391-1.14795-2.83398-2.49512-2.90918l-0.89551-0.05176
						L54.9248,113.97363z"/>
				</g>
			</g>
			<g>
				<g>
					<path fill="#FFFFFF" d="M68.52686,106.49512l1.78076-0.37891l4.79053,7.23242l-1.75098,0.37793l-1.0625-1.66895
						l-3.19434,0.69336l-0.30029,1.95215l-1.63477,0.35156L68.52686,106.49512z M69.73486,107.89648l-0.02246,0.00391
						l-0.43896,3.50195l2.30176-0.49219L69.73486,107.89648z"/>
				</g>
			</g>
			<g>
				<g>
					<path fill="#FFFFFF" d="M76.89795,110.91895l1.51758-0.5498l0.55322,1.52148l-1.51709,0.54785L76.89795,110.91895z"/>
				</g>
			</g>
			<g>
				<g>
					<path fill="#FFFFFF" d="M78.95068,103.26367l1.93652-1.0498c2.17334-1.18359,4.4873-1.48242,6.0166,1.33496
						c1.52637,2.82324,0.00537,4.5918-2.16504,5.76758l-1.9375,1.0498L78.95068,103.26367z M83.61719,108.47754l0.79102-0.42383
						c1.18652-0.64844,1.8501-2.15039,1.01318-3.70215c-0.83838-1.5498-2.46436-1.8125-3.65186-1.16406l-0.7915,0.42578
						L83.61719,108.47754z"/>
				</g>
			</g>
			<g>
				<g>
					<path fill="#FFFFFF" d="M89.24512,104.76074l1.3291-0.92578l0.92383,1.33203l-1.32617,0.92383L89.24512,104.76074z"/>
				</g>
			</g>
			<g>
				<g>
					<path fill="#FFFFFF" d="M92.57812,93.70508l1.01611-1.00488l5.67676,5.75684l-1.14893,1.13574l-4.38281-4.44141
						l-0.18994,1.74414l-1.31543-0.18164L92.57812,93.70508z"/>
				</g>
			</g>
			<g>
				<g>
					<path fill="#FFFFFF" d="M99.81494,91.39453c-0.77246,0.43262-1.62402,0.46387-2.30664-0.03613
						c-1.16016-0.86523-1.05957-2.14941-0.18994-3.32715c0.84521-1.14062,2.0791-1.81934,3.1665-1.0166
						c0.58838,0.43652,1.00342,1.2998,0.76123,2.22754l0.00977,0.00879c1.03076-0.55859,1.87988-0.53516,2.62256,0.01465
						c1.31543,0.96875,1.19482,2.3418,0.24609,3.62305c-0.93408,1.25781-2.2373,1.87793-3.55518,0.89453
						c-0.72949-0.5332-0.92773-1.31543-0.7373-2.375L99.81494,91.39453z M100.19775,89.84473
						c0.1377-0.45898-0.00635-1.12207-0.40674-1.41602c-0.48291-0.35938-1.04639-0.30078-1.40869,0.18848
						c-0.34814,0.47461-0.4375,1.13867,0.08057,1.52441C99.0249,90.55273,99.70264,90.16309,100.19775,89.84473z M103.15381,92.1709
						c0.38965-0.51855,0.36133-1.16602-0.17822-1.56836c-0.64014-0.47168-1.35596-0.15234-1.93115,0.25195
						c-0.11719,0.62891-0.08643,1.20996,0.46045,1.61816C102.0498,92.875,102.771,92.68848,103.15381,92.1709z"/>
				</g>
			</g>
			<g>
				<g>
					<path fill="#FFFFFF" d="M104.13818,79.62793c-0.35547,0.30078-0.67383,0.62402-0.91846,1.1123
						c-0.61963,1.24316,0.32715,2.25,1.3833,2.83398l0.03223-0.0166c-0.3291-0.58691-0.33252-1.14355-0.02979-1.75391
						c0.68018-1.36328,1.92139-1.6709,3.2583-1.00684c1.56543,0.78711,2.21729,2.0625,1.40527,3.69336
						c-1.00195,2.00391-2.89062,1.61816-4.58691,0.76953c-1.96387-0.98047-3.80078-2.68359-2.63477-5.01562
						c0.2583-0.52539,0.59082-0.98438,1.01172-1.3916L104.13818,79.62793z M106.40625,84.3125
						c0.68164,0.3418,1.42773,0.35156,1.78076-0.36328c0.33691-0.66504-0.1748-1.27051-0.81787-1.59082
						c-0.70605-0.35156-1.49951-0.3916-1.84766,0.30371C105.17188,83.36133,105.6792,83.94922,106.40625,84.3125z"/>
				</g>
			</g>
			<g>
				<g>
					<path fill="#FFFFFF" d="M106.83643,71.01074l-0.8833,2.97754l1.6416,0.52832c0.01807-0.19043,0.04541-0.43555,0.13623-0.72852
						c0.3208-1.08691,1.25098-2.33789,3.25732-1.7373c1.4541,0.43066,2.32812,1.79395,1.73291,3.78809
						c-0.17676,0.59863-0.48438,1.26367-0.75684,1.73926l-1.37891-0.4502c0.26904-0.3291,0.66016-0.78906,0.85889-1.45898
						c0.24121-0.8125,0.11572-1.76953-0.87207-2.05859c-1.00098-0.29883-1.60498,0.48145-1.86914,1.36621
						c-0.14307,0.47852-0.20996,0.95117-0.20166,1.44922l-4.13867-1.31641l1.31982-4.43848L106.83643,71.01074z"/>
				</g>
			</g>
		</g>
	</g>
</g>
</svg>
