<?xml version="1.0" encoding="utf-8"?>
<!-- Generator: Adobe Illustrator 15.0.0, SVG Export Plug-In . SVG Version: 6.00 Build 0)  -->
<!DOCTYPE svg PUBLIC "-//W3C//DTD SVG 1.1//EN" "http://www.w3.org/Graphics/SVG/1.1/DTD/svg11.dtd">
<svg version="1.1" id="Layer_1" xmlns="http://www.w3.org/2000/svg" xmlns:xlink="http://www.w3.org/1999/xlink" x="0px" y="0px"
	 width="160px" height="60px" viewBox="0 0 160 60" enable-background="new 0 0 160 60" xml:space="preserve">
<g>
	<path fill="#9B9B9B" d="M20.258,36.615l0.021-18.925l4.217,0.005l-0.021,18.927L20.258,36.615z"/>
	<path fill="#9B9B9B" d="M28.407,36.625l0.023-18.926l4.218,0.005L32.63,33.593l8.745-0.385l-0.004,3.432L28.407,36.625z"/>
	<path fill="#9B9B9B" d="M55.259,37.048l-4.487-8.104l-2.363-0.002l-0.009,7.704l-4.219-0.003l0.023-18.926l8.463,0.009
		c4.079,0.005,5.987,2.82,5.982,5.378c-0.003,2.11-1.296,4.442-3.886,5.395l1.46,1.802l3.256,5.514L55.259,37.048z M52.664,21.102
		l-4.246-0.286l-0.006,5.033l3.712-0.275c1.35-0.112,2.307-1.095,2.309-2.473C54.436,21.892,53.705,21.16,52.664,21.102z"/>
	<path fill="#9B9B9B" d="M75.419,36.959c-2.389-0.002-4.893-0.567-6.662-1.273l-0.843-0.337l1.325-3.261l1.77,0.62
		c0.872,0.311,2.588,0.706,4.189,0.708c1.771,0,3.347-0.502,3.348-2.219c0.005-4.246-9.475-0.881-9.468-8.08
		c0.008-4.443,3.3-5.563,6.783-5.56c1.521,0.001,3.094,0.199,4.444,0.454l2.109,0.398l-0.905,3.371l-2.727-0.592
		c-0.758-0.17-1.77-0.339-2.7-0.34c-1.462-0.002-2.782,0.445-2.785,2.273c-0.005,3.262,9.477,0.519,9.467,8.083
		C82.759,35.59,79.214,36.963,75.419,36.959z"/>
	<path fill="#9B9B9B" d="M95.974,36.59c-1.127,0.364-2.28,0.56-3.375,0.557c-3.853-0.005-7.169-2.227-7.163-7.065
		c0.006-5.567,2.932-7.336,6.981-7.331c0.956,0,1.997,0.086,3.036,0.256l2.307,0.396l-0.594,3.233l-2.756-0.368
		c-0.788-0.113-1.489-0.17-2.053-0.171c-1.856-0.002-2.7,0.756-2.704,3.906c-0.003,2.669,1.179,3.853,3.032,3.854
		c0.619,0,1.294-0.111,2.025-0.362l2.531-0.84l1.234,3.12L95.974,36.59z"/>
	<path fill="#9B9B9B" d="M109.805,36.719l0.012-9.788c0-0.729-0.562-0.956-1.237-0.956c-0.336,0-0.675,0.055-1.013,0.109
		l-2.334,0.448l-0.011,10.18l-4.218-0.004l0.025-20.809l4.217,0.004l-0.01,8.099l1.491-0.73c0.815-0.392,1.715-0.588,2.615-0.587
		c2.391,0.004,4.694,1.468,4.691,4.337l-0.012,9.701L109.805,36.719z"/>
	<path fill="#9B9B9B" d="M124.424,37.243c-5.82-0.007-7.166-3.552-7.161-7.039c0.003-3.207,0.796-7.423,7.178-7.417
		c6.41,0.007,7.224,4.199,7.219,7.433C131.654,33.708,130.272,37.249,124.424,37.243z M124.438,26.048
		c-2.277-0.002-2.954,0.954-2.957,4.162c-0.004,2.921,0.839,3.767,2.948,3.769c2.165,0.002,3.009-0.868,3.013-3.764
		C127.444,27.038,126.771,26.051,124.438,26.048z"/>
	<path fill="#9B9B9B" d="M141.35,37.26c-5.819-0.005-7.166-3.55-7.162-7.037c0.004-3.207,0.795-7.424,7.18-7.417
		c6.409,0.008,7.222,4.2,7.219,7.434C148.581,33.725,147.198,37.269,141.35,37.26z M141.362,26.067
		c-2.277-0.002-2.951,0.955-2.956,4.161c-0.004,2.924,0.839,3.768,2.947,3.771c2.165,0.002,3.01-0.87,3.013-3.764
		C144.371,27.057,143.697,26.071,141.362,26.067z"/>
	<path fill="#9B9B9B" d="M151.81,36.767l0.022-20.81l4.219,0.005l-0.023,20.808L151.81,36.767z"/>
</g>
<g>
	<path fill="#9B9B9B" d="M23.647,45.748l-0.417-1.124l-0.17,0.021l-1.283-0.004l-0.17-0.02l-0.422,1.123l-0.936-0.215l1.692-4.382
		l0.968,0.002l1.674,4.389L23.647,45.748z M22.619,42.863l-0.197-0.69H22.41l-0.197,0.689l-0.316,0.975l0.172-0.019h0.706
		l0.164,0.021L22.619,42.863z"/>
	<path fill="#9B9B9B" d="M27.889,45.664l-1.599-0.005l0.009-4.503l1.599,0.003c1.165,0.001,2.14,0.619,2.136,2.2
		C30.031,44.824,29.125,45.665,27.889,45.664z M27.908,41.95l-0.63-0.063l-0.005,3.045l0.622-0.059
		c0.55-0.052,1.153-0.398,1.156-1.516C29.054,42.232,28.504,42.011,27.908,41.95z"/>
	<path fill="#9B9B9B" d="M34.158,45.674l-0.819-0.002l-1.727-4.321l0.911-0.284l0.997,2.484l0.221,0.809l0.013,0.001l0.225-0.809
		l1.008-2.474l0.91,0.282L34.158,45.674z"/>
	<path fill="#9B9B9B" d="M40.271,45.78l-0.418-1.125l-0.169,0.02L38.4,44.672l-0.171-0.02l-0.422,1.122l-0.936-0.215l1.692-4.382
		l0.969,0.003l1.675,4.387L40.271,45.78z M39.242,42.894l-0.197-0.689l-0.012-0.001l-0.197,0.689l-0.316,0.976l0.171-0.02
		l0.707,0.001l0.162,0.021L39.242,42.894z"/>
	<path fill="#9B9B9B" d="M45.573,45.696l-1.366-2.244L43.9,42.769l-0.013-0.001l0.014,0.716l-0.006,2.209l-0.981-0.002l0.009-4.505
		l0.929,0.002l1.365,2.246l0.301,0.683h0.013L45.519,43.4l0.003-2.209l0.983,0.001l-0.008,4.506L45.573,45.696z"/>
	<path fill="#9B9B9B" d="M51.249,45.646c-0.393,0.101-0.747,0.153-1.063,0.151c-1.119,0-1.722-0.692-1.719-2.344
		c0.005-1.781,0.66-2.335,1.839-2.334c0.321,0.002,0.675,0.042,1.063,0.108l0.386,0.07L51.59,42.1l-0.387-0.067
		c-0.341-0.061-0.628-0.104-0.858-0.104c-0.649-0.001-0.885,0.334-0.887,1.525c-0.002,1.091,0.168,1.519,0.797,1.521
		c0.195,0,0.431-0.046,0.727-0.12l0.608-0.151l0.275,0.784L51.249,45.646z"/>
	<path fill="#9B9B9B" d="M53.831,45.712l0.01-4.506l0.98,0.003l-0.008,4.505L53.831,45.712z"/>
	<path fill="#9B9B9B" d="M59.57,45.722l-1.364-2.244l-0.307-0.683l-0.014-0.001l0.012,0.715l-0.004,2.209l-0.983-0.001l0.009-4.505
		l0.931,0.002l1.365,2.246l0.3,0.684h0.012l-0.013-0.719l0.004-2.209l0.985,0.004l-0.01,4.505L59.57,45.722z"/>
	<path fill="#9B9B9B" d="M65.37,45.62c-0.394,0.133-0.754,0.213-1.083,0.211c-1.361-0.001-1.825-1.14-1.823-2.351
		c0.004-1.427,0.393-2.344,1.853-2.341c0.354-0.001,0.701,0.056,1.049,0.115l0.427,0.076l-0.168,0.803l-0.425-0.075
		c-0.307-0.054-0.55-0.088-0.851-0.088c-0.662-0.001-0.891,0.244-0.896,1.51c-0.001,1.079,0.327,1.513,0.869,1.515
		c0.275,0.001,0.538-0.085,0.787-0.173l0.002-0.881l-0.872,0.092l0.003-0.817l1.852,0.002l-0.003,2.157L65.37,45.62z"/>
	<path fill="#9B9B9B" d="M73.063,41.986l-0.006,3.761l-0.982,0.001l0.006-3.762l-1.264,0.069l0.002-0.817l3.509,0.008l-0.001,0.817
		L73.063,41.986z"/>
	<path fill="#9B9B9B" d="M78.774,45.759l0.005-1.942l-1.638-0.003l-0.003,1.942l-0.981-0.003l0.008-4.504l0.983,0.002L77.145,43
		l1.637,0.004l0.003-1.75l0.983,0.003l-0.01,4.505L78.774,45.759z"/>
	<path fill="#9B9B9B" d="M81.856,45.763l0.01-4.505l3.018,0.007v0.816l-2.036-0.099l-0.003,1.111l1.592-0.082l-0.002,0.843
		l-1.591-0.09l-0.002,1.278l2.089-0.089l-0.001,0.816L81.856,45.763z"/>
	<path fill="#9B9B9B" d="M93.835,45.787l-0.944-0.001l-0.521-2.323l-0.128-0.957h-0.02l-0.139,0.955l-0.517,2.322l-0.949-0.002
		l-1.223-4.426l0.978-0.173l0.598,2.471l0.102,0.837h0.021l0.106-0.837l0.528-2.374l1.003,0.001l0.532,2.378l0.103,0.836h0.02
		l0.106-0.837l0.601-2.476l0.976,0.176L93.835,45.787z"/>
	<path fill="#9B9B9B" d="M98.684,45.895c-1.931-0.003-2.047-1.522-2.045-2.352c0-0.837,0.122-2.343,2.056-2.34
		c1.931,0.004,2.032,1.524,2.031,2.348C100.724,44.367,100.616,45.899,98.684,45.895z M98.691,42.028
		c-0.917-0.003-1.069,0.581-1.07,1.519c-0.003,0.929,0.153,1.526,1.064,1.526c1.021,0.003,1.056-0.802,1.056-1.524
		C99.744,42.82,99.713,42.029,98.691,42.028z"/>
	<path fill="#9B9B9B" d="M105.27,45.901l-1.045-1.929h-0.551l-0.004,1.833l-0.981-0.002l0.01-4.505l1.97,0.003
		c0.951,0.003,1.395,0.674,1.394,1.281c-0.001,0.502-0.303,1.057-0.906,1.284l0.339,0.431l0.757,1.313L105.27,45.901z
		 M104.666,42.106l-0.986-0.068l-0.003,1.197l0.864-0.064c0.313-0.027,0.536-0.261,0.537-0.589
		C105.079,42.294,104.911,42.121,104.666,42.106z"/>
	<path fill="#9B9B9B" d="M108.022,45.814l0.01-4.506l0.981,0.004l-0.008,3.78l2.037-0.089l-0.001,0.815L108.022,45.814z"/>
	<path fill="#9B9B9B" d="M114.476,45.826l-1.598-0.003l0.009-4.505l1.599,0.002c1.167,0.003,2.141,0.621,2.138,2.201
		C116.62,44.987,115.714,45.828,114.476,45.826z M114.498,42.113l-0.629-0.063l-0.006,3.046l0.621-0.06
		c0.55-0.052,1.153-0.397,1.156-1.518C115.643,42.393,115.094,42.173,114.498,42.113z"/>
	<path fill="#9B9B9B" d="M123.389,45.943c-1.934-0.004-2.05-1.525-2.047-2.354c0.002-0.838,0.122-2.342,2.054-2.338
		c1.935,0.002,2.036,1.522,2.033,2.346C125.429,44.414,125.319,45.947,123.389,45.943z M123.395,42.075
		c-0.916-0.001-1.068,0.581-1.071,1.517c-0.001,0.93,0.156,1.527,1.065,1.529c1.023,0.001,1.056-0.803,1.059-1.524
		C124.449,42.866,124.417,42.078,123.395,42.075z"/>
	<path fill="#9B9B9B" d="M128.382,42.069v1.112l1.59-0.082l-0.001,0.842l-1.59-0.09l-0.005,2.001l-0.982-0.002l0.008-4.505
		l3.019,0.006l-0.001,0.817L128.382,42.069z"/>
	<path fill="#9B9B9B" d="M139.318,45.873l-0.945-0.003l-0.519-2.322l-0.129-0.957h-0.02l-0.14,0.957l-0.517,2.32l-0.949-0.001
		l-1.224-4.427l0.978-0.171l0.599,2.468l0.103,0.838l0.02,0.001l0.106-0.838l0.529-2.373h1.003l0.53,2.377l0.105,0.839l0.019-0.002
		l0.106-0.835l0.602-2.477l0.974,0.176L139.318,45.873z"/>
	<path fill="#9B9B9B" d="M144.165,45.981c-1.931-0.002-2.046-1.522-2.045-2.353c0.003-0.838,0.125-2.342,2.056-2.34
		c1.931,0.004,2.034,1.524,2.032,2.349C146.208,44.453,146.1,45.984,144.165,45.981z M144.173,42.113
		c-0.917-0.001-1.066,0.582-1.068,1.519c-0.004,0.928,0.153,1.525,1.063,1.527c1.023,0.002,1.057-0.802,1.057-1.524
		C145.228,42.904,145.195,42.115,144.173,42.113z"/>
	<path fill="#9B9B9B" d="M150.752,45.988l-1.044-1.931h-0.55l-0.002,1.834l-0.985-0.003l0.01-4.504l1.971,0.003
		c0.949,0.002,1.395,0.674,1.394,1.283c-0.001,0.501-0.306,1.054-0.907,1.282l0.34,0.43l0.758,1.313L150.752,45.988z
		 M150.149,42.192l-0.987-0.069l-0.004,1.199l0.864-0.066c0.316-0.027,0.537-0.262,0.538-0.587
		C150.563,42.379,150.391,42.205,150.149,42.192z"/>
	<path fill="#9B9B9B" d="M156.204,46.009l-1.345-2.102l-0.367,0.053l-0.005,1.94l-0.982-0.002l0.009-4.505l0.983,0.002l-0.001,1.749
		l0.344,0.052l1.404-1.884l0.819,0.469l-1.141,1.464l-0.304,0.308l-0.002,0.014l0.349,0.376l1.155,1.695L156.204,46.009z"/>
</g>
</svg>
