<?xml version="1.0" encoding="utf-8"?>
<!-- Generator: Adobe Illustrator 16.0.0, SVG Export Plug-In . SVG Version: 6.00 Build 0)  -->
<!DOCTYPE svg PUBLIC "-//W3C//DTD SVG 1.1//EN" "http://www.w3.org/Graphics/SVG/1.1/DTD/svg11.dtd">
<svg version="1.1" id="Layer_1" xmlns="http://www.w3.org/2000/svg" xmlns:xlink="http://www.w3.org/1999/xlink" x="0px" y="0px"
	 width="205px" height="20.5px" viewBox="0 0 205 20.5" enable-background="new 0 0 205 20.5" xml:space="preserve">
<g>
	<path fill="#B32025" d="M9.854,2.706h-3.52v17.201H3.519V2.706H0V0.198h9.854V2.706z"/>
	<path fill="#B32025" d="M14.034,10.756v9.151h-2.816V0.198h2.816v8.447h4.927V0.198h2.816v19.709h-2.816v-9.15H14.034z"/>
	<path fill="#B32025" d="M27.408,10.756v7.039h4.927v2.111h-7.743V0.198h7.743v2.111h-4.927v6.335h3.52v2.111L27.408,10.756
		L27.408,10.756z"/>
	<path fill="#FFFFFF" d="M47.887,9.349l0.693,5.631l0.715-5.631l1.408-9.151h2.815l-3.52,19.709h-2.815l-1.408-9.151l-0.704-5.631
		l-0.704,5.631l-1.408,9.151h-2.816l-3.52-19.709h2.815l1.408,9.151l0.715,5.631l0.693-5.631l1.409-9.151h2.815L47.887,9.349z"/>
	<path fill="#FFFFFF" d="M65.023,6.423v7.149c0,3.959-1.43,6.533-5.434,6.533c-4.036,0-5.433-2.52-5.433-6.533V6.423
		C54.157,2.409,55.553,0,59.589,0C63.593,0,65.023,2.464,65.023,6.423z M56.972,5.719v8.557c0,2.111,0.506,3.52,2.618,3.52
		s2.618-1.408,2.618-3.52V5.719c0-2.111-0.506-3.41-2.618-3.41S56.972,3.607,56.972,5.719z"/>
	<path fill="#FFFFFF" d="M74.877,10.053l3.167,9.854h-2.793l-2.837-9.151h-2.112v9.151h-2.815V0.198h3.52
		c4.015,0,6.336,1.364,6.336,5.279C77.341,7.797,76.516,9.459,74.877,10.053z M71.006,2.31h-0.704v6.336h0.704
		c2.277,0,3.52-0.87,3.52-3.168C74.525,3.179,73.283,2.31,71.006,2.31z"/>
	<path fill="#FFFFFF" d="M87.416,19.908l-3.52-9.151l-1.408,2.816v6.335h-2.815V0.198h2.815v8.447l4.224-8.447h3.52l-4.234,7.743
		l4.938,11.967H87.416z"/>
	<path fill="#FFFFFF" d="M94.785,10.756v7.039h4.927v2.111h-7.743V0.198h7.743v2.111h-4.927v6.335h3.52v2.111L94.785,10.756
		L94.785,10.756z"/>
	<path fill="#FFFFFF" d="M108.83,10.053l3.168,9.854h-2.793l-2.838-9.151h-2.111v9.151h-2.815V0.198h3.52
		c4.014,0,6.335,1.364,6.335,5.279C111.293,7.797,110.469,9.459,108.83,10.053z M104.958,2.31h-0.705v6.336h0.705
		c2.277,0,3.52-0.87,3.52-3.168C108.478,3.179,107.235,2.31,104.958,2.31z"/>
	<path fill="#FFFFFF" d="M120.422,0.198v19.709h-2.815V0.198H120.422z"/>
	<path fill="#FFFFFF" d="M126.251,6.797v13.111h-2.815V0.198h2.112l4.927,12.187V0.198h2.815v19.709h-2.001L126.251,6.797z"/>
	<path fill="#FFFFFF" d="M140.539,2.31c-1.364,0-2.112,0.803-2.112,2.145c0,1.221,0.638,2.167,1.408,2.783l3.52,2.816
		c1.441,1.166,2.816,2.925,2.816,5.443c0,2.926-1.969,4.609-4.927,4.609c-3.684,0-5.422-2.387-5.631-5.829l2.815-0.704
		c0.099,2.034,0.683,4.223,2.815,4.223c1.408,0,2.111-0.704,2.111-2.111c0-1.771-1.088-2.695-2.111-3.52l-3.52-2.815
		c-1.21-0.946-2.123-2.508-2.123-4.597c0-2.926,1.98-4.751,4.938-4.751c3.487,0,5.379,1.925,5.631,5.125l-2.816,0.704
		C143.233,3.959,142.529,2.31,140.539,2.31z"/>
	<path fill="#FFFFFF" d="M156.629,2.706h-3.52v17.201h-2.816V2.706h-3.52V0.198h9.855V2.706L156.629,2.706z"/>
	<path fill="#FFFFFF" d="M160.94,0.198v19.709h-2.815V0.198H160.94z"/>
	<path fill="#FFFFFF" d="M172.356,2.706h-3.52v17.201h-2.815V2.706h-3.52V0.198h9.854L172.356,2.706L172.356,2.706z"/>
	<path fill="#FFFFFF" d="M179.198,20.116c-4.377,0-5.631-2.904-5.631-7.248V0.198h2.815v12.671c0,2.606,0.209,4.927,2.816,4.927
		s2.815-2.321,2.815-4.927V0.198h2.815v12.671C184.829,17.212,183.576,20.116,179.198,20.116z"/>
	<path fill="#FFFFFF" d="M195.893,2.706h-3.52v17.201h-2.815V2.706h-3.52V0.198h9.854V2.706L195.893,2.706z"/>
	<path fill="#FFFFFF" d="M200.073,10.756v7.039H205v2.111h-7.743V0.198H205v2.111h-4.927v6.335h3.521v2.111L200.073,10.756
		L200.073,10.756z"/>
</g>
</svg>
