<?xml version="1.0" encoding="utf-8"?>
<!-- Generator: Adobe Illustrator 16.0.0, SVG Export Plug-In . SVG Version: 6.00 Build 0)  -->
<!DOCTYPE svg PUBLIC "-//W3C//DTD SVG 1.1//EN" "http://www.w3.org/Graphics/SVG/1.1/DTD/svg11.dtd">
<svg version="1.1" id="Layer_1" xmlns="http://www.w3.org/2000/svg" xmlns:xlink="http://www.w3.org/1999/xlink" x="0px" y="0px"
	 width="194px" height="80px" viewBox="0 0 194 80" enable-background="new 0 0 194 80" xml:space="preserve">
<g>
	<path fill="#B32025" d="M4.812,39.596l2.595,0.055c0.129-7.486,0.34-15.238,0.634-23.258C8.205,11.391,8.453,6.59,8.783,1.991
		L6.105,2.019L3.262,1.992l0.027,2.814c0,0.754-0.009,1.508-0.027,2.263L2.876,20.09L2.299,33.305l-0.413,6.346
		C3.506,39.614,4.481,39.596,4.812,39.596L4.812,39.596z"/>
	<path fill="#B32025" d="M28.15,39.595c3.2,0,6.887,0.02,11.063,0.056c0.073-1.426,0.166-2.724,0.276-3.89
		c-1.49,0.093-3.03,0.152-4.621,0.18c-1.59,0.028-4.335,0.042-8.234,0.042l-5.241-0.027l0.661-16.485l0.882-17.479l-2.569,0.027
		c-0.663,0-1.629-0.009-2.899-0.027c-0.073,6.659-0.261,13.414-0.563,20.264c-0.303,6.852-0.665,12.649-1.086,17.395L28.15,39.595z"
		/>
	<path fill="#B32025" d="M46.39,39.596l2.706,0.055c0.128-10.374,0.476-21.74,1.044-34.101c0.459,0.019,1.536,0.028,3.228,0.028
		l3.917-0.054c0.956,0,1.862,0.054,2.718,0.165C60.858,5.8,61.557,5.965,62.1,6.186c0.542,0.221,1.094,0.579,1.655,1.076
		c0.561,0.497,0.97,1.108,1.228,1.834c0.257,0.727,0.386,1.513,0.386,2.359c0,1.563-0.41,2.984-1.228,4.263
		c-0.818,1.278-1.978,2.221-3.476,2.828c-1.5,0.606-3.169,0.91-5.008,0.91c-1.085,0-2.335-0.128-3.751-0.386
		c0.589,1.012,1.014,1.72,1.272,2.125l6.249,10.18c0.479,0.828,0.921,1.601,1.327,2.318c0.405,0.717,0.811,1.444,1.216,2.179
		l1.991,3.779c1.446-0.037,2.425-0.055,2.938-0.055c0.476,0,1.427,0.018,2.855,0.055c-0.663-1.066-1.168-1.866-1.517-2.4
		l-5.019-7.698l-4.855-7.752c1.471-0.166,2.63-0.34,3.475-0.524c1.269-0.294,2.326-0.671,3.172-1.131
		c1.103-0.606,2.054-1.389,2.854-2.344c0.8-0.957,1.407-2.023,1.82-3.201c0.414-1.177,0.621-2.455,0.621-3.835
		c0-1.434-0.262-2.717-0.786-3.848s-1.343-2.125-2.456-2.979c-1.113-0.855-2.373-1.402-3.78-1.642
		c-1.407-0.238-2.967-0.358-4.677-0.358c-0.975,0-2.221,0.018-3.739,0.055c-1.518,0.038-2.901,0.055-4.153,0.055
		c-1.453,0-3.284-0.018-5.491-0.055c0,0.994-0.019,2.658-0.055,4.994l-0.275,11.533L44.26,32.232l-0.549,7.421
		C45.091,39.614,45.984,39.596,46.39,39.596L46.39,39.596z"/>
	<path fill="#F7F7F7" d="M38.03,55.161c0.759-0.222,1.664-0.413,2.714-0.574c1.05-0.16,2.073-0.242,3.07-0.242
		c1.073,0,2.004,0.108,2.794,0.322c0.789,0.215,1.429,0.59,1.92,1.127c0.491,0.537,0.736,1.181,0.736,1.933
		c0,0.307-0.053,0.611-0.16,0.92c-0.108,0.308-0.276,0.607-0.506,0.906c-0.229,0.301-0.482,0.553-0.759,0.76
		c-0.276,0.207-0.598,0.387-0.965,0.539c-0.367,0.153-0.789,0.312-1.265,0.473s-1.05,0.316-1.725,0.473
		c-2.099,0.506-3.625,0.907-4.576,1.206c-0.95,0.299-1.782,0.603-2.495,0.908c-0.713,0.307-1.395,0.696-2.046,1.173
		c-0.652,0.475-1.154,0.95-1.506,1.425c-0.353,0.476-0.632,1.005-0.839,1.586c-0.207,0.583-0.311,1.218-0.311,1.908
		c0,1.181,0.292,2.272,0.874,3.276c0.583,1.004,1.464,1.75,2.644,2.24c1.181,0.491,2.82,0.736,4.92,0.736
		c0.629,0,1.295-0.025,2.001-0.081c0.704-0.053,1.617-0.188,2.735-0.401c0.276-1.23,0.521-2.144,0.736-2.736
		c-1.18,0.373-2.124,0.604-2.828,0.693s-1.379,0.136-2.023,0.136c-1.042,0-1.935-0.118-2.678-0.356
		c-0.743-0.238-1.36-0.664-1.851-1.275c-0.49-0.612-0.736-1.334-0.736-2.162c0-0.535,0.1-1.049,0.299-1.54
		c0.169-0.398,0.46-0.796,0.874-1.194c0.414-0.4,0.929-0.768,1.542-1.104c0.614-0.338,1.449-0.674,2.508-1.012
		c0.49-0.168,1.323-0.412,2.496-0.736c1.173-0.321,1.962-0.547,2.37-0.678c0.407-0.129,0.778-0.269,1.117-0.414
		c0.337-0.146,0.64-0.303,0.909-0.471c0.268-0.17,0.671-0.461,1.208-0.874l-0.349,7.427l-0.489,6.276
		c0.904-0.03,1.603-0.047,2.094-0.047c0.522,0,1.196,0.017,2.025,0.047c0-1.655,0.042-3.541,0.125-5.655
		c0.084-2.115,0.206-4.419,0.366-6.91c0.16-2.489,0.241-4.266,0.241-5.321c0-0.843-0.13-1.634-0.391-2.368
		c-0.261-0.736-0.79-1.389-1.586-1.954c-0.797-0.567-1.797-0.978-3-1.229c-1.204-0.252-2.495-0.379-3.875-0.379
		c-1.288,0-2.609,0.09-3.966,0.265c-1.357,0.177-2.955,0.502-4.793,0.978c-0.153,1.319-0.299,2.315-0.437,2.989
		C36.325,55.717,37.271,55.384,38.03,55.161z"/>
	<path fill="#F7F7F7" d="M68.141,73.244c-0.443,0.062-0.857,0.092-1.24,0.092c-0.551,0-1.08-0.123-1.584-0.368
		c-0.505-0.245-0.884-0.646-1.136-1.207c-0.253-0.56-0.378-1.397-0.378-2.518l0.022-0.989l0.614-12.943h6.365
		c0.015-0.873,0.062-1.793,0.138-2.759h-6.39c0.015-1.18,0.075-2.903,0.181-5.173c-0.994,0.245-2.209,0.506-3.646,0.781
		c-0.077,2.07-0.155,3.533-0.231,4.392h-3.134c-0.046,1.195-0.1,2.115-0.162,2.759h3.072l-0.561,10.301
		c-0.14,2.56-0.218,4.055-0.234,4.482c-0.016,0.43-0.023,0.729-0.023,0.896c0,1.304,0.222,2.335,0.667,3.093
		c0.444,0.759,1.084,1.312,1.92,1.653c0.834,0.346,1.934,0.52,3.299,0.52c0.551,0,1.134-0.031,1.748-0.093
		c0.613-0.062,1.44-0.214,2.482-0.459c0.199-1.242,0.383-2.239,0.552-2.99C69.364,73.006,68.584,73.184,68.141,73.244z"/>
	<path fill="#F7F7F7" d="M81.39,2.814l-2.276,14.517h0.81c1.584-3.371,3.759-5.698,6.524-6.98c2.764-1.281,6.845-1.922,12.239-1.922
		h20.84l-30.5,70.153h7.384L129.34,2.814H81.39L81.39,2.814z"/>
	<path fill="#F7F7F7" d="M187.46,19.253c-2.951-6.002-6.76-10.604-11.431-13.809c-4.67-3.204-9.5-4.805-14.49-4.805
		c-4.654,0-9.332,1.475-14.038,4.426c-4.701,2.951-8.599,7.419-11.683,13.403c-3.086,5.986-4.627,13.21-4.627,21.674
		c0,6.036,0.875,11.499,2.629,16.387c1.754,4.891,4.113,9.021,7.082,12.393c2.967,3.374,6.246,5.942,9.836,7.714
		c3.592,1.771,7.191,2.655,10.801,2.655c3.843,0,7.604-0.971,11.279-2.907c3.675-1.94,6.953-4.688,9.838-8.245
		c2.883-3.558,5.143-7.697,6.777-12.419c1.635-4.72,2.453-9.913,2.453-15.578C191.887,32.22,190.411,25.256,187.46,19.253z
		 M180.279,57.896c-2.008,5.562-4.672,9.998-7.992,13.303c-3.322,3.305-6.905,4.957-10.748,4.957c-4.654,0-8.625-1.805-11.911-5.412
		c-3.289-3.608-5.749-8.186-7.386-13.732s-2.453-11.17-2.453-16.869c0-4.923,0.811-10.243,2.429-15.958
		c1.619-5.716,4.087-10.545,7.41-14.491c3.319-3.945,7.291-5.918,11.911-5.918c4.688,0,8.674,1.779,11.961,5.336
		c3.288,3.558,5.742,8.143,7.359,13.757c1.621,5.614,2.429,11.373,2.429,17.273C183.288,46.415,182.285,52.332,180.279,57.896z"/>
</g>
</svg>
