<?xml version="1.0" encoding="UTF-8"?>
<svg width="381px" height="88px" viewBox="0 0 381 88" version="1.1" xmlns="http://www.w3.org/2000/svg" xmlns:xlink="http://www.w3.org/1999/xlink">
    <!-- Generator: Sketch 51.2 (57519) - http://www.bohemiancoding.com/sketch -->
    <title>ILR_Cornell_Lockup_White</title>
    <desc>Created with Sketch.</desc>
    <defs></defs>
    <g id="ILR_Cornell_Lockup_White" stroke="none" stroke-width="1" fill="none" fill-rule="evenodd">
        <path d="M109.129,0.761 L109.129,87.514" id="Stroke-3" stroke="#FFFFFE" stroke-width="0.5"></path>
        <path d="M43.901,0.763 C19.928,0.763 0.425,20.265 0.425,44.238 C0.425,68.212 19.928,87.717 43.901,87.717 C67.875,87.717 87.379,68.212 87.379,44.238 C87.379,20.265 67.875,0.763 43.901,0.763 M43.901,85.685 C21.049,85.685 2.457,67.092 2.457,44.238 C2.457,21.386 21.049,2.794 43.901,2.794 C66.755,2.794 85.348,21.386 85.348,44.238 C85.348,67.092 66.755,85.685 43.901,85.685" id="Fill-4" fill="#FFFFFE"></path>
        <path d="M43.901,11.584 C25.895,11.584 11.249,26.232 11.249,44.237 C11.249,62.244 25.895,76.894 43.901,76.894 C61.908,76.894 76.556,62.244 76.556,44.237 C76.556,26.232 61.908,11.584 43.901,11.584 M43.901,74.876 C27.008,74.876 13.265,61.132 13.265,44.237 C13.265,27.345 27.008,13.601 43.901,13.601 C60.795,13.601 74.54,27.345 74.54,44.237 C74.54,61.132 60.795,74.876 43.901,74.876" id="Fill-5" fill="#FFFFFE"></path>
        <path d="M23.134,22.236 L23.132,50.117 C23.132,65.638 42.677,74.202 43.509,74.559 L43.915,74.734 L44.317,74.556 C45.147,74.193 64.642,65.49 64.642,50.61 L64.638,22.232 L23.134,22.236 Z M62.608,24.262 L62.61,39.279 L25.164,39.279 L25.166,24.267 L62.608,24.262 Z M42.975,61.087 C42.667,60.964 42.304,60.871 41.848,60.86 C40.651,60.86 39.755,60.942 38.81,61.027 C37.88,61.112 36.918,61.199 35.505,61.233 C34.924,61.246 34.395,61.243 33.973,61.235 L33.976,46.153 L34.003,46.153 C34.6,46.154 35.333,46.154 36.255,46.134 C37.034,46.115 37.884,46.024 38.871,45.919 C39.403,45.861 39.975,45.8 40.612,45.743 C41.599,45.633 42.514,45.81 42.516,45.81 C42.714,45.857 42.856,45.919 42.975,45.98 L42.975,61.087 Z M44.664,46.054 C44.769,45.98 44.942,45.885 45.235,45.817 C45.244,45.816 46.167,45.633 47.188,45.745 C47.806,45.8 48.38,45.861 48.914,45.92 C49.897,46.024 50.746,46.115 51.519,46.134 C52.249,46.15 52.86,46.154 53.381,46.154 C53.528,46.154 53.656,46.153 53.8,46.153 L53.804,61.235 C53.382,61.243 52.851,61.245 52.271,61.233 C50.859,61.199 49.897,61.112 48.966,61.027 C48.021,60.942 47.126,60.86 45.932,60.86 C45.412,60.859 44.998,60.963 44.664,61.112 L44.664,46.054 Z M25.163,50.117 L25.164,41.288 L42.975,41.288 L42.975,43.835 C42.967,43.832 42.962,43.83 42.956,43.828 C42.906,43.817 41.714,43.574 40.408,43.723 C39.78,43.778 39.198,43.841 38.655,43.899 C37.714,44.001 36.901,44.087 36.208,44.103 C35.307,44.126 34.593,44.123 34.004,44.123 C33.59,44.121 33.243,44.121 32.938,44.128 L31.945,44.151 L31.945,46.857 L29.949,46.857 L29.949,49.285 L31.945,49.285 L31.944,52.473 L29.949,52.473 L29.949,54.903 L31.944,54.903 L31.943,57.497 L29.949,57.497 L29.949,59.918 L31.943,59.918 L31.943,63.177 L32.901,63.232 C32.949,63.235 34.083,63.296 35.552,63.262 C37.034,63.228 38.075,63.133 38.995,63.049 C39.932,62.964 40.744,62.89 41.848,62.89 C42.214,62.891 42.333,62.977 42.563,63.262 C42.658,63.38 42.795,63.54 42.975,63.683 L42.975,72.054 C38.635,69.86 25.163,62.089 25.163,50.117 Z M44.664,72.135 L44.664,63.735 C44.862,63.592 45.012,63.423 45.123,63.296 C45.365,63.018 45.476,62.891 45.873,62.89 C47.007,62.882 47.83,62.964 48.783,63.049 C49.702,63.133 50.744,63.228 52.224,63.262 C53.694,63.296 54.827,63.235 54.875,63.232 L55.834,63.178 L55.834,60.4 L57.614,60.4 L57.614,57.973 L55.833,57.973 L55.833,55.38 L57.732,55.38 L57.732,52.951 L55.833,52.951 L55.832,49.761 L57.614,49.761 L57.614,47.338 L55.832,47.338 L55.831,44.151 L54.839,44.128 C54.533,44.121 54.183,44.121 53.771,44.123 C53.186,44.122 52.468,44.126 51.568,44.103 C50.878,44.087 50.068,44.001 49.13,43.899 C48.585,43.841 48,43.779 47.392,43.725 C46.057,43.573 44.872,43.818 44.797,43.835 C44.75,43.845 44.711,43.861 44.664,43.873 L44.664,41.288 L62.61,41.288 L62.612,50.61 C62.612,62.189 48.802,70.042 44.664,72.135 Z" id="Fill-6" fill="#FFFFFE"></path>
        <path d="M30.615,36.021 C32.039,36.975 34.162,38.219 34.252,38.273 L34.746,38.562 L35.25,38.288 C35.346,38.234 37.639,36.983 39.075,36.022 C40.252,35.233 40.837,34.378 40.866,33.411 C40.879,33.258 40.88,30.858 40.87,26.277 L40.867,25.265 L28.718,25.265 L28.718,26.278 C28.714,30.857 28.716,33.253 28.729,33.415 C28.795,34.363 29.412,35.216 30.615,36.021 M38.837,33.346 C38.827,33.707 38.211,34.156 37.946,34.335 C36.977,34.983 35.536,35.805 34.782,36.226 C34.063,35.798 32.714,34.983 31.745,34.334 C31.036,33.859 30.769,33.476 30.755,33.279 C30.751,33.156 30.749,32.27 30.748,31.092 L38.844,31.092 C38.844,32.28 38.842,33.188 38.837,33.346 M38.84,27.295 C38.841,27.867 38.842,28.467 38.843,29.062 L30.747,29.062 C30.748,28.468 30.748,27.868 30.748,27.295 L38.84,27.295" id="Fill-7" fill="#FFFFFE"></path>
        <path d="M49.389,35.974 C50.811,36.927 52.932,38.17 53.021,38.223 L53.516,38.513 L54.019,38.238 C54.117,38.187 56.412,36.937 57.849,35.974 C59.029,35.183 59.614,34.326 59.637,33.363 C59.65,33.212 59.651,30.811 59.641,26.229 L59.639,25.215 L47.494,25.215 L47.492,26.23 C47.486,30.812 47.489,33.212 47.503,33.368 C47.568,34.314 48.185,35.167 49.389,35.974 M56.718,34.287 C55.75,34.937 54.307,35.756 53.552,36.177 C52.836,35.75 51.488,34.937 50.52,34.288 C49.81,33.811 49.543,33.426 49.527,33.23 C49.526,33.198 49.525,33.123 49.525,33.011 L49.53,33.02 L53.525,30.132 L57.614,32.857 C57.612,33.073 57.611,33.245 57.609,33.299 C57.599,33.658 56.983,34.109 56.718,34.287 M49.521,27.247 L57.613,27.247 C57.615,28.284 57.617,29.413 57.617,30.42 L53.478,27.661 L49.52,30.522 C49.519,29.494 49.52,28.322 49.521,27.247" id="Fill-8" fill="#FFFFFE"></path>
        <path d="M47.062,48.935 L47.926,49.023 C48.465,49.082 48.931,49.13 49.339,49.139 L51.896,49.209 L51.921,48.142 L49.366,48.072 C48.982,48.064 48.546,48.017 48.041,47.962 L47.17,47.873 C46.961,47.85 46.76,47.844 46.576,47.853 L46.614,48.92 C46.749,48.915 46.897,48.917 47.062,48.935" id="Fill-9" fill="#FFFFFE"></path>
        <path d="M47.063,52.194 C47.38,52.223 47.674,52.255 47.948,52.284 C48.478,52.341 48.937,52.389 49.342,52.399 L51.898,52.462 L51.92,51.395 L49.366,51.332 C48.988,51.323 48.558,51.276 48.061,51.222 C47.782,51.193 47.482,51.16 47.168,51.132 C46.96,51.11 46.755,51.104 46.576,51.11 L46.613,52.177 C46.751,52.17 46.899,52.177 47.063,52.194" id="Fill-10" fill="#FFFFFE"></path>
        <path d="M47.064,55.455 C47.389,55.483 47.691,55.516 47.972,55.546 C48.494,55.601 48.946,55.649 49.34,55.655 L50.687,55.691 C51.214,55.706 51.693,55.719 51.9,55.722 L51.917,54.655 C51.712,54.651 51.238,54.638 50.717,54.624 L49.363,54.588 C48.993,54.581 48.572,54.535 48.086,54.484 C47.798,54.453 47.491,54.42 47.168,54.392 C46.959,54.371 46.754,54.363 46.576,54.37 L46.614,55.437 C46.748,55.43 46.899,55.436 47.064,55.455" id="Fill-11" fill="#FFFFFE"></path>
        <path d="M47.062,58.712 L47.933,58.799 C48.47,58.858 48.933,58.906 49.339,58.916 L51.897,58.983 L51.92,57.916 L49.366,57.849 C48.985,57.839 48.55,57.793 48.049,57.738 C47.772,57.71 47.477,57.677 47.168,57.65 C46.959,57.628 46.754,57.624 46.576,57.628 L46.614,58.694 C46.751,58.687 46.898,58.693 47.062,58.712" id="Fill-12" fill="#FFFFFE"></path>
        <path d="M38.386,49.115 C38.8,49.107 39.272,49.058 39.82,48.999 L40.679,48.911 C40.825,48.894 40.969,48.894 41.095,48.892 L41.114,47.825 C40.944,47.822 40.751,47.828 40.568,47.85 L39.707,47.937 C39.194,47.992 38.753,48.04 38.362,48.048 C37.557,48.07 36.197,48.106 35.807,48.114 L35.831,49.181 C36.22,49.173 37.586,49.137 38.386,49.115" id="Fill-13" fill="#FFFFFE"></path>
        <path d="M39.692,51.194 C39.185,51.25 38.749,51.298 38.363,51.306 L35.806,51.374 L35.832,52.441 L38.388,52.374 C38.798,52.364 39.266,52.315 39.807,52.256 L40.663,52.169 C40.808,52.155 40.952,52.148 41.086,52.155 L41.125,51.088 C40.952,51.082 40.764,51.088 40.567,51.105 L39.692,51.194" id="Fill-14" fill="#FFFFFE"></path>
        <path d="M39.654,54.457 C39.165,54.509 38.742,54.555 38.362,54.56 C37.559,54.583 36.2,54.621 35.811,54.626 L35.827,55.693 C36.217,55.688 37.584,55.65 38.383,55.627 C38.785,55.622 39.241,55.574 39.767,55.519 C40.045,55.489 40.342,55.458 40.676,55.429 C40.823,55.412 40.964,55.411 41.092,55.412 L41.118,54.345 C40.946,54.337 40.753,54.345 40.571,54.366 C40.243,54.395 39.938,54.427 39.654,54.457" id="Fill-15" fill="#FFFFFE"></path>
        <path d="M39.694,57.712 C39.187,57.766 38.749,57.815 38.362,57.823 L37.814,57.839 C37.045,57.86 36.121,57.885 35.811,57.891 L35.827,58.958 C36.137,58.954 37.069,58.927 37.842,58.905 L38.388,58.891 C38.798,58.881 39.267,58.832 39.809,58.774 L40.678,58.684 C40.821,58.667 40.962,58.669 41.092,58.668 L41.112,57.601 C40.937,57.597 40.747,57.601 40.568,57.622 L39.694,57.712" id="Fill-16" fill="#FFFFFE"></path>
        <path d="M9.877,41.385 C9.905,40.947 9.849,40.488 9.775,40.059 L8.791,40.05 C8.916,40.33 8.984,40.873 8.954,41.327 C8.877,42.554 7.938,43.229 6.748,43.153 C5.548,43.077 4.675,42.276 4.75,41.088 C4.775,40.674 4.859,40.283 5.139,39.86 L4.155,39.716 C3.962,40.127 3.855,40.625 3.83,41.006 C3.709,42.961 4.753,44.238 6.755,44.364 C8.731,44.488 9.759,43.251 9.877,41.385" id="Fill-17" fill="#FFFFFE"></path>
        <path d="M7.323,37.229 C9.05,37.718 10.518,37.119 11.024,35.336 C11.524,33.581 10.573,32.264 8.87,31.783 C7.166,31.299 5.694,31.937 5.201,33.68 C4.697,35.45 5.594,36.737 7.323,37.229 M6.086,33.934 C6.4,32.827 7.546,32.661 8.54,32.945 C9.556,33.232 10.461,33.947 10.137,35.084 C9.813,36.223 8.669,36.353 7.652,36.063 C6.66,35.783 5.771,35.039 6.086,33.934" id="Fill-18" fill="#FFFFFE"></path>
        <path d="M13.24,29.354 L11.092,28.21 L11.267,27.879 C11.497,27.45 11.713,27.398 12.177,27.457 L14.119,27.704 L14.724,26.564 L12.268,26.307 C11.984,26.286 11.617,26.296 11.446,26.564 L11.432,26.554 C11.69,25.858 11.4,25.187 10.794,24.864 C9.355,24.098 8.697,25.426 8.116,26.522 L7.528,27.624 L12.695,30.378 L13.24,29.354 Z M10.458,27.44 L10.277,27.777 L8.884,27.034 L9.064,26.699 C9.336,26.189 9.692,25.646 10.315,25.977 C10.959,26.319 10.726,26.937 10.458,27.44 Z" id="Fill-19" fill="#FFFFFE"></path>
        <polyline id="Fill-20" fill="#FFFFFE" points="16.701 23.82 13.33 21.023 13.339 21.01 18.122 22.105 19.025 21.017 14.516 17.278 13.81 18.133 17.181 20.927 17.169 20.94 12.394 19.839 11.484 20.934 15.992 24.671 16.701 23.82"></polyline>
        <polyline id="Fill-21" fill="#FFFFFE" points="23.702 16.952 23.12 16.237 21.363 17.668 20.323 16.392 21.921 15.089 21.339 14.374 19.741 15.677 18.829 14.556 20.576 13.138 19.993 12.422 17.35 14.573 21.046 19.115 23.702 16.952"></polyline>
        <polyline id="Fill-22" fill="#FFFFFE" points="28.931 13.784 28.479 12.978 26.526 14.077 24.106 9.779 23.096 10.35 25.966 15.45 28.931 13.784"></polyline>
        <polyline id="Fill-23" fill="#FFFFFE" points="34.235 11.714 33.919 10.848 31.811 11.608 30.132 6.972 29.044 7.367 31.036 12.872 34.235 11.714"></polyline>
        <path d="M41.22,10.566 C42.697,10.442 43.518,9.727 43.387,8.163 L43.079,4.433 L41.923,4.526 L42.203,7.901 C42.286,8.894 42.026,9.574 41.147,9.646 C40.262,9.72 39.893,9.09 39.811,8.099 L39.534,4.727 L38.378,4.823 L38.687,8.554 C38.817,10.117 39.747,10.689 41.22,10.566" id="Fill-24" fill="#FFFFFE"></path>
        <polyline id="Fill-25" fill="#FFFFFE" points="47.956 6.141 47.973 6.142 49.576 10.778 50.978 10.966 51.761 5.164 50.661 5.014 50.078 9.357 50.06 9.354 48.465 4.719 47.054 4.527 46.273 10.332 47.373 10.478 47.956 6.141"></polyline>
        <polyline id="Fill-26" fill="#FFFFFE" points="56.459 6.464 55.354 6.117 53.601 11.704 54.706 12.052 56.459 6.464"></polyline>
        <polyline id="Fill-27" fill="#FFFFFE" points="64.251 9.919 63.225 9.402 59.843 12.843 59.828 12.836 60.581 8.065 59.472 7.504 58.604 13.627 59.873 14.269 64.251 9.919"></polyline>
        <polyline id="Fill-28" fill="#FFFFFE" points="66.159 18.55 66.725 17.823 64.938 16.426 65.953 15.129 67.576 16.399 68.142 15.671 66.521 14.402 67.411 13.266 69.182 14.65 69.749 13.926 67.063 11.824 63.461 16.44 66.159 18.55"></polyline>
        <path d="M68.817,21.189 L70.647,19.586 L70.891,19.867 C71.215,20.232 71.185,20.454 70.966,20.866 L70.05,22.595 L70.902,23.566 L72.013,21.358 C72.132,21.101 72.251,20.753 72.061,20.5 L72.075,20.491 C72.637,20.975 73.366,20.942 73.884,20.49 C75.106,19.414 74.099,18.329 73.28,17.395 L72.456,16.457 L68.052,20.319 L68.817,21.189 Z M72.524,17.937 L72.776,18.223 C73.158,18.658 73.541,19.183 73.01,19.646 C72.463,20.128 71.966,19.692 71.59,19.263 L71.34,18.977 L72.524,17.937 Z" id="Fill-29" fill="#FFFFFE"></path>
        <path d="M73.602,26.22 C73.374,25.829 73.263,25.365 73.248,24.911 L72.284,25.358 C72.452,25.92 72.522,26.206 72.844,26.749 C73.436,27.751 74.367,28.366 75.47,27.712 C77.161,26.712 75.502,24.751 76.378,24.233 C76.926,23.912 77.338,24.261 77.541,24.603 C77.748,24.952 77.873,25.348 77.922,25.743 L78.806,25.343 C78.714,24.908 78.536,24.475 78.285,24.048 C77.766,23.173 76.844,22.555 75.718,23.221 C74.048,24.208 75.738,26.15 74.774,26.718 C74.319,26.989 73.829,26.6 73.602,26.22" id="Fill-30" fill="#FFFFFE"></path>
        <polyline id="Fill-31" fill="#FFFFFE" points="75.503 31.942 80.927 29.73 80.488 28.657 75.067 30.871 75.503 31.942"></polyline>
        <polyline id="Fill-32" fill="#FFFFFE" points="76.706 35.633 76.982 36.759 81.772 35.579 82.169 37.187 83.064 36.968 81.996 32.628 81.098 32.847 81.496 34.454 76.706 35.633"></polyline>
        <polyline id="Fill-33" fill="#FFFFFE" points="77.779 42.128 77.841 43.284 80.156 43.157 83.804 45.027 83.738 43.802 81.205 42.548 83.586 41.05 83.508 39.696 80.09 41.999 77.779 42.128"></polyline>
        <polyline id="Fill-34" fill="#FFFFFE" points="8.395 56.055 9.28 55.798 8.735 53.903 10.12 53.502 10.696 55.496 11.582 55.238 10.685 52.122 5.056 53.745 5.381 54.87 7.849 54.157 8.395 56.055"></polyline>
        <path d="M13.428,59.304 C12.608,57.641 11.079,57.276 9.466,58.068 C7.855,58.857 7.166,60.297 7.993,61.974 C8.809,63.634 10.398,63.984 11.984,63.2 C13.578,62.422 14.237,60.949 13.428,59.304 M11.447,62.105 C10.499,62.573 9.348,62.646 8.82,61.568 C8.294,60.495 9.053,59.63 10.003,59.163 C10.93,58.712 12.089,58.672 12.599,59.714 C13.112,60.755 12.375,61.651 11.447,62.105" id="Fill-35" fill="#FFFFFE"></path>
        <path d="M18.156,66.725 L15.509,68.829 C14.728,69.452 14.018,69.61 13.464,68.906 C12.906,68.207 13.219,67.549 14.003,66.93 L16.649,64.829 L15.92,63.914 L12.989,66.236 C11.762,67.212 11.807,68.313 12.738,69.485 C13.671,70.655 14.728,70.945 15.956,69.969 L18.886,67.643 L18.156,66.725" id="Fill-36" fill="#FFFFFE"></path>
        <polyline id="Fill-37" fill="#FFFFFE" points="23.572 71.846 20.798 75.234 20.787 75.224 21.839 70.428 20.723 69.519 17.015 74.047 17.883 74.755 20.654 71.368 20.669 71.377 19.624 76.182 20.731 77.087 24.441 72.554 23.572 71.846"></polyline>
        <path d="M28.091,74.711 L26.663,73.994 L24.034,79.23 L25.461,79.943 C27.058,80.746 28.744,80.919 29.786,78.841 C30.832,76.763 29.687,75.514 28.091,74.711 M28.696,78.292 C28.122,79.433 26.952,79.66 26.078,79.223 L25.494,78.93 L27.295,75.343 L27.878,75.636 C28.753,76.077 29.267,77.155 28.696,78.292" id="Fill-38" fill="#FFFFFE"></path>
        <polyline id="Fill-39" fill="#FFFFFE" points="31.926 82.665 35.272 83.557 35.509 82.665 33.296 82.074 33.717 80.484 35.731 81.02 35.968 80.13 33.958 79.594 34.328 78.2 36.525 78.787 36.762 77.897 33.434 77.006 31.926 82.665"></polyline>
        <path d="M40.933,78.446 L39.339,78.356 L39.007,84.203 L40.6,84.295 C42.386,84.395 43.997,83.88 44.132,81.56 C44.263,79.239 42.718,78.546 40.933,78.446 M40.877,83.385 L40.225,83.35 L40.456,79.344 L41.106,79.38 C42.082,79.437 42.983,80.218 42.913,81.49 C42.839,82.764 41.855,83.441 40.877,83.385" id="Fill-40" fill="#FFFFFE"></path>
        <path d="M50.081,77.932 L49.087,84.134 L50.271,83.88 L50.489,82.464 L52.803,81.963 L53.574,83.172 L54.842,82.897 L51.371,77.656 L50.081,77.932 Z M50.623,81.487 L50.941,78.949 L50.957,78.947 L52.29,81.131 L50.623,81.487 Z" id="Fill-41" fill="#FFFFFE"></path>
        <polyline id="Fill-42" fill="#FFFFFE" points="56.146 81.136 56.548 82.239 57.646 81.841 57.247 80.738 56.146 81.136"></polyline>
        <path d="M59.038,74.829 L57.634,75.589 L60.424,80.735 L61.829,79.975 C63.401,79.123 64.505,77.841 63.397,75.797 C62.29,73.753 60.611,73.972 59.038,74.829 M61.589,79.06 L61.015,79.367 L59.103,75.844 L59.675,75.534 C60.538,75.064 61.715,75.255 62.323,76.378 C62.929,77.501 62.448,78.59 61.589,79.06" id="Fill-43" fill="#FFFFFE"></path>
        <polyline id="Fill-44" fill="#FFFFFE" points="65.093 76.674 65.765 77.64 66.725 76.971 66.056 76.004 65.093 76.674"></polyline>
        <polyline id="Fill-45" fill="#FFFFFE" points="67.508 68.663 67.258 70.843 68.212 70.975 68.35 69.713 71.526 72.93 72.359 72.106 68.245 67.936 67.508 68.663"></polyline>
        <path d="M75.698,65.445 C75.159,65.047 74.544,65.03 73.797,65.434 L73.79,65.428 C73.964,64.757 73.665,64.132 73.238,63.815 C72.45,63.234 71.556,63.725 70.944,64.552 C70.313,65.406 70.24,66.339 71.082,66.964 C71.576,67.325 72.193,67.303 72.752,66.988 L72.765,67 C72.626,67.767 72.77,68.335 73.297,68.721 C74.254,69.433 75.199,68.984 75.876,68.071 C76.563,67.142 76.65,66.148 75.698,65.445 M73.03,65.865 C72.672,66.097 72.18,66.38 71.773,66.081 C71.396,65.802 71.462,65.32 71.714,64.978 C71.977,64.621 72.384,64.577 72.735,64.84 C73.025,65.052 73.13,65.533 73.03,65.865 M75.172,67.552 C74.896,67.927 74.371,68.06 73.977,67.771 C73.58,67.474 73.559,67.054 73.644,66.598 C74.061,66.305 74.578,66.072 75.044,66.415 C75.433,66.705 75.454,67.175 75.172,67.552" id="Fill-46" fill="#FFFFFE"></path>
        <path d="M78.584,59.31 C77.616,58.829 76.716,59.053 76.224,60.04 C76.005,60.482 76.007,60.885 76.246,61.311 L76.223,61.322 C75.457,60.899 74.77,60.17 75.219,59.268 C75.396,58.915 75.628,58.681 75.884,58.462 L75.104,57.901 C74.797,58.197 74.558,58.529 74.37,58.909 C73.525,60.598 74.857,61.834 76.279,62.543 C77.507,63.159 78.877,63.439 79.603,61.986 C80.192,60.806 79.718,59.879 78.584,59.31 M78.819,61.596 C78.563,62.113 78.023,62.105 77.529,61.859 C77.002,61.596 76.633,61.168 76.888,60.662 C77.14,60.159 77.714,60.186 78.227,60.441 C78.693,60.673 79.064,61.112 78.819,61.596" id="Fill-47" fill="#FFFFFE"></path>
        <path d="M80.849,52.971 C79.395,52.537 78.721,53.444 78.488,54.232 C78.422,54.445 78.402,54.622 78.39,54.76 L77.2,54.378 L77.84,52.219 L77.005,51.973 L76.048,55.188 L79.047,56.143 C79.042,55.781 79.089,55.438 79.192,55.094 C79.384,54.453 79.822,53.886 80.547,54.102 C81.263,54.312 81.354,55.006 81.179,55.593 C81.034,56.08 80.753,56.414 80.557,56.652 L81.555,56.978 C81.754,56.633 81.976,56.152 82.104,55.718 C82.535,54.273 81.902,53.283 80.849,52.971" id="Fill-48" fill="#FFFFFE"></path>
        <path d="M138.619,61.048 L138.619,23.651 L138.068,23.102 L131.469,23.102 L130.92,23.651 L130.92,61.048 L131.469,61.599 L138.068,61.599 L138.619,61.048 Z M172.243,61.048 L172.243,55.548 L171.692,54.999 L154.643,54.999 L154.093,54.45 L154.093,23.651 L153.544,23.102 L146.944,23.102 L146.394,23.651 L146.394,61.048 L146.944,61.599 L171.692,61.599 L172.243,61.048 Z M207.489,34.65 C207.489,26.952 201.99,23.102 194.29,23.102 L176.141,23.102 L175.591,23.651 L175.591,61.048 L176.141,61.599 L182.741,61.599 L183.291,61.048 L183.291,46.75 L183.84,46.2 L189.34,46.2 L190.44,46.75 L201.439,61.048 L202.54,61.599 L205.839,61.599 L206.388,61.048 L206.388,55.548 L199.24,46.2 L199.24,45.649 C203.638,44.55 207.489,40.701 207.489,34.65 Z M199.79,34.65 C199.79,38.501 197.589,39.601 194.29,39.601 L183.84,39.601 L183.291,39.051 L183.291,30.251 L183.84,29.702 L194.29,29.702 C197.589,29.702 199.79,30.801 199.79,34.65 Z M255.335,50.6 C255.335,42.899 249.285,39.601 241.586,38.501 C233.886,37.4 231.686,36.301 231.686,33.001 C231.686,30.801 233.337,29.151 238.286,29.151 C244.336,29.151 245.985,30.801 245.985,34.101 L246.536,34.65 L253.134,34.65 L253.684,34.101 C253.684,27.502 249.285,22.552 238.836,22.552 C228.386,22.552 223.986,27.502 223.986,33.001 C223.986,40.701 230.037,43.45 237.735,44.55 C245.435,45.649 247.634,46.75 247.634,50.6 C247.634,53.899 244.885,55.548 239.935,55.548 C233.337,55.548 231.136,53.35 231.136,49.5 L230.587,48.95 L223.986,48.95 L223.436,49.5 C223.436,56.649 228.386,62.149 239.385,62.149 C250.934,62.149 255.335,56.649 255.335,50.6 Z M264.589,47.85 C264.589,42.899 266.79,40.15 270.638,40.15 C273.388,40.15 275.039,41.251 275.589,42.899 L276.138,43.45 L282.739,43.45 L283.288,42.899 C282.188,36.301 276.688,33.551 270.638,33.551 C262.389,33.551 256.89,39.051 256.89,47.85 C256.89,56.649 262.389,62.149 270.638,62.149 C276.688,62.149 282.188,59.399 283.288,52.8 L282.739,52.25 L276.138,52.25 L275.589,52.8 C275.039,54.45 273.388,55.548 270.638,55.548 C266.79,55.548 264.589,52.8 264.589,47.85 Z M311.428,61.048 L311.428,44.55 C311.428,37.951 307.58,33.551 300.979,33.551 C297.13,33.551 294.93,35.201 293.831,36.301 L293.281,36.301 L293.281,23.651 L292.73,23.102 L286.13,23.102 L285.581,23.651 L285.581,61.048 L286.13,61.599 L292.73,61.599 L293.281,61.048 L293.281,47.3 C293.281,42.35 295.48,40.15 299.33,40.15 C302.63,40.15 303.729,42.35 303.729,45.1 L303.729,61.048 L304.28,61.599 L310.879,61.599 L311.428,61.048 Z M341.219,47.85 C341.219,39.051 335.72,33.551 327.47,33.551 C319.221,33.551 313.721,39.051 313.721,47.85 C313.721,56.649 319.221,62.149 327.47,62.149 C335.72,62.149 341.219,56.649 341.219,47.85 Z M333.52,47.85 C333.52,52.8 331.321,55.548 327.47,55.548 C323.622,55.548 321.422,52.8 321.422,47.85 C321.422,42.899 323.622,40.15 327.47,40.15 C331.321,40.15 333.52,42.899 333.52,47.85 Z M369.95,47.85 C369.95,39.051 364.45,33.551 356.201,33.551 C347.952,33.551 342.452,39.051 342.452,47.85 C342.452,56.649 347.952,62.149 356.201,62.149 C364.45,62.149 369.95,56.649 369.95,47.85 Z M362.25,47.85 C362.25,52.8 360.05,55.548 356.201,55.548 C352.35,55.548 350.15,52.8 350.15,47.85 C350.15,42.899 352.35,40.15 356.201,40.15 C360.05,40.15 362.25,42.899 362.25,47.85 Z M380.134,61.048 L380.134,23.651 L379.585,23.102 L372.984,23.102 L372.434,23.651 L372.434,61.048 L372.984,61.599 L379.585,61.599 L380.134,61.048 Z" id="Fill-49" fill="#FFFFFE"></path>
    </g>
</svg>