<?xml version="1.0" encoding="utf-8"?>
<!-- Generator: Adobe Illustrator 15.1.0, SVG Export Plug-In . SVG Version: 6.00 Build 0)  -->
<!DOCTYPE svg PUBLIC "-//W3C//DTD SVG 1.1//EN" "http://www.w3.org/Graphics/SVG/1.1/DTD/svg11.dtd">
<svg version="1.1" id="Layer_1" xmlns="http://www.w3.org/2000/svg" xmlns:xlink="http://www.w3.org/1999/xlink" x="0px" y="0px"
	 width="418.649px" height="55.213px" viewBox="0 0 418.649 55.213" enable-background="new 0 0 418.649 55.213"
	 xml:space="preserve">
<path fill="#B32025" d="M20.125,5.525h-7.188v35.129h-5.75V5.525H0V0.404h20.125V5.525z"/>
<path fill="#B32025" d="M28.66,21.967v18.688h-5.75V0.404h5.75v17.25h10.062V0.404h5.75v40.25h-5.75V21.967H28.66z"/>
<path fill="#B32025" d="M55.973,21.967v14.375h10.062v4.312H50.223V0.404h15.812v4.312H55.973v12.938h7.188v4.312H55.973z"/>
<path fill="#FFFFFF" d="M97.795,19.092l1.415,11.5l1.46-11.5l2.875-18.688h5.75l-7.188,40.25h-5.75l-2.875-18.688l-1.438-11.5
	l-1.438,11.5l-2.875,18.688h-5.75l-7.188-40.25h5.75l2.875,18.688l1.46,11.5l1.415-11.5L89.17,0.404h5.75L97.795,19.092z"/>
<path fill="#FFFFFF" d="M132.789,13.117v14.6c0,8.086-2.92,13.342-11.096,13.342c-8.243,0-11.096-5.145-11.096-13.342v-14.6
	C110.598,4.919,113.45,0,121.693,0C129.869,0,132.789,5.031,132.789,13.117z M116.348,11.68v17.475c0,4.312,1.033,7.188,5.346,7.188
	s5.346-2.875,5.346-7.188V11.68c0-4.312-1.033-6.963-5.346-6.963S116.348,7.367,116.348,11.68z"/>
<path fill="#FFFFFF" d="M152.914,20.53l6.469,20.125h-5.705l-5.795-18.688h-4.312v18.688h-5.75V0.404h7.188
	c8.198,0,12.938,2.785,12.938,10.781C157.945,15.924,156.261,19.317,152.914,20.53z M145.008,4.717h-1.438v12.938h1.438
	c4.649,0,7.188-1.775,7.188-6.469C152.195,6.491,149.657,4.717,145.008,4.717z"/>
<path fill="#FFFFFF" d="M178.52,40.655l-7.188-18.688l-2.875,5.75v12.938h-5.75V0.404h5.75v17.25l8.625-17.25h7.188l-8.647,15.813
	l10.085,24.438H178.52z"/>
<path fill="#FFFFFF" d="M193.568,21.967v14.375h10.062v4.312h-15.812V0.404h15.812v4.312h-10.062v12.938h7.188v4.312H193.568z"/>
<path fill="#FFFFFF" d="M222.251,20.53l6.469,20.125h-5.705l-5.795-18.688h-4.312v18.688h-5.75V0.404h7.188
	c8.198,0,12.938,2.785,12.938,10.781C227.282,15.924,225.598,19.317,222.251,20.53z M214.345,4.717h-1.438v12.938h1.438
	c4.649,0,7.188-1.775,7.188-6.469C221.532,6.491,218.994,4.717,214.345,4.717z"/>
<path fill="#FFFFFF" d="M245.925,0.404v40.25h-5.75V0.404H245.925z"/>
<path fill="#FFFFFF" d="M257.829,13.881v26.774h-5.75V0.404h4.312l10.062,24.887V0.404h5.75v40.25h-4.088L257.829,13.881z"/>
<path fill="#FFFFFF" d="M287.006,4.717c-2.785,0-4.312,1.64-4.312,4.38c0,2.493,1.303,4.425,2.875,5.683l7.188,5.75
	c2.942,2.381,5.75,5.975,5.75,11.117c0,5.975-4.021,9.412-10.062,9.412c-7.524,0-11.073-4.875-11.5-11.904l5.75-1.438
	c0.202,4.154,1.393,8.625,5.75,8.625c2.875,0,4.312-1.438,4.312-4.312c0-3.617-2.224-5.504-4.312-7.188l-7.188-5.75
	c-2.471-1.932-4.335-5.122-4.335-9.389c0-5.975,4.043-9.703,10.085-9.703c7.12,0,10.983,3.931,11.5,10.467l-5.75,1.438
	C292.509,8.086,291.071,4.717,287.006,4.717z"/>
<path fill="#FFFFFF" d="M319.866,5.525h-7.188v35.129h-5.75V5.525h-7.188V0.404h20.125V5.525z"/>
<path fill="#FFFFFF" d="M328.671,0.404v40.25h-5.75V0.404H328.671z"/>
<path fill="#FFFFFF" d="M351.985,5.525h-7.188v35.129h-5.75V5.525h-7.188V0.404h20.125V5.525z"/>
<path fill="#FFFFFF" d="M365.956,41.081c-8.939,0-11.5-5.93-11.5-14.801V0.404h5.75V26.28c0,5.322,0.427,10.062,5.75,10.062
	s5.75-4.74,5.75-10.062V0.404h5.75V26.28C377.456,35.151,374.896,41.081,365.956,41.081z"/>
<path fill="#FFFFFF" d="M400.052,5.525h-7.188v35.129h-5.75V5.525h-7.188V0.404h20.125V5.525z"/>
<path fill="#FFFFFF" d="M408.587,21.967v14.375h10.062v4.312h-15.812V0.404h15.812v4.312h-10.062v12.938h7.188v4.312H408.587z"/>
<path fill="#FFFFFF" d="M8.285,55.055H7.389c0.943-4.676,1.049-5.402,1.992-10.084h1.16l1.992,10.084h-0.902l-0.504-2.625H8.801
	L8.285,55.055z M8.906,51.838h2.109l-1.061-5.941L8.906,51.838z"/>
<path fill="#FFFFFF" d="M14.912,55.055V44.971h2.268c1.957,0,2.572,1.336,2.572,3.006v4.102c0,1.629-0.568,2.977-2.572,2.977H14.912
	z M15.802,54.34h1.377c1.312,0,1.682-0.938,1.682-2.062v-4.5c0-1.16-0.369-2.092-1.682-2.092h-1.377V54.34z"/>
<path fill="#FFFFFF" d="M23.976,55.055l-2.168-10.084h0.961L24.556,54l1.711-9.029h0.961l-2.086,10.084H23.976z"/>
<path fill="#FFFFFF" d="M29.564,55.055h-0.896c0.943-4.676,1.049-5.402,1.992-10.084h1.16l1.992,10.084H32.91l-0.504-2.625H30.08
	L29.564,55.055z M30.186,51.838h2.109l-1.061-5.941L30.186,51.838z"/>
<path fill="#FFFFFF" d="M36.191,55.055V44.971h0.686l3.193,7.986v-7.986h0.756v10.084h-0.668l-3.199-7.816v7.816H36.191z"/>
<path fill="#FFFFFF" d="M43.603,52.131v-4.225c0-1.705,0.604-3.076,2.561-3.076c1.816,0,2.367,1.371,2.367,3.076v0.41h-0.85v-0.609
	c0-1.23-0.346-2.162-1.518-2.162c-1.312,0-1.67,0.932-1.67,2.162v4.623c0,1.23,0.357,2.168,1.67,2.168
	c1.172,0,1.518-0.938,1.518-2.168v-0.691h0.85v0.492c0,1.693-0.504,3.082-2.367,3.082C44.159,55.213,43.603,53.825,43.603,52.131z"
	/>
<path fill="#FFFFFF" d="M51.272,55.055V44.971h0.891v10.084H51.272z"/>
<path fill="#FFFFFF" d="M55.103,55.055V44.971h0.686l3.193,7.986v-7.986h0.756v10.084H59.07l-3.199-7.816v7.816H55.103z"/>
<path fill="#FFFFFF" d="M62.515,52.237v-4.277c0-1.611,0.527-3.129,2.672-3.129c2.021,0,2.42,1.57,2.432,3.363v0.07h-0.891v-0.076
	c0-1.312-0.076-2.643-1.553-2.643c-1.359,0-1.77,0.996-1.77,2.039v5.039c0,0.938,0.34,1.875,1.74,1.875
	c1.301,0,1.582-0.99,1.582-1.875v-1.705h-1.236v-0.674h2.127v4.811h-0.393l-0.264-0.984c-0.27,0.703-1.02,1.143-1.828,1.143
	C62.649,55.213,62.515,53.174,62.515,52.237z"/>
<path fill="#FFFFFF" d="M74.648,55.055l-1.688-10.084h0.832l1.377,8.625l1.301-8.625h1.131l1.189,8.625l1.371-8.625h0.826
	l-1.676,10.084h-1.025l-1.26-8.906l-1.359,8.906H74.648z"/>
<path fill="#FFFFFF" d="M83.103,52.131v-4.225c0-1.705,0.615-3.076,2.572-3.076s2.572,1.371,2.572,3.076v4.225
	c0,1.693-0.568,3.082-2.572,3.082S83.103,53.825,83.103,52.131z M87.356,52.331v-4.623c0-1.195-0.369-2.162-1.682-2.162
	s-1.682,0.967-1.682,2.162v4.623c0,1.195,0.369,2.168,1.682,2.168S87.356,53.526,87.356,52.331z"/>
<path fill="#FFFFFF" d="M91.024,55.055V44.971h2.689c1.752,0,2.162,1.207,2.162,2.607c0,1.031-0.299,2.039-1.406,2.443l1.559,5.033
	h-0.949l-1.471-4.922h-1.693v4.922H91.024z M91.915,49.418h1.793c1.066,0,1.277-0.926,1.277-1.869c0-1.002-0.234-1.863-1.277-1.863
	h-1.793V49.418z"/>
<path fill="#FFFFFF" d="M98.512,55.055V44.971h0.891v5.303l2.689-5.303h0.92l-2.086,4.16l2.561,5.924h-0.943l-2.156-5.326
	l-0.984,1.77v3.557H98.512z"/>
<path fill="#FFFFFF" d="M105.654,55.055V44.971h3.516v0.715h-2.625v3.82h1.875v0.674h-1.875v4.16h2.625v0.715H105.654z"/>
<path fill="#FFFFFF" d="M111.606,55.055V44.971h2.689c1.752,0,2.162,1.207,2.162,2.607c0,1.031-0.299,2.039-1.406,2.443l1.559,5.033
	h-0.949l-1.471-4.922h-1.693v4.922H111.606z M112.497,49.418h1.793c1.066,0,1.277-0.926,1.277-1.869
	c0-1.002-0.234-1.863-1.277-1.863h-1.793V49.418z"/>
<path fill="#FFFFFF" d="M122.275,55.055V44.971h2.689c1.752,0,2.162,1.207,2.162,2.607c0,1.031-0.299,2.039-1.406,2.443l1.559,5.033
	h-0.949l-1.471-4.922h-1.693v4.922H122.275z M123.166,49.418h1.793c1.066,0,1.277-0.926,1.277-1.869
	c0-1.002-0.234-1.863-1.277-1.863h-1.793V49.418z"/>
<path fill="#FFFFFF" d="M129.757,55.055V44.971h0.891v10.084H129.757z"/>
<path fill="#FFFFFF" d="M133.43,52.237v-4.277c0-1.611,0.527-3.129,2.672-3.129c2.021,0,2.42,1.57,2.432,3.363v0.07h-0.891v-0.076
	c0-1.312-0.076-2.643-1.553-2.643c-1.359,0-1.77,0.996-1.77,2.039v5.039c0,0.938,0.34,1.875,1.74,1.875
	c1.301,0,1.582-0.99,1.582-1.875v-1.705h-1.236v-0.674h2.127v4.811h-0.393l-0.264-0.984c-0.27,0.703-1.02,1.143-1.828,1.143
	C133.564,55.213,133.43,53.174,133.43,52.237z"/>
<path fill="#FFFFFF" d="M141.357,55.055V44.971h0.891v4.564h3.105v-4.564h0.891v10.084h-0.891v-4.898h-3.105v4.898H141.357z"/>
<path fill="#FFFFFF" d="M150.081,55.055v-9.369h-1.963v-0.715h4.834v0.715h-1.98v9.369H150.081z"/>
<path fill="#FFFFFF" d="M154.445,52.624l0.785-0.229c0.123,1.061,0.604,2.104,1.799,2.104c0.92,0,1.436-0.533,1.436-1.459
	c0-0.855-0.621-1.588-1.354-2.361l-1.576-1.658c-0.592-0.627-1.066-1.26-1.066-2.016c0-1.336,0.979-2.174,2.32-2.174
	c1.33,0,2.133,0.773,2.396,2.186l0.018,0.094l-0.75,0.234l-0.012-0.082c-0.146-0.943-0.691-1.717-1.652-1.717
	c-0.855,0-1.459,0.434-1.459,1.342c0,0.568,0.34,1.078,0.826,1.605l1.482,1.611c0.791,0.867,1.676,1.699,1.676,2.859
	c0,1.488-1.031,2.25-2.385,2.25C155.453,55.213,154.656,54.012,154.445,52.624z"/>
<path fill="#FFFFFF" d="M165.354,55.055h-0.896c0.943-4.676,1.049-5.402,1.992-10.084h1.16l1.992,10.084H168.7l-0.504-2.625h-2.326
	L165.354,55.055z M165.976,51.838h2.109l-1.061-5.941L165.976,51.838z"/>
<path fill="#FFFFFF" d="M171.98,55.055V44.971h0.686l3.193,7.986v-7.986h0.756v10.084h-0.668l-3.199-7.816v7.816H171.98z"/>
<path fill="#FFFFFF" d="M179.551,55.055V44.971h2.268c1.957,0,2.572,1.336,2.572,3.006v4.102c0,1.629-0.568,2.977-2.572,2.977
	H179.551z M180.441,54.34h1.377c1.312,0,1.682-0.938,1.682-2.062v-4.5c0-1.16-0.369-2.092-1.682-2.092h-1.377V54.34z"/>
<path fill="#FFFFFF" d="M190.189,52.131v-4.225c0-1.705,0.604-3.076,2.561-3.076c1.816,0,2.367,1.371,2.367,3.076v0.41h-0.85v-0.609
	c0-1.23-0.346-2.162-1.518-2.162c-1.312,0-1.67,0.932-1.67,2.162v4.623c0,1.23,0.357,2.168,1.67,2.168
	c1.172,0,1.518-0.938,1.518-2.168v-0.691h0.85v0.492c0,1.693-0.504,3.082-2.367,3.082C190.746,55.213,190.189,53.825,190.189,52.131
	z"/>
<path fill="#FFFFFF" d="M197.707,52.131v-4.225c0-1.705,0.615-3.076,2.572-3.076s2.572,1.371,2.572,3.076v4.225
	c0,1.693-0.568,3.082-2.572,3.082S197.707,53.825,197.707,52.131z M201.961,52.331v-4.623c0-1.195-0.369-2.162-1.682-2.162
	s-1.682,0.967-1.682,2.162v4.623c0,1.195,0.369,2.168,1.682,2.168S201.961,53.526,201.961,52.331z"/>
<path fill="#FFFFFF" d="M205.629,55.055V44.971h0.891v9.369h2.818v0.715H205.629z"/>
<path fill="#FFFFFF" d="M211.439,55.055V44.971h0.891v9.369h2.818v0.715H211.439z"/>
<path fill="#FFFFFF" d="M217.252,55.055V44.971h3.516v0.715h-2.625v3.82h1.875v0.674h-1.875v4.16h2.625v0.715H217.252z"/>
<path fill="#FFFFFF" d="M223.047,52.131v-4.225c0-1.705,0.604-3.076,2.561-3.076c1.816,0,2.367,1.371,2.367,3.076v0.41h-0.85v-0.609
	c0-1.23-0.346-2.162-1.518-2.162c-1.312,0-1.67,0.932-1.67,2.162v4.623c0,1.23,0.357,2.168,1.67,2.168
	c1.172,0,1.518-0.938,1.518-2.168v-0.691h0.85v0.492c0,1.693-0.504,3.082-2.367,3.082C223.604,55.213,223.047,53.825,223.047,52.131
	z"/>
<path fill="#FFFFFF" d="M231.624,55.055v-9.369h-1.963v-0.715h4.834v0.715h-1.98v9.369H231.624z"/>
<path fill="#FFFFFF" d="M236.363,55.055V44.971h0.891v10.084H236.363z"/>
<path fill="#FFFFFF" d="M241.643,55.055l-2.168-10.084h0.961L242.223,54l1.711-9.029h0.961l-2.086,10.084H241.643z"/>
<path fill="#FFFFFF" d="M247.108,55.055V44.971h3.516v0.715h-2.625v3.82h1.875v0.674h-1.875v4.16h2.625v0.715H247.108z"/>
<path fill="#FFFFFF" d="M256.242,55.055V44.971h2.689c1.752,0,2.162,1.207,2.162,2.607c0,1.031-0.299,2.039-1.406,2.443l1.559,5.033
	h-0.949l-1.471-4.922h-1.693v4.922H256.242z M257.133,49.418h1.793c1.066,0,1.277-0.926,1.277-1.869
	c0-1.002-0.234-1.863-1.277-1.863h-1.793V49.418z"/>
<path fill="#FFFFFF" d="M263.729,55.055V44.971h3.516v0.715h-2.625v3.82h1.875v0.674h-1.875v4.16h2.625v0.715H263.729z"/>
<path fill="#FFFFFF" d="M269.682,55.055V44.971h2.467c1.799,0,2.385,1.26,2.385,2.713c0,1.436-0.469,2.889-2.391,2.889h-1.57v4.482
	H269.682z M270.572,49.858l1.676,0.006c1.02,0.006,1.395-0.703,1.395-2.162c0-1.4-0.463-2.016-1.395-2.016h-1.676V49.858z"/>
<path fill="#FFFFFF" d="M276.883,55.055V44.971h2.689c1.752,0,2.162,1.207,2.162,2.607c0,1.031-0.299,2.039-1.406,2.443l1.559,5.033
	h-0.949l-1.471-4.922h-1.693v4.922H276.883z M277.773,49.418h1.793c1.066,0,1.277-0.926,1.277-1.869
	c0-1.002-0.234-1.863-1.277-1.863h-1.793V49.418z"/>
<path fill="#FFFFFF" d="M284.37,55.055V44.971h3.516v0.715h-2.625v3.82h1.875v0.674h-1.875v4.16h2.625v0.715H284.37z"/>
<path fill="#FFFFFF" d="M289.942,52.624l0.785-0.229c0.123,1.061,0.604,2.104,1.799,2.104c0.92,0,1.436-0.533,1.436-1.459
	c0-0.855-0.621-1.588-1.354-2.361l-1.576-1.658c-0.592-0.627-1.066-1.26-1.066-2.016c0-1.336,0.979-2.174,2.32-2.174
	c1.33,0,2.133,0.773,2.396,2.186l0.018,0.094l-0.75,0.234l-0.012-0.082c-0.146-0.943-0.691-1.717-1.652-1.717
	c-0.855,0-1.459,0.434-1.459,1.342c0,0.568,0.34,1.078,0.826,1.605l1.482,1.611c0.791,0.867,1.676,1.699,1.676,2.859
	c0,1.488-1.031,2.25-2.385,2.25C290.95,55.213,290.153,54.012,289.942,52.624z"/>
<path fill="#FFFFFF" d="M297.33,55.055V44.971h3.516v0.715h-2.625v3.82h1.875v0.674h-1.875v4.16h2.625v0.715H297.33z"/>
<path fill="#FFFFFF" d="M303.282,55.055V44.971h0.686l3.193,7.986v-7.986h0.756v10.084h-0.668l-3.199-7.816v7.816H303.282z"/>
<path fill="#FFFFFF" d="M311.755,55.055v-9.369h-1.963v-0.715h4.834v0.715h-1.98v9.369H311.755z"/>
<path fill="#FFFFFF" d="M316.67,55.055h-0.896c0.943-4.676,1.049-5.402,1.992-10.084h1.16l1.992,10.084h-0.902l-0.504-2.625h-2.326
	L316.67,55.055z M317.291,51.838h2.109l-1.061-5.941L317.291,51.838z"/>
<path fill="#FFFFFF" d="M324.04,55.055v-9.369h-1.963v-0.715h4.834v0.715h-1.98v9.369H324.04z"/>
<path fill="#FFFFFF" d="M328.78,55.055V44.971h0.891v10.084H328.78z"/>
<path fill="#FFFFFF" d="M332.453,52.131v-4.225c0-1.705,0.615-3.076,2.572-3.076s2.572,1.371,2.572,3.076v4.225
	c0,1.693-0.568,3.082-2.572,3.082S332.453,53.825,332.453,52.131z M336.707,52.331v-4.623c0-1.195-0.369-2.162-1.682-2.162
	s-1.682,0.967-1.682,2.162v4.623c0,1.195,0.369,2.168,1.682,2.168S336.707,53.526,336.707,52.331z"/>
<path fill="#FFFFFF" d="M340.375,55.055V44.971h0.686l3.193,7.986v-7.986h0.756v10.084h-0.668l-3.199-7.816v7.816H340.375z"/>
</svg>
