<?xml version="1.0" encoding="utf-8"?>
<!-- Generator: Adobe Illustrator 16.0.0, SVG Export Plug-In . SVG Version: 6.00 Build 0)  -->
<!DOCTYPE svg PUBLIC "-//W3C//DTD SVG 1.1//EN" "http://www.w3.org/Graphics/SVG/1.1/DTD/svg11.dtd">
<svg version="1.1" id="Layer_1" xmlns="http://www.w3.org/2000/svg" xmlns:xlink="http://www.w3.org/1999/xlink" x="0px" y="0px"
	 width="180px" height="18px" viewBox="0 0 180 18" enable-background="new 0 0 180 18" xml:space="preserve">
<g>
	<path fill="#B32025" d="M8.657,2.376H5.565V17.49H3.092V2.376H0V0.174h8.657V2.376z"/>
	<path fill="#B32025" d="M12.325,9.448v8.042H9.851V0.174h2.475v7.421h4.329V0.174h2.462V17.49h-2.462V9.448H12.325L12.325,9.448z"
		/>
	<path fill="#B32025" d="M24.063,9.448v6.174h4.329v1.867h-6.803V0.174h6.803v1.854h-4.329v5.566h3.093v1.854H24.063L24.063,9.448z"
		/>
	<path fill="#FFFFFF" d="M42.052,8.214l0.607,4.936l0.626-4.936l1.23-8.04h2.471L43.901,17.49h-2.467l-1.237-8.042l-0.619-4.946
		l-0.618,4.946l-1.237,8.042h-2.474L32.155,0.174h2.473l1.237,8.04l0.629,4.936l0.607-4.936l1.238-8.04h2.473L42.052,8.214z"/>
	<path fill="#FFFFFF" d="M57.088,5.642v6.271c0,3.471-1.247,5.752-4.763,5.752c-3.547,0-4.773-2.228-4.773-5.752V5.642
		C47.553,2.116,48.778,0,52.326,0C55.841,0,57.088,2.159,57.088,5.642z M50.026,5.023v7.519c0,1.843,0.445,3.081,2.3,3.081
		c1.856,0,2.297-1.236,2.297-3.081V5.023c0-1.854-0.441-2.995-2.297-2.995C50.471,2.028,50.026,3.167,50.026,5.023z"/>
	<path fill="#FFFFFF" d="M65.746,8.832l2.776,8.658h-2.451l-2.483-8.042h-1.856v8.042h-2.473V0.174h3.093
		c3.521,0,5.555,1.193,5.555,4.632C67.905,6.845,67.19,8.306,65.746,8.832z M62.351,2.029h-0.619v5.567h0.619
		c1.997,0,3.083-0.772,3.083-2.79C65.435,2.789,64.348,2.029,62.351,2.029z"/>
	<path fill="#FFFFFF" d="M76.759,17.49l-3.093-8.042l-1.237,2.465v5.577h-2.473V0.174h2.473v7.421l3.711-7.421h3.092l-3.72,6.803
		l4.336,10.514H76.759z"/>
	<path fill="#FFFFFF" d="M83.225,9.448v6.174h4.329v1.867H80.75V0.174h6.803v1.854h-4.329v5.566h3.093v1.854H83.225L83.225,9.448z"
		/>
	<path fill="#FFFFFF" d="M95.556,8.832l2.79,8.658h-2.458l-2.494-8.042h-1.857v8.042h-2.462V0.174h3.082
		c3.529,0,5.564,1.193,5.564,4.632C97.719,6.845,96.992,8.306,95.556,8.832z M92.154,2.029h-0.617v5.567h0.617
		c2.002,0,3.092-0.772,3.092-2.79C95.246,2.789,94.157,2.029,92.154,2.029z"/>
	<path fill="#FFFFFF" d="M105.731,0.174V17.49h-2.461V0.174H105.731z"/>
	<path fill="#FFFFFF" d="M110.846,5.967V17.49h-2.474V0.174h1.868l4.316,10.697V0.174h2.474V17.49h-1.757L110.846,5.967z"/>
	<path fill="#FFFFFF" d="M123.4,2.029c-1.193,0-1.849,0.705-1.849,1.882c0,1.069,0.545,1.905,1.231,2.448l3.092,2.474
		c1.27,1.02,2.474,2.559,2.474,4.784c0,2.56-1.725,4.047-4.336,4.047c-3.225,0-4.745-2.107-4.928-5.12l2.467-0.631
		c0.081,1.79,0.592,3.71,2.461,3.71c1.231,0,1.86-0.606,1.86-1.842c0-1.564-0.966-2.378-1.86-3.104l-3.087-2.462
		c-1.062-0.836-1.854-2.203-1.854-4.04c0-2.567,1.736-4.173,4.328-4.173c3.072,0,4.72,1.693,4.947,4.502l-2.474,0.619
		C125.771,3.472,125.146,2.029,123.4,2.029z"/>
	<path fill="#FFFFFF" d="M137.537,2.376h-3.104V17.49h-2.475V2.376h-3.08V0.174h8.658L137.537,2.376L137.537,2.376z"/>
	<path fill="#FFFFFF" d="M141.311,0.174V17.49h-2.473V0.174H141.311z"/>
	<path fill="#FFFFFF" d="M151.335,2.376h-3.08V17.49h-2.473V2.376h-3.105V0.174h8.658V2.376L151.335,2.376z"/>
	<path fill="#FFFFFF" d="M157.348,17.666c-3.841,0-4.948-2.554-4.948-6.36V0.174h2.474v11.133c0,2.288,0.185,4.316,2.475,4.316
		c2.289,0,2.474-2.028,2.474-4.316V0.174h2.473v11.133C162.295,15.112,161.188,17.666,157.348,17.666z"/>
	<path fill="#FFFFFF" d="M172.002,2.376h-3.091V17.49h-2.473V2.376h-3.081V0.174h8.645V2.376L172.002,2.376z"/>
	<path fill="#FFFFFF" d="M175.684,9.448v6.174H180v1.867h-6.791V0.174H180v1.854h-4.316v5.566h3.081v1.854H175.684L175.684,9.448z"
		/>
</g>
</svg>
