<?xml version="1.0" encoding="utf-8"?>
<!-- Generator: Adobe Illustrator 16.0.0, SVG Export Plug-In . SVG Version: 6.00 Build 0)  -->
<!DOCTYPE svg PUBLIC "-//W3C//DTD SVG 1.1//EN" "http://www.w3.org/Graphics/SVG/1.1/DTD/svg11.dtd">
<svg version="1.1" id="Layer_1" xmlns="http://www.w3.org/2000/svg" xmlns:xlink="http://www.w3.org/1999/xlink" x="0px" y="0px"
	 width="32.217px" height="32.717px" viewBox="0 0 32.217 32.717" enable-background="new 0 0 32.217 32.717" xml:space="preserve">
<path fill-rule="evenodd" clip-rule="evenodd" fill="#FFFFFF" d="M12.5,3c5.246,0,9.5,4.254,9.5,9.5S17.746,22,12.5,22
	S3,17.746,3,12.5S7.254,3,12.5,3z M19.518,22.846l9.871,9.872l2.828-2.828c0,0-9.792-9.791-9.791-9.792
	C24.041,17.992,25,15.358,25,12.5C25,5.596,19.404,0,12.5,0S0,5.596,0,12.5S5.596,25,12.5,25C15.102,25,17.517,24.206,19.518,22.846
	z"/>
</svg>
